<svg width="40" height="40" viewBox="0 0 40 40" fill="none" xmlns="http://www.w3.org/2000/svg">
<path fill-rule="evenodd" clip-rule="evenodd" d="M1.29622 0.12533C0.861895 0.279159 0.213995 0.957309 0.0963309 1.3813C-0.0321658 1.84404 -0.0320825 38.1529 0.0964142 38.624C0.215994 39.0625 0.921393 39.7569 1.38921 39.8966C1.65412 39.9756 4.68271 39.999 14.6865 39.999C29.3226 39.999 28.1296 40.0553 28.7788 39.3333C28.9769 39.1129 29.1836 38.7838 29.2381 38.602C29.3022 38.3878 29.3372 37.591 29.3372 36.3398V34.4082L29.1326 34.2037C28.862 33.933 28.479 33.933 28.2084 34.2037L28.0039 34.4082V36.2413C28.0039 38.2098 27.9663 38.4256 27.5972 38.5778C27.4432 38.6413 23.593 38.6614 14.528 38.6459C2.31886 38.6251 1.66971 38.6166 1.52838 38.4752C1.38638 38.3333 1.37955 37.4815 1.37955 19.9892V1.65187L1.57629 1.49263C1.76762 1.33763 2.05811 1.3333 12.2219 1.3333H22.6707L22.6712 3.14575C22.6714 4.20964 22.7096 5.09587 22.7636 5.29153C22.8873 5.73969 23.5975 6.44983 24.0456 6.57358C24.2413 6.62758 25.1275 6.66575 26.1914 6.666L28.0039 6.6665V13.4617V20.2571L28.2084 20.4616C28.479 20.7322 28.862 20.7322 29.1326 20.4616L29.3372 20.2571V12.984V5.71085L26.4817 2.85543L23.6263 0L12.6279 0.00366662C3.3585 0.00674988 1.57713 0.0258326 1.29622 0.12533ZM25.8078 5.31453C24.496 5.3397 24.2095 5.27978 24.0858 4.95429C24.0408 4.83588 24.004 4.18873 24.004 3.51616V2.29336L25.505 3.7924L27.006 5.29153L25.8078 5.31453ZM8.85219 5.52602C8.58795 5.80735 8.60628 6.27017 8.8906 6.49375C9.10743 6.66433 9.17535 6.6665 14.3375 6.6665C19.4998 6.6665 19.5677 6.66433 19.7845 6.49375C20.0947 6.24984 20.0947 5.74985 19.7845 5.50594C19.5677 5.33528 19.5002 5.3332 14.2991 5.3332H9.03343L8.85219 5.52602ZM4.20906 9.53767C3.92232 9.82441 3.92915 10.2617 4.22406 10.4936C4.44255 10.6656 4.48155 10.6664 12.0043 10.6664C19.527 10.6664 19.566 10.6656 19.7845 10.4936C20.0947 10.2497 20.0947 9.74975 19.7845 9.50584C19.566 9.33393 19.5272 9.33309 11.9893 9.33309H4.41355L4.20906 9.53767ZM21.5569 9.50584C21.2468 9.74975 21.2468 10.2497 21.5569 10.4936C21.7613 10.6545 21.8844 10.6664 23.3373 10.6664C24.7902 10.6664 24.9134 10.6545 25.1177 10.4936C25.411 10.263 25.4243 9.77716 25.1444 9.51425C24.9603 9.34134 24.8793 9.33309 23.364 9.33309C21.8842 9.33309 21.7616 9.34484 21.5569 9.50584ZM4.20906 13.5376C3.92232 13.8243 3.92915 14.2616 4.22406 14.4935C4.44347 14.6662 4.45039 14.6663 14.6709 14.6663C24.8914 14.6663 24.8983 14.6662 25.1177 14.4935C25.4278 14.2496 25.4278 13.7496 25.1177 13.5057C24.8983 13.3331 24.8915 13.333 14.6559 13.333H4.41355L4.20906 13.5376ZM36.0287 16.1548C35.7903 16.2371 35.4528 16.4038 35.2787 16.5252C35.1045 16.6466 31.9118 19.7969 28.1839 23.5261L21.4057 30.3063L20.7049 32.7557C20.3194 34.1029 20.0041 35.2917 20.0041 35.3975C20.0041 35.5034 20.0961 35.682 20.2086 35.7945C20.3211 35.907 20.4997 35.9991 20.6056 35.9991C20.7115 35.9991 21.9003 35.6838 23.2475 35.2983L25.6968 34.5974L32.5617 27.736C40.4325 19.8691 39.9646 20.4216 39.9586 19.0013C39.9558 18.37 39.9183 18.1275 39.7751 17.8145C39.5665 17.359 39.0106 16.7263 38.5788 16.4532C37.8714 16.0057 36.8171 15.8823 36.0287 16.1548ZM4.35689 17.3886C4.16739 17.4649 3.99048 17.9129 4.04748 18.1722C4.14764 18.6284 4.29922 18.6662 6.02843 18.6662C6.89207 18.6662 7.66605 18.6301 7.74847 18.586C8.00221 18.4502 8.12579 18.0427 8.00304 17.7464C7.94538 17.6071 7.8308 17.4571 7.74847 17.4131C7.59689 17.3319 4.5523 17.3101 4.35689 17.3886ZM9.578 17.4906C9.42951 17.6109 9.38309 17.732 9.38309 17.9995C9.38309 18.267 9.42951 18.3882 9.578 18.5084C9.76592 18.6607 10.0399 18.6662 17.3791 18.6662C24.7184 18.6662 24.9924 18.6607 25.1803 18.5084C25.3288 18.3882 25.3752 18.267 25.3752 17.9995C25.3752 17.732 25.3288 17.6109 25.1803 17.4906C24.9924 17.3384 24.7184 17.3329 17.3791 17.3329C10.0399 17.3329 9.76592 17.3384 9.578 17.4906ZM37.762 17.5649C38.1216 17.7527 38.2504 17.8815 38.4383 18.2411C38.8379 19.0061 38.6969 19.6975 38.0033 20.3748L37.6667 20.7035L36.4831 19.52L35.2997 18.3364L35.6308 17.9914C36.2887 17.3059 36.9955 17.1645 37.762 17.5649ZM34.7139 19.6681L35.0413 20.0034L29.3566 25.6882L23.6718 31.3729L23.3178 31.0189L22.9637 30.6649L28.6293 24.9989C31.7454 21.8825 34.3155 19.3328 34.3407 19.3328C34.3659 19.3328 34.5339 19.4837 34.7139 19.6681ZM36.3806 21.3347L36.7079 21.67L31.0232 27.3548L25.3384 33.0395L24.9844 32.6855L24.6304 32.3315L30.296 26.6655C33.4121 23.5491 35.9822 20.9995 36.0073 20.9995C36.0326 20.9995 36.2005 21.1504 36.3806 21.3347ZM4.18564 21.5256C3.9214 21.8069 3.93973 22.2698 4.22406 22.4933C4.44347 22.666 4.45039 22.6661 14.6709 22.6661C24.8914 22.6661 24.8983 22.666 25.1177 22.4933C25.411 22.2627 25.4243 21.7769 25.1444 21.5139L24.9515 21.3328H14.6592H4.36689L4.18564 21.5256ZM4.18564 25.5255C3.9214 25.8068 3.93973 26.2697 4.22406 26.4932C4.44172 26.6645 4.49688 26.666 10.686 26.666H16.9284L17.1329 26.4614C17.4196 26.1747 17.4128 25.7373 17.1179 25.5054C16.9002 25.3342 16.8453 25.3327 10.6326 25.3327H4.36689L4.18564 25.5255ZM18.8519 25.5255C18.5877 25.8068 18.606 26.2697 18.8903 26.4932C19.0947 26.6541 19.2178 26.666 20.6707 26.666C22.1236 26.666 22.2468 26.6541 22.4511 26.4932C22.7444 26.2626 22.7577 25.7768 22.4778 25.5138C22.2934 25.3406 22.2137 25.3327 20.6591 25.3327C19.0673 25.3327 19.0293 25.3368 18.8519 25.5255ZM4.22406 29.5053C3.9139 29.7492 3.9139 30.2492 4.22406 30.4931C4.44214 30.6647 4.48913 30.6659 11.3526 30.6659H18.2617L18.4662 30.4613C18.7529 30.1746 18.7461 29.7372 18.4512 29.5053C18.2331 29.3337 18.1859 29.3326 11.3376 29.3326C4.4893 29.3326 4.44214 29.3337 4.22406 29.5053ZM23.9401 33.6707C23.8633 33.7365 21.7322 34.3384 21.6979 34.304C21.6765 34.2827 22.1764 32.4502 22.3025 32.0875C22.3308 32.006 22.6099 32.2322 23.1728 32.793C23.6285 33.247 23.9738 33.642 23.9401 33.6707ZM4.20906 33.5371C3.92232 33.8238 3.92915 34.2611 4.22406 34.493C4.42839 34.6539 4.55155 34.6658 6.00443 34.6658C7.45731 34.6658 7.58047 34.6539 7.7848 34.493C7.95421 34.3599 8.00438 34.2469 8.00438 33.9991C8.00438 33.7514 7.95421 33.6384 7.7848 33.5052C7.58031 33.3443 7.45747 33.3325 5.98943 33.3325C4.42739 33.3325 4.4118 33.3343 4.20906 33.5371ZM9.55725 33.5052C9.26393 33.7359 9.25068 34.2217 9.5305 34.4846C9.72242 34.6649 9.74225 34.6658 13.3109 34.6658C16.8141 34.6658 16.9035 34.6617 17.1179 34.493C17.4281 34.2491 17.4281 33.7491 17.1179 33.5052C16.9036 33.3366 16.8137 33.3325 13.3376 33.3325C9.86141 33.3325 9.77158 33.3366 9.55725 33.5052Z" fill="white"/>
</svg>
