<svg width="40" height="40" viewBox="0 0 40 40" fill="none" xmlns="http://www.w3.org/2000/svg">
<path fill-rule="evenodd" clip-rule="evenodd" d="M1.84268 0.106605C-0.453413 0.843157 -0.65562 4.03749 1.52893 5.06167C2.13085 5.3439 3.10583 5.35665 3.68664 5.08998L4.07275 4.91273L5.33465 6.16634C6.71013 7.53267 6.83818 7.60502 7.21522 7.22791C7.59233 6.85087 7.51998 6.72282 6.15365 5.34734L4.90004 4.08544L5.0773 3.69933C5.34396 3.11852 5.33121 2.14354 5.04898 1.54161C4.62086 0.628512 3.77136 0.0629568 2.75727 0.0158663C2.41504 -1.30143e-05 2.06757 0.0344835 1.84268 0.106605ZM36.5739 0.106605C35.0876 0.583377 34.3088 2.29146 34.9338 3.7041L35.1024 4.08544L33.8488 5.34734C32.4825 6.72282 32.4101 6.85087 32.7872 7.22791C33.1643 7.60502 33.2923 7.53267 34.6678 6.16634L35.9297 4.91273L36.3158 5.08998C36.8966 5.35665 37.8716 5.3439 38.4735 5.06167C39.0361 4.7979 39.5164 4.31761 39.7802 3.75502C39.9533 3.38573 39.9873 3.2041 39.9873 2.64832C39.9873 1.84981 39.7673 1.29412 39.2442 0.770957C38.5852 0.111925 37.443 -0.172183 36.5739 0.106605ZM3.16505 1.28316C4.41748 1.8064 4.41748 3.49024 3.16505 4.01347C2.79763 4.16703 2.47363 4.16703 2.10621 4.01347C0.878497 3.50056 0.843923 1.86608 2.04895 1.30992C2.43327 1.13258 2.78449 1.12414 3.16505 1.28316ZM37.8962 1.28316C39.1487 1.8064 39.1487 3.49024 37.8962 4.01347C37.5288 4.16703 37.2048 4.16703 36.8374 4.01347C35.6097 3.50056 35.5751 1.86608 36.7802 1.30992C37.1645 1.13258 37.5157 1.12414 37.8962 1.28316ZM16.4389 3.1865C16.0531 3.36172 15.7323 3.72835 15.6242 4.11743C15.5797 4.2774 15.5432 4.9107 15.543 5.52467C15.5425 6.60877 15.5374 6.64319 15.3665 6.71304C15.2696 6.75254 14.8561 6.92448 14.4474 7.09501L13.7042 7.40508L12.8277 6.54956C11.6919 5.44097 11.2961 5.27663 10.5753 5.61447C10.1423 5.81746 5.73594 10.2469 5.57182 10.6442C5.28169 11.3464 5.44784 11.7247 6.53687 12.8404L7.3924 13.7169L7.08232 14.4601C6.91179 14.8688 6.73986 15.2823 6.70035 15.3792C6.6305 15.5501 6.59608 15.5552 5.51198 15.5557C4.2687 15.5561 3.9289 15.6209 3.56563 15.9265C3.0341 16.3737 3.03019 16.4038 3.03019 20.0139C3.03019 23.6241 3.0341 23.6541 3.56563 24.1013C3.9289 24.4069 4.2687 24.4717 5.51198 24.4722C6.59608 24.4727 6.6305 24.4777 6.70035 24.6487C6.73986 24.7455 6.91179 25.1591 7.08232 25.5678L7.3924 26.3109L6.53687 27.1875C5.42828 28.3232 5.26394 28.7191 5.60178 29.4398C5.80477 29.8729 10.2342 34.2792 10.6315 34.4433C11.3338 34.7335 11.712 34.5673 12.8277 33.4783L13.7042 32.6227L14.4474 32.9328C14.8561 33.1034 15.2696 33.2753 15.3665 33.3148C15.5374 33.3846 15.5425 33.4191 15.543 34.5032C15.5434 35.7464 15.6082 36.0862 15.9138 36.4495C16.361 36.981 16.3911 36.985 20.0012 36.985C23.6114 36.985 23.6414 36.981 24.0886 36.4495C24.3943 36.0862 24.459 35.7464 24.4595 34.5032C24.46 33.4191 24.465 33.3846 24.636 33.3148C24.7328 33.2753 25.1464 33.1034 25.5551 32.9328L26.2982 32.6227L27.1748 33.4783C28.2905 34.5673 28.6687 34.7335 29.371 34.4433C29.7683 34.2792 34.1977 29.8729 34.4007 29.4398C34.7385 28.7191 34.5742 28.3232 33.4656 27.1875L32.6101 26.3109L32.9201 25.5678C33.0907 25.1591 33.2626 24.7455 33.3021 24.6487C33.372 24.4777 33.4064 24.4727 34.4905 24.4722C35.7338 24.4717 36.0736 24.4069 36.4368 24.1013C36.9684 23.6541 36.9723 23.6241 36.9723 20.0139C36.9723 16.4038 36.9684 16.3737 36.4368 15.9265C36.0736 15.6209 35.7338 15.5561 34.4905 15.5557C33.4064 15.5552 33.372 15.5501 33.3021 15.3792C33.2626 15.2823 33.0907 14.8688 32.9201 14.4601L32.6101 13.7169L33.4656 12.8404C34.5546 11.7247 34.7208 11.3464 34.4306 10.6442C34.2665 10.2469 29.8602 5.81746 29.4272 5.61447C28.7064 5.27663 28.3105 5.44097 27.1748 6.54956L26.2982 7.40508L25.5551 7.09501C25.1464 6.92448 24.7328 6.75254 24.636 6.71304C24.465 6.64319 24.46 6.60877 24.4595 5.52467C24.459 4.28139 24.3943 3.94159 24.0886 3.57832C23.7164 3.13589 23.3842 3.04311 22.1659 3.04116L21.0843 3.03944L20.8477 3.27606C20.6569 3.46685 20.6212 3.55407 20.6631 3.72585C20.7778 4.19589 20.9182 4.24932 22.1153 4.27896L23.2084 4.30603V5.39811C23.2084 5.99878 23.2488 6.65062 23.2981 6.84665C23.4236 7.34485 23.7755 7.6658 24.5117 7.95335C24.849 8.08508 25.3361 8.28213 25.5942 8.39125C26.4841 8.76735 26.7776 8.65384 27.961 7.47627L28.8416 6.60001L31.1284 8.88679L33.4151 11.1736L32.5389 12.0541C31.3613 13.2376 31.2478 13.5311 31.6239 14.4209C31.733 14.6791 31.9301 15.1662 32.0618 15.5034C32.3493 16.2396 32.6703 16.5916 33.1685 16.717C33.3645 16.7664 34.0197 16.8068 34.6245 16.8068H35.7241V20.0139V23.2211H34.6245C34.0197 23.2211 33.3659 23.2611 33.1716 23.31C32.6613 23.4385 32.3503 23.7763 32.065 24.5118C31.9315 24.8559 31.733 25.3488 31.6239 25.6069C31.2478 26.4968 31.3613 26.7903 32.5389 27.9737L33.4151 28.8543L31.1284 31.141L28.8416 33.4278L27.961 32.5516C26.7776 31.374 26.4841 31.2605 25.5942 31.6366C25.3361 31.7457 24.8433 31.9442 24.4991 32.0777C23.7636 32.363 23.4258 32.674 23.2973 33.1842C23.2484 33.3786 23.2084 34.0324 23.2084 34.6372V35.7368H20.0012H16.7941V34.6372C16.7941 34.0324 16.7537 33.3772 16.7043 33.1812C16.5789 32.683 16.2269 32.362 15.4907 32.0745C15.1535 31.9428 14.6664 31.7457 14.4083 31.6366C13.5184 31.2605 13.2249 31.374 12.0414 32.5516L11.1609 33.4278L8.8741 31.141L6.58732 28.8543L7.46358 27.9737C8.64115 26.7903 8.75466 26.4968 8.37856 25.6069C8.26944 25.3488 8.07239 24.8617 7.94066 24.5244C7.65311 23.7882 7.33216 23.4363 6.83396 23.3108C6.63793 23.2614 5.98273 23.2211 5.37791 23.2211H4.27832V20.0139V16.8068H5.37791C5.98273 16.8068 6.63793 16.7664 6.83396 16.717C7.33216 16.5916 7.65311 16.2396 7.94066 15.5034C8.07239 15.1662 8.26944 14.6791 8.37856 14.4209C8.75466 13.5311 8.64115 13.2376 7.46358 12.0541L6.58732 11.1736L8.8741 8.88679L11.1609 6.60001L12.0414 7.47627C13.2249 8.65384 13.5184 8.76735 14.4083 8.39125C14.6664 8.28213 15.1535 8.08508 15.4907 7.95335C16.2269 7.6658 16.5789 7.34485 16.7043 6.84665C16.7537 6.65062 16.7941 5.99902 16.7941 5.39865V4.30712L17.7697 4.27951C18.634 4.25503 18.764 4.2332 18.9088 4.08841C19.1528 3.84436 19.1373 3.44768 18.8749 3.22193C18.6774 3.05211 18.5966 3.03959 17.7088 3.04116C16.953 3.04249 16.6893 3.07268 16.4389 3.1865ZM19.0205 10.4794C13.8292 11.0257 9.98003 15.6922 10.4623 20.8548C10.8726 25.247 14.1425 28.7573 18.5034 29.4873C18.7894 29.5352 19.481 29.5736 20.0403 29.5727C21.5759 29.5702 22.9836 29.2407 24.3173 28.5715C25.0943 28.1816 25.2854 27.7941 24.8937 27.4025C24.64 27.1487 24.4788 27.1598 23.8518 27.4744C22.4559 28.1748 21.299 28.4214 19.6886 28.3619C18.4602 28.3165 17.7594 28.1707 16.7491 27.7504C14.8095 26.9435 13.0683 25.1967 12.2541 23.2407C11.7617 22.0582 11.6812 21.6046 11.6812 20.0139C11.6812 18.4232 11.7617 17.9696 12.2541 16.7871C13.0728 14.8204 14.8077 13.0855 16.7744 12.2667C17.9569 11.7744 18.4106 11.6939 20.0012 11.6939C21.5919 11.6939 22.0455 11.7744 23.228 12.2667C25.1846 13.0813 26.9301 14.8214 27.7386 16.7635C28.2338 17.953 28.3326 18.5066 28.326 20.053C28.3209 21.2438 28.2938 21.5565 28.15 22.0796C27.8105 23.3156 27.267 24.3761 26.4742 25.35C25.9155 26.0363 25.8786 26.3865 26.3398 26.625C26.6736 26.7977 26.9581 26.6536 27.4289 26.0734C29.9446 22.9726 30.2796 18.5801 28.2607 15.1634C26.6912 12.5072 23.9788 10.7854 20.873 10.4737C19.9797 10.3841 19.9245 10.3842 19.0205 10.4794ZM5.33465 33.8615L4.07275 35.1151L3.68664 34.9379C3.10583 34.6712 2.13085 34.6839 1.52893 34.9662C0.966342 35.2299 0.486051 35.7102 0.222281 36.2728C0.0491728 36.6421 0.0151456 36.8237 0.0151456 37.3795C0.0151456 38.178 0.23511 38.7337 0.758268 39.2569C1.28143 39.78 1.83713 40 2.63563 40C3.19141 40 3.37304 39.966 3.74233 39.7929C4.30492 39.5291 4.78521 39.0488 5.04898 38.4862C5.33121 37.8843 5.34396 36.9093 5.0773 36.3285L4.90004 35.9424L6.15365 34.6805C7.51998 33.305 7.59233 33.177 7.21522 32.7999C6.83818 32.4228 6.71013 32.4952 5.33465 33.8615ZM32.7872 32.7999C32.4101 33.177 32.4825 33.305 33.8488 34.6805L35.1024 35.9424L34.9252 36.3285C34.6585 36.9093 34.6712 37.8843 34.9535 38.4862C35.2173 39.0488 35.6975 39.5291 36.2601 39.7929C36.6294 39.966 36.8111 40 37.3668 40C38.1653 40 38.721 39.78 39.2442 39.2569C39.7673 38.7337 39.9873 38.178 39.9873 37.3795C39.9873 36.8237 39.9533 36.6421 39.7802 36.2728C39.5164 35.7102 39.0361 35.2299 38.4735 34.9662C37.8716 34.6839 36.8966 34.6712 36.3158 34.9379L35.9297 35.1151L34.6678 33.8615C33.2923 32.4952 33.1643 32.4228 32.7872 32.7999ZM3.16505 36.0144C4.41748 36.5376 4.41748 38.2214 3.16505 38.7447C2.79763 38.8982 2.47363 38.8982 2.10621 38.7447C0.878497 38.2318 0.843923 36.5973 2.04895 36.0411C2.43327 35.8638 2.78449 35.8553 3.16505 36.0144ZM37.8962 36.0144C39.1487 36.5376 39.1487 38.2214 37.8962 38.7447C37.5288 38.8982 37.2048 38.8982 36.8374 38.7447C35.6097 38.2318 35.5751 36.5973 36.7802 36.0411C37.1645 35.8638 37.5157 35.8553 37.8962 36.0144Z" fill="white"/>
</svg>
