<svg width="40" height="40" viewBox="0 0 40 40" fill="none" xmlns="http://www.w3.org/2000/svg">
<path fill-rule="evenodd" clip-rule="evenodd" d="M19.5083 0.119912C17.9582 0.495726 16.6911 1.73748 16.2795 3.28394C16.1886 3.62545 16.1659 4.39318 16.1652 7.14795L16.1642 10.5858H9.97227H3.78032L3.33192 10.7669C2.68945 11.0263 2.19417 11.3906 1.76796 11.9171C1.17126 12.6543 1.0593 13.0334 1.02313 14.4393C0.996015 15.4957 1.00844 15.654 1.12884 15.7871C1.3398 16.0201 1.81304 15.9908 2.01665 15.7319C2.15862 15.5515 2.17862 15.418 2.17862 14.6523C2.17862 14.0975 2.22206 13.6323 2.29754 13.378C2.45528 12.8469 3.04963 12.1939 3.60296 11.9438L4.01472 11.7577H9.95274H15.8908L16.3331 11.9749C16.8423 12.225 17.2811 12.6752 17.5208 13.1936C17.6859 13.5506 17.688 13.6202 17.7097 19.2779L17.7317 25.0011H17.1186C15.3923 25.0011 14.3959 25.5964 13.9085 26.9191C13.7958 27.2247 13.6285 27.3824 12.453 28.2895L11.1247 29.3146L11.0857 28.4488C11.051 27.681 11.0265 27.5629 10.8688 27.4054L10.6909 27.2278L7.27469 27.1888L3.85845 27.1497L3.44287 26.9195C2.97885 26.6625 2.65671 26.3306 2.39395 25.8388C2.22065 25.5145 2.21706 25.4513 2.17862 22.0987C2.14182 18.8854 2.13096 18.679 1.99071 18.5242C1.80648 18.3208 1.40129 18.3072 1.16822 18.4966L1 18.6333L1.02289 22.1883L1.04571 25.7433L1.2969 26.2737C1.61091 26.9366 2.2673 27.6362 2.88337 27.9646C3.67969 28.389 4.10035 28.436 7.12046 28.4376L9.83554 28.4389V29.4886C9.83554 30.0659 9.86914 30.6267 9.91016 30.7346C10.0119 31.0021 10.3348 31.2024 10.5694 31.1435C10.6728 31.1176 11.4202 30.5852 12.2303 29.9606L13.7031 28.8248L13.7453 32.3627C13.7917 36.2335 13.7859 36.185 14.2804 36.9035C14.5719 37.3272 14.9736 37.6359 15.5329 37.866C15.9491 38.0372 16.0619 38.0455 18.0199 38.0472L20.0708 38.0491V38.8339C20.0708 39.5631 20.0844 39.6324 20.2626 39.8106C20.6136 40.1616 20.7882 40.0901 22.1575 39.0339L23.4131 38.0653L24.1074 38.0377C24.7024 38.014 24.8764 37.9732 25.3239 37.7528C26.4128 37.2164 26.9245 36.1895 26.8559 34.6786C26.8232 33.9566 26.6878 33.7518 26.2432 33.7518C25.7558 33.7518 25.6659 33.9294 25.6161 34.9897C25.5708 35.9524 25.5293 36.0874 25.1756 36.4237C24.8188 36.7631 24.4465 36.8769 23.6869 36.8789L23.0008 36.8808L22.1413 37.5476L21.2819 38.2145L21.2581 37.7222C21.2401 37.3501 21.1939 37.1867 21.0687 37.0535C20.9039 36.8781 20.8901 36.8771 18.5532 36.8754C16.4492 36.8738 16.1705 36.8588 15.8901 36.7314C15.4953 36.552 15.0922 36.0984 15.0316 35.7654C15.0062 35.6248 14.9956 33.6438 15.0083 31.363L15.0313 27.2163L15.241 26.8995C15.3673 26.7087 15.5869 26.5167 15.7931 26.4169C16.1288 26.2544 16.2157 26.2512 20.3052 26.2512C24.3947 26.2512 24.4816 26.2544 24.8173 26.4169C25.0232 26.5166 25.2433 26.7088 25.3694 26.8991C25.5784 27.2146 25.5793 27.2218 25.6182 29.0303C25.6536 30.6731 25.6713 30.8606 25.8061 31.0093C26.0084 31.2325 26.4781 31.2325 26.6804 31.0093C26.8138 30.862 26.8317 30.6903 26.8537 29.3506C26.8813 27.6657 26.8013 27.0224 26.4944 26.4586C26.2203 25.9548 25.6351 25.441 25.087 25.2227C24.6575 25.0518 24.5382 25.0444 21.7702 25.0173L18.8988 24.9892V23.5023C18.8988 22.1176 18.9082 22.0191 19.0356 22.0694C19.6275 22.3037 20.2715 22.3419 23.6453 22.3433L27.1027 22.3446V23.9015V25.4585L27.3086 25.6204C27.7198 25.9439 27.4936 26.0794 30.9311 23.4507L32.3766 22.3454L33.4314 22.3437C34.7058 22.3416 35.3827 22.2127 36.1479 21.8268C37.0921 21.3506 37.8025 20.5597 38.2444 19.4928L38.4709 18.9459L38.4953 11.4061C38.513 5.94425 38.495 3.74796 38.43 3.43669C38.1862 2.26932 37.2776 1.08453 36.197 0.524479C35.3825 0.102333 34.8463 0.00138621 33.4118 5.79712e-05C32.2845 -0.00103587 32.1681 0.0120121 32.025 0.15515C31.9283 0.251877 31.8687 0.415563 31.8687 0.584875C31.8687 0.754187 31.9283 0.917873 32.025 1.0146C32.1663 1.15594 32.2854 1.17086 33.2713 1.17086C34.5106 1.17086 35.004 1.25361 35.6248 1.56543C36.1978 1.85335 36.8782 2.58989 37.1165 3.18002L37.2989 3.63202L37.32 11.0329C37.3408 18.3578 37.3394 18.4388 37.178 18.9177C36.9863 19.4868 36.6914 19.9388 36.2543 20.3338C35.5485 20.9714 34.8048 21.1693 33.1061 21.1713L31.9605 21.1726L31.2162 21.7391C30.807 22.0506 29.9776 22.6843 29.3733 23.1472L28.2747 23.9889V22.7867C28.2747 21.6972 28.2598 21.5655 28.1163 21.3829L27.9578 21.1816L23.9167 21.1575L19.8755 21.1336L19.4067 20.9378L18.9379 20.7422L18.8987 17.0312C18.86 13.3699 18.8571 13.3144 18.6773 12.8685C18.467 12.3472 18.0755 11.7981 17.6344 11.4061L17.3267 11.1327L17.351 7.34328L17.3753 3.55389L17.6243 3.04525C18.0733 2.12774 18.9676 1.42862 19.9239 1.2472C20.1557 1.20329 22.1623 1.17086 24.6522 1.17086C28.8737 1.17086 28.9816 1.16711 29.1341 1.0146C29.2308 0.917873 29.2904 0.754187 29.2904 0.584875C29.2904 0.415563 29.2308 0.251877 29.1341 0.15515C28.9813 0.0023238 28.8781 -0.000957743 24.4657 0.00537094C20.9105 0.0105276 19.8592 0.0348267 19.5083 0.119912ZM28.0419 4.37911C27.549 4.58655 27.3357 4.97385 27.2508 5.81619C27.1601 6.71596 26.8359 7.31484 25.8108 8.47619C25.3556 8.99186 24.9565 9.44096 24.9238 9.47417C24.8912 9.50738 24.7318 9.47909 24.5696 9.41135C24.3254 9.30931 23.988 9.2922 22.6105 9.31189C21.1031 9.33338 20.9308 9.34963 20.782 9.48448C20.6193 9.63184 20.6177 9.67052 20.6177 13.4497C20.6177 17.1619 20.622 17.2703 20.774 17.4223C20.9214 17.5696 21.0344 17.5786 22.7543 17.5786C24.4506 17.5786 24.5877 17.5681 24.7133 17.4292C24.846 17.2827 24.8559 17.2834 25.2657 17.471C26.0885 17.8476 26.5212 17.8883 29.728 17.8898C31.7492 17.8906 32.7901 17.8626 32.9705 17.8022C33.3701 17.6683 33.7269 17.3713 33.9034 17.0254C34.0556 16.727 34.0606 16.5967 34.0393 13.4496L34.0173 10.1835L33.8291 9.90874C33.7255 9.75771 33.5172 9.54933 33.3663 9.44581C33.1 9.26314 33.0407 9.25681 31.3956 9.23384L29.6995 9.21016L29.9011 8.64785C30.1826 7.86247 30.1976 6.53766 29.9336 5.78064C29.7053 5.1259 29.4604 4.70156 29.1985 4.50741C28.9567 4.32817 28.3284 4.25848 28.0419 4.37911ZM28.9168 6.67932C29.0236 7.32359 28.9196 7.89684 28.5136 8.90412C28.3392 9.33658 28.1965 9.76162 28.1965 9.84866C28.1965 9.9357 28.2829 10.0931 28.3883 10.1986L28.5801 10.3904H30.6385C32.1353 10.3904 32.7225 10.416 32.7907 10.4842C32.8602 10.5537 32.8844 11.3283 32.8844 13.4859C32.8844 15.0852 32.8631 16.4494 32.837 16.5174C32.7948 16.6274 32.4353 16.6407 29.575 16.6391C26.4033 16.6373 26.3546 16.6349 25.9245 16.4579C25.6847 16.3593 25.3595 16.1801 25.2017 16.0598L24.915 15.8411V13.5628V11.2846L26.2794 9.73068C27.6786 8.13733 28.0547 7.57916 28.3062 6.72354C28.3748 6.49016 28.4309 6.18537 28.4309 6.04629C28.4309 5.90722 28.4553 5.72978 28.4851 5.65204C28.5623 5.451 28.8116 6.04418 28.9168 6.67932ZM23.743 13.4766V16.4066H22.7664H21.7897V13.4766V10.5467H22.7664H23.743V13.4766ZM9.09055 15.1534C8.80334 15.2685 8.73662 15.442 8.54347 16.5752C8.43846 17.1915 8.35221 17.7046 8.35182 17.7153C8.35135 17.726 7.80771 17.7348 7.14366 17.7348C6.41274 17.7348 5.85988 17.7697 5.7426 17.8231C5.34616 18.0037 5.31093 18.6233 5.68565 18.8239C5.77448 18.8715 6.32586 18.9068 6.97857 18.9068C7.83669 18.9068 8.1168 18.9309 8.11719 19.0045C8.11742 19.0582 8.07656 19.3721 8.0264 19.7019L7.93506 20.3018L6.85583 20.327C5.86699 20.3501 5.76221 20.3666 5.60533 20.5237C5.38101 20.7483 5.38101 21.1282 5.60533 21.3528C5.76003 21.5076 5.8709 21.5267 6.75121 21.5502C7.70457 21.5755 7.72497 21.5797 7.68809 21.7455C7.58534 22.2082 7.41392 23.351 7.41369 23.5752C7.41337 23.9115 7.64902 24.1416 7.99374 24.1416C8.42362 24.1416 8.53574 23.9195 8.74099 22.6617L8.92015 21.5633H9.62201H10.3239L10.2825 21.7781C10.2599 21.8963 10.1797 22.3729 10.1044 22.8371C9.96946 23.6693 9.96977 23.6842 10.1242 23.8919C10.3727 24.2259 10.9391 24.2222 11.0914 23.8855C11.1346 23.79 11.2488 23.2373 11.3452 22.6571L11.5204 21.6023L12.8337 21.5633C14.0969 21.5257 14.1526 21.5172 14.2962 21.3397C14.4867 21.1042 14.4867 20.7722 14.2961 20.5367C14.1528 20.3597 14.0986 20.3512 12.9432 20.326L11.7395 20.2997L11.8538 19.6033L11.9681 18.9068H13.0504C14.0286 18.9068 14.1478 18.8918 14.2891 18.7505C14.5217 18.5179 14.4974 18.0997 14.2394 17.8968C14.0575 17.7536 13.9261 17.7348 13.1065 17.7348C12.4841 17.7348 12.1795 17.7065 12.1795 17.6489C12.1795 17.6015 12.2533 17.126 12.3435 16.5921C12.4969 15.6839 12.4992 15.6088 12.3785 15.4245C12.1243 15.0367 11.5954 15.0223 11.3944 15.3978C11.3442 15.4917 11.2275 16.0472 11.1352 16.6321L10.9674 17.6958L10.2843 17.7183C9.47863 17.745 9.52348 17.845 9.74936 16.5254C9.83429 16.0292 9.87039 15.5997 9.83492 15.5065C9.72045 15.2053 9.37269 15.0404 9.09055 15.1534ZM10.7203 19.0631C10.7127 19.1275 10.6656 19.4351 10.6155 19.7467L10.5246 20.3132H9.82851C9.44559 20.3132 9.13243 20.3043 9.13243 20.2936C9.13251 20.2829 9.18525 19.9752 9.24955 19.61C9.31385 19.2447 9.36659 18.9357 9.36667 18.9233C9.36667 18.9109 9.67443 18.9109 10.0504 18.9233C10.6035 18.9416 10.7314 18.9682 10.7203 19.0631ZM18.6644 28.8231C17.5535 29.0551 16.8806 30.0285 16.963 31.2845C17.0079 31.9687 17.2653 32.5094 17.8325 33.1105C18.4736 33.79 19.8902 34.6894 20.3191 34.6894C20.7324 34.6894 22.1826 33.7491 22.8184 33.0688C23.0189 32.8543 23.2824 32.4895 23.404 32.2582C23.6015 31.8824 23.6251 31.7585 23.6254 31.0954C23.6258 30.4192 23.6053 30.3161 23.3954 29.9371C23.1407 29.4773 22.7114 29.0958 22.2722 28.9389C21.7964 28.769 21.0893 28.802 20.6713 29.0135L20.3079 29.1976L19.9354 29.019C19.5032 28.8118 19.0521 28.7423 18.6644 28.8231ZM19.7583 30.3922C19.9841 30.6264 20.203 30.7828 20.3052 30.7828C20.4074 30.7828 20.6263 30.6264 20.8521 30.3922C21.1575 30.0754 21.278 30.0018 21.4897 30.0027C22.0461 30.0051 22.4935 30.4718 22.4921 31.0483C22.4904 31.7814 21.9261 32.4933 20.8308 33.1446L20.3015 33.4593L19.8151 33.1633C19.0278 32.6843 18.5072 32.2026 18.303 31.7639C17.8752 30.8453 18.2434 30.0134 19.0817 30.0046C19.3413 30.0019 19.4326 30.0542 19.7583 30.3922Z" fill="white"/>
</svg>
