<svg width="40" height="40" viewBox="0 0 40 40" fill="none" xmlns="http://www.w3.org/2000/svg">
<path fill-rule="evenodd" clip-rule="evenodd" d="M0.449379 1.13507C0.211409 1.28258 -0.000467977 1.66555 7.76333e-07 1.94727C0.000391404 2.18696 0.256175 2.60141 0.483755 2.73126C0.613912 2.80548 1.21564 2.84477 2.65596 2.87298C4.52566 2.90962 4.67027 2.9229 5.00754 3.08915C5.43239 3.29845 5.89708 3.74119 6.09263 4.12299C6.16966 4.27338 7.55983 8.40255 9.18195 13.2989L12.1312 22.2014L11.9928 22.5568C11.5078 23.8024 11.4654 23.956 11.4259 24.6088C11.4017 25.0089 11.4243 25.4923 11.4807 25.7807C11.791 27.3658 13.0338 28.7027 14.6013 29.1374C15.0835 29.2711 15.6654 29.2794 24.4903 29.2791C33.6373 29.2789 33.8732 29.2751 34.116 29.1271C34.43 28.9357 34.5504 28.7121 34.5452 28.3308C34.5407 28.0052 34.4144 27.7757 34.1282 27.573C33.961 27.4547 33.1316 27.4401 24.4921 27.4044L15.0389 27.3654L14.6757 27.1975C14.2089 26.9817 13.7072 26.4784 13.4949 26.0128C13.2352 25.4435 13.2574 24.4835 13.5464 23.7911C13.6674 23.5011 13.7808 23.2638 13.7983 23.2638C14.1936 23.2638 33.486 21.1967 33.8651 21.1137C35.674 20.718 37.1637 19.2866 37.6854 17.4434C37.9108 16.6465 40 7.8495 40 7.69677C40 7.42762 39.7734 7.11325 39.4761 6.97004C39.197 6.83559 38.2955 6.81496 24.0385 6.6166C15.7108 6.50074 8.88695 6.39324 8.87437 6.37777C8.86171 6.36222 8.62944 5.68698 8.35811 4.87713C8.03686 3.91814 7.76459 3.25064 7.57717 2.96306C7.19248 2.37251 6.53529 1.76859 5.96309 1.47976C5.11121 1.04976 4.74738 0.997729 2.60565 1.00007C0.915711 1.00187 0.635943 1.01937 0.449379 1.13507ZM26.185 8.52708C32.5731 8.61873 37.8172 8.71115 37.8385 8.73255C37.8598 8.75396 37.4221 10.6523 36.8658 12.9512C35.73 17.6442 35.6621 17.8393 34.9232 18.5234C34.3763 19.0297 33.8879 19.2361 32.9567 19.3544C32.0365 19.4712 14.1744 21.3106 13.9597 21.3106C13.8055 21.3106 13.751 21.2137 13.5311 20.5489C13.3925 20.1299 12.4229 17.1957 11.3763 14.0283L9.47351 8.26935L12.0218 8.31497C13.4234 8.33997 19.7968 8.43544 26.185 8.52708ZM11.992 31.6249C10.3658 31.9513 8.99718 33.2981 8.66452 34.8994C8.54241 35.4869 8.61507 36.5557 8.8153 37.1192C9.22585 38.2744 10.2188 39.2698 11.37 39.6801C12.0107 39.9085 13.0891 39.9629 13.7283 39.799C15.6082 39.3172 16.9529 37.6011 16.9529 35.6839C16.9529 35.1582 16.6811 34.1742 16.4002 33.6833C16.0615 33.0913 15.2622 32.3253 14.6719 32.0268C13.8625 31.6176 12.8128 31.4602 11.992 31.6249ZM29.4852 31.661C28.4787 31.88 27.4592 32.6064 26.8601 33.5317C25.8237 35.1317 26.0785 37.3025 27.4652 38.6892C29.1059 40.3299 31.6842 40.3209 33.3364 38.6687C34.1516 37.8536 34.5509 36.8709 34.5447 35.695C34.531 33.0597 32.071 31.0984 29.4852 31.661ZM13.8031 33.6985C14.5832 34.0774 15.0274 34.8102 15.0314 35.7248C15.0346 36.4418 14.8033 36.9732 14.2856 37.4386C12.7639 38.8068 10.3697 37.6541 10.4825 35.6076C10.5738 33.952 12.2916 32.9643 13.8031 33.6985ZM30.9224 33.5112C32.3966 33.8774 33.0974 35.4491 32.4049 36.8357C31.9512 37.7441 30.7814 38.2348 29.7517 37.9488C29.3327 37.8325 28.7473 37.4118 28.5051 37.0532C27.7599 35.9495 28.1147 34.3685 29.2465 33.7501C29.8084 33.443 30.342 33.367 30.9224 33.5112Z" fill="white"/>
</svg>
