<svg width="40" height="40" viewBox="0 0 40 40" fill="none" xmlns="http://www.w3.org/2000/svg">
<path fill-rule="evenodd" clip-rule="evenodd" d="M19.0997 4.04091C18.3842 4.18959 17.0199 4.74733 9.74495 7.86517C5.19024 9.81711 1.35431 11.4707 1.22075 11.5398C0.861786 11.7254 0.455692 12.1621 0.212209 12.6243C0.0225889 12.9841 -0.00262066 13.1166 0.000197803 13.7374C0.00293797 14.3434 0.0324535 14.498 0.211034 14.8419C0.560054 15.514 1.0561 15.8849 2.30218 16.4058L3.40239 16.8658V21.4669C3.40239 25.1955 3.38306 26.0681 3.30038 26.0681C3.24425 26.0681 3.05306 26.175 2.8755 26.3056C2.17354 26.8218 1.93351 27.9086 2.34892 28.6898L2.54801 29.0643L2.35142 29.3614C2.063 29.7973 2.01743 30.0739 1.75477 32.9864L1.51559 35.6379L1.69566 35.9965C2.02565 36.6538 2.08719 36.6731 3.93806 36.7003C5.52462 36.7236 5.56447 36.7203 5.82925 36.5418C6.21044 36.285 6.45573 35.8902 6.45573 35.5338C6.45573 35.3701 6.34784 34.063 6.21592 32.6291C5.97228 29.9803 5.89352 29.5734 5.55116 29.1951C5.44828 29.0814 5.45893 29.0253 5.64785 28.6874C5.81711 28.3846 5.86095 28.2023 5.86432 27.7886C5.86792 27.3443 5.83449 27.214 5.63227 26.8841C5.48798 26.6489 5.23635 26.3934 4.98637 26.2284L4.57675 25.9581V21.7071C4.57675 18.3571 4.5975 17.4567 4.67462 17.4588C4.72848 17.4603 5.45948 17.7571 6.29915 18.1183L7.82581 18.7752L7.87052 21.5017C7.91702 24.34 7.92141 24.3784 8.29477 25.2461C8.81728 26.4601 10.4508 27.9145 12.2268 28.7467C13.698 29.4361 15.9234 30.022 17.7966 30.2131C18.2425 30.2586 19.2341 30.2958 20 30.2958C20.7659 30.2958 21.7575 30.2586 22.2034 30.2131C24.0766 30.022 26.302 29.4361 27.7732 28.7467C29.5492 27.9145 31.1827 26.4601 31.7052 25.2461C32.0786 24.3784 32.083 24.34 32.1295 21.5021L32.1742 18.7759L35.4937 17.3527C39.1406 15.7891 39.3653 15.6578 39.7882 14.8434C39.9677 14.4978 39.9971 14.344 39.9998 13.7374C40.0026 13.1166 39.9774 12.9841 39.7878 12.6243C39.5324 12.1395 39.1313 11.7198 38.7289 11.5163C38.5686 11.4351 34.6841 9.76121 30.0967 7.79635C24.5362 5.41468 21.5741 4.18536 21.2107 4.1084C20.7106 4.00247 19.4747 3.96293 19.0997 4.04091ZM21.1352 5.33537C21.4214 5.4074 37.3227 12.1834 38.046 12.5415C38.5645 12.7983 38.8015 13.1764 38.8023 13.7482C38.8028 14.1116 38.6593 14.4369 38.3862 14.6912C38.1723 14.8903 21.7346 21.9544 21.0992 22.1203C20.5506 22.2635 19.4494 22.2635 18.9008 22.1203C18.2769 21.9574 5.8471 16.6127 5.98598 16.567C6.05057 16.5458 8.59384 16.0981 11.6377 15.5721L17.172 14.6157L17.422 14.8261C18.1012 15.3977 18.9092 15.6075 20.2349 15.5566C21.3346 15.5144 21.8734 15.3598 22.4482 14.9214C22.9361 14.5492 23.1316 14.2174 23.1316 13.761C23.1316 13.2935 23.0031 13.0295 22.5962 12.662C21.64 11.7982 19.5338 11.5922 18.0647 12.2188C17.6642 12.3896 17.0758 12.9169 16.9519 13.2159L16.8614 13.4342L10.3161 14.5725L3.77075 15.7107L2.78405 15.2859C1.48639 14.7271 1.19663 14.4463 1.19765 13.7482C1.19851 13.1764 1.4355 12.7983 1.95402 12.5415C2.73442 12.1551 18.5906 5.41209 18.9039 5.33341C19.5823 5.16305 20.4535 5.16383 21.1352 5.33537ZM21.2526 13.2622C21.4464 13.3323 21.6921 13.4563 21.7986 13.5379C21.9885 13.6833 21.9894 13.6894 21.8467 13.8472C21.2541 14.5019 19.0384 14.5483 18.2429 13.9226C18.1328 13.836 18.0427 13.7353 18.0427 13.6989C18.0427 13.5853 18.5453 13.3157 18.9886 13.1914C19.5202 13.0423 20.751 13.0808 21.2526 13.2622ZM13.6829 21.2841C16.0001 22.2782 18.1491 23.1707 18.4586 23.2674C19.2583 23.5172 20.7373 23.519 21.5267 23.271C21.8281 23.1764 24.0476 22.2551 26.459 21.2239L30.8432 19.3489L30.8664 20.3011C30.899 21.6416 30.7443 22.1395 30.0056 23.0716C29.5661 23.6262 28.6885 24.3172 27.8154 24.7965C27.356 25.0485 27.2008 25.1782 27.1361 25.3637C26.9907 25.7808 27.2424 26.1464 27.675 26.1464C28.1108 26.1464 29.762 25.0837 30.4633 24.3518C30.8824 23.9144 30.9136 24.0547 30.5614 24.7927C30.2475 25.4505 29.4071 26.3374 28.5695 26.8946C27.0227 27.9238 24.9437 28.6281 22.427 28.9756C21.4587 29.1093 18.5413 29.1093 17.573 28.9756C14.2824 28.5213 11.7388 27.4568 10.2699 25.9194C9.73916 25.3639 9.1959 24.491 9.1959 24.1938C9.1959 24.1442 9.44948 24.3218 9.75943 24.5885C12.1453 26.642 15.7356 27.7448 20 27.7341C22.6545 27.7274 23.1316 27.6113 23.1316 26.9719C23.1316 26.5305 22.911 26.4137 22.1639 26.4596C20.7153 26.5486 18.0148 26.4896 17.1032 26.349C13.2697 25.7577 10.3623 24.1745 9.3993 22.1536C9.16771 21.6677 9.15558 21.5925 9.12998 20.4891L9.1032 19.3336L9.28656 19.4051C9.3874 19.4445 11.3657 20.29 13.6829 21.2841ZM24.8342 25.9429C24.0872 26.164 23.9145 26.3066 23.9145 26.7021C23.9145 27.2691 24.3202 27.3659 25.3914 27.0544C26.1554 26.8323 26.3415 26.6904 26.3415 26.33C26.3415 25.7431 25.8961 25.6288 24.8342 25.9429ZM4.46284 27.3564C4.87465 27.7681 4.5809 28.4482 3.9913 28.4482C3.3573 28.4482 3.11671 27.659 3.63045 27.2646C3.8445 27.1002 4.25169 27.1452 4.46284 27.3564ZM4.47568 29.873C4.57072 29.933 4.68566 30.1143 4.73106 30.2759C4.82345 30.6054 5.27009 35.4481 5.21333 35.505C5.19337 35.5249 4.6368 35.5413 3.9765 35.5413C2.78335 35.5413 2.77607 35.5402 2.77764 35.3651C2.7785 35.2682 2.8816 34.0683 3.00679 32.6986C3.23235 30.2317 3.26562 30.0608 3.55898 29.8652C3.864 29.6618 4.14428 29.6642 4.47568 29.873Z" fill="white"/>
</svg>
