<svg width="42" height="42" viewBox="0 0 42 42" fill="none" xmlns="http://www.w3.org/2000/svg">
<path d="M2.85742 19.4756H41.0001V39.2065C41.0001 39.6822 40.8174 40.1384 40.4923 40.4748C40.1671 40.8112 39.7261 41.0002 39.2663 41.0002H4.59118C4.13136 41.0002 3.69037 40.8112 3.36523 40.4748C3.04009 40.1384 2.85742 39.6822 2.85742 39.2065V19.4756Z" stroke="white" stroke-width="1.5" stroke-linecap="round" stroke-linejoin="round"/>
<path d="M2.85734 19.4754L39.6997 9.25116L37.9009 2.32292C37.8432 2.09491 37.7422 1.88109 37.6036 1.694C37.465 1.50692 37.2918 1.35032 37.094 1.23338C36.8962 1.11644 36.6778 1.04153 36.4517 1.01301C36.2256 0.984496 35.9962 1.00296 35.777 1.06732L2.29387 10.3498C2.07306 10.4097 1.86585 10.5142 1.68416 10.6572C1.50246 10.8001 1.34984 10.9788 1.23507 11.183C1.12029 11.3872 1.04562 11.6128 1.01533 11.8469C0.98504 12.0809 0.999734 12.3189 1.05857 12.5471L2.85734 19.4754Z" stroke="white" stroke-width="1.5" stroke-linecap="round" stroke-linejoin="round"/>
<path d="M22.3838 4.7666L33.0031 11.1119" stroke="white" stroke-width="1.5" stroke-linecap="round" stroke-linejoin="round"/>
<path d="M7.32227 8.95996L17.9199 15.3052" stroke="white" stroke-width="1.5" stroke-linecap="round" stroke-linejoin="round"/>
</svg>
