<svg width="40" height="40" viewBox="0 0 40 40" fill="none" xmlns="http://www.w3.org/2000/svg">
<path fill-rule="evenodd" clip-rule="evenodd" d="M14.7376 0.127144C14.4919 0.186669 14.0805 0.34165 13.8233 0.471479C13.2877 0.741838 12.4328 1.50651 12.216 1.90928L12.0687 2.18261L8.27559 2.21534C5.6377 2.23807 4.3634 2.27736 4.09179 2.34423C3.87697 2.39711 3.36726 2.60037 2.95911 2.79581C1.55076 3.47027 0.440654 4.85588 0.11163 6.34985C-0.00140338 6.86307 -0.0116366 8.34165 0.0079705 21.3705L0.0297648 35.8219L0.278876 36.4682C0.800768 37.8224 1.67668 38.8014 2.92005 39.4203C4.02976 39.9726 4.25083 39.9982 7.93032 39.9998C10.955 40.001 11.1545 39.9925 11.3245 39.855C11.5753 39.6519 11.5753 39.1786 11.3245 38.9755C11.1549 38.8383 10.9573 38.8294 8.0814 38.8294C6.20365 38.8294 4.83951 38.7964 4.55533 38.7441C4.30036 38.6972 3.83377 38.5399 3.5185 38.3944C2.79616 38.0614 1.91759 37.2143 1.60599 36.5506C1.14049 35.5591 1.16244 36.1367 1.16244 24.8731C1.16244 17.6812 1.18846 14.4173 1.24814 14.1291C1.55669 12.6386 2.7714 11.3713 4.25927 10.9877C4.97973 10.8019 14.9212 10.8019 15.6417 10.9877C16.306 11.159 16.9795 11.5343 17.4521 11.9966C17.8072 12.3441 18.1601 12.8516 19.9501 15.5899C20.5835 16.559 21.3542 17.3073 22.1365 17.7128C23.3465 18.3399 22.988 18.3087 29.5575 18.3604C35.3876 18.4062 35.4185 18.4073 35.8849 18.5823C37.0688 19.0264 37.9869 19.9452 38.4429 21.1425L38.619 21.6049L38.6406 28.3909C38.6642 35.8063 38.6758 35.5859 38.2097 36.5461C37.8972 37.1895 37.1314 37.9691 36.4707 38.3162C35.4543 38.8503 36.0362 38.8265 23.9675 38.8281C13.105 38.8294 13.0649 38.8299 12.8946 38.9887C12.6648 39.2028 12.6648 39.6277 12.8946 39.8418C13.0649 40.0006 13.1024 40.0011 24.0847 39.9998C36.4379 39.9982 35.664 40.0335 36.9147 39.4162C38.1294 38.8167 39.0233 37.8109 39.5464 36.4553L39.7907 35.8219L39.8125 21.3705C39.8369 5.18046 39.877 6.36711 39.263 5.1403C38.6814 3.97833 37.3658 2.85175 36.1822 2.50202C35.9083 2.42117 35.8088 2.33134 35.5768 1.9556C35.0383 1.08305 34.036 0.36407 33.0264 0.126129C32.3103 -0.0426795 15.4341 -0.0417421 14.7376 0.127144ZM32.7634 1.2988C33.6836 1.53846 34.374 2.11152 34.7817 2.97423C35.0119 3.46152 35.0232 3.53448 35.0627 4.78253C35.0985 5.91662 35.1228 6.1041 35.2526 6.24721C35.4468 6.46148 35.8698 6.46546 36.0802 6.2551C36.2221 6.11324 36.2364 5.99473 36.2364 4.96618C36.2364 4.34321 36.2661 3.8335 36.3025 3.8335C36.3388 3.8335 36.5763 3.96786 36.8304 4.13206C37.3871 4.49186 37.8459 4.99704 38.17 5.6072C38.6669 6.54217 38.658 6.40773 38.658 13.0542V19.0887L38.2396 18.6931C37.7712 18.25 37.1629 17.8418 36.6075 17.5976L36.2364 17.4344V12.665C36.2364 7.99966 36.233 7.89209 36.0802 7.7393C35.8476 7.50667 35.4295 7.53096 35.2266 7.7889C35.067 7.99184 35.0647 8.05934 35.0647 12.593V17.1913H32.7603H30.4559L30.4545 13.3441C30.453 9.09484 30.4295 8.82706 29.9746 7.89553C29.4489 6.8187 28.1678 5.85053 26.9849 5.63611C26.6769 5.58025 24.2061 5.55205 19.6225 5.55205H12.7236V4.66067C12.7236 3.05664 13.2152 2.11754 14.364 1.52714C15.021 1.18952 14.9564 1.19186 23.8192 1.18452C31.2452 1.17843 32.3557 1.19264 32.7634 1.2988ZM11.5518 4.49749V5.55205L10.5559 5.55338C10.0044 5.55416 9.32906 5.60369 9.04261 5.66438C7.40569 6.01137 6.03304 7.45214 5.76675 9.10296L5.67176 9.69219H5.0755C3.89126 9.69219 2.65336 10.2013 1.70707 11.0773L1.16244 11.5816L1.16362 9.32848C1.16487 6.81698 1.21681 6.42086 1.65262 5.59963C1.97899 4.98462 2.71609 4.24619 3.31938 3.9299C4.20974 3.46308 4.30301 3.45371 8.09522 3.44808L11.5518 3.44293V4.49749ZM27.2728 6.94431C28.141 7.29482 28.7983 7.98239 29.1047 8.86034C29.2327 9.22685 29.2451 9.61243 29.2451 13.2074V17.1523H26.6282C24.6298 17.1523 23.919 17.1266 23.6207 17.0434C23 16.8704 22.2119 16.425 21.788 16.0077C21.5707 15.7938 20.796 14.7135 20.0439 13.5754C18.5472 11.3106 18.0988 10.8093 17.1003 10.2846C15.9952 9.70391 15.8775 9.69219 11.1618 9.69219C8.85576 9.69219 6.95059 9.67375 6.92802 9.6511C6.8481 9.57119 7.03636 8.79769 7.22759 8.42039C7.62332 7.63931 8.37995 7.04406 9.24743 6.8312C9.54568 6.758 11.6685 6.73863 18.2307 6.7491L26.8235 6.76285L27.2728 6.94431ZM26.7216 9.83311C26.6441 9.9106 26.1128 10.8613 25.5408 11.9457C24.9689 13.0302 24.4668 13.9061 24.4252 13.8922C24.3835 13.8783 24.0092 13.446 23.5934 12.9317C22.9308 12.1121 22.8051 11.9935 22.5761 11.9715C22.3888 11.9535 22.2618 11.9961 22.128 12.1218C21.767 12.4609 21.847 12.6407 23.0061 14.0964C23.5918 14.8319 24.1258 15.4777 24.1928 15.5313C24.3903 15.6898 24.7854 15.6498 24.9645 15.4532C25.1685 15.2294 27.6389 10.5785 27.6933 10.3159C27.756 10.0136 27.4658 9.69219 27.1303 9.69219C26.9764 9.69219 26.8026 9.75211 26.7216 9.83311ZM4.72507 20.9604C4.44253 21.2143 4.42378 21.5463 4.67766 21.8001C4.83076 21.9532 4.93801 21.9564 10.0337 21.9564C13.5496 21.9564 15.2837 21.9295 15.3884 21.8735C15.7211 21.6955 15.7253 21.1414 15.396 20.8911C15.2895 20.8103 14.21 20.7891 10.0915 20.7871L4.92075 20.7846L4.72507 20.9604ZM4.73515 23.0695C4.43175 23.2999 4.43347 23.8048 4.73835 24.0364C4.84615 24.1183 5.90782 24.1386 10.0676 24.1386C15.67 24.1386 15.446 24.1555 15.6105 23.7227C15.7028 23.4803 15.5565 23.1046 15.3369 23.0204C15.2674 22.9938 12.8825 22.9719 10.0371 22.9719C6.01906 22.9719 4.83506 22.9937 4.73515 23.0695Z" fill="white"/>
</svg>
