<svg width="40" height="41" viewBox="0 0 40 41" fill="none" xmlns="http://www.w3.org/2000/svg">
<path fill-rule="evenodd" clip-rule="evenodd" d="M18.4674 0.0518966C16.8233 0.186814 14.5544 0.649084 14.077 0.946331C13.8508 1.0872 13.802 1.42579 13.9641 1.7288C14.0926 1.9689 14.3906 1.95914 15.5578 1.6763C17.3006 1.25408 18.4622 1.14072 20.5116 1.19266C21.6381 1.22128 22.6925 1.29998 23.1888 1.39243C25.9947 1.91556 28.3963 2.89465 30.6704 4.44258L31.6303 5.09589L31.3064 5.20721C30.0635 5.63454 29.0557 6.78571 28.6877 8.19844C28.3021 9.67882 28.6444 10.5769 30.6435 13.3293C32.1664 15.4263 32.4985 16.4513 32.4976 19.052C32.4969 20.7753 32.4198 21.2799 31.8376 23.3727C31.3304 25.1956 30.1069 29.2662 30.0451 29.3361C30.0144 29.3709 28.6127 25.3777 26.9302 20.4624C25.2477 15.5472 23.8529 11.4734 23.8307 11.4094C23.8004 11.3223 23.9941 11.2933 24.6072 11.2933C25.2478 11.2933 25.5113 11.2511 25.8282 11.0977C26.8363 10.6097 26.8307 9.13664 25.819 8.65653C25.5365 8.52245 24.8679 8.50572 19.8007 8.50591C14.5591 8.506 14.0742 8.5191 13.7769 8.66852C12.7814 9.1686 12.7795 10.593 13.7735 11.1212C14.024 11.2543 14.2997 11.2933 14.9914 11.2933H15.8854L17.1487 14.3503L18.412 17.4073L16.623 22.7736L14.8339 28.1398L11.9791 19.7862C10.409 15.1918 9.12538 11.4052 9.12668 11.3717C9.12798 11.3382 9.54425 11.2963 10.0518 11.2788C10.8065 11.2527 11.021 11.212 11.2307 11.0552C11.6904 10.7116 11.8702 10.3868 11.8702 9.8995C11.8702 9.41214 11.6904 9.08721 11.2306 8.74378C10.9861 8.5611 10.8366 8.55098 8.00404 8.52524L5.03399 8.49829L5.61389 7.79722C6.71284 6.46867 8.27378 5.12442 10.145 3.89529C10.9866 3.34242 11.0849 3.2062 10.8917 2.86008C10.6326 2.39633 10.2816 2.46007 9.1973 3.16746C4.14708 6.46254 0.884333 11.6473 0.107534 17.6117C-0.0547949 18.8576 -0.029614 21.4245 0.157896 22.7641C0.776641 27.1832 2.6706 30.9632 5.86774 34.1605C7.67817 35.9709 9.2301 37.0748 11.4529 38.1333C14.1543 39.4197 16.8522 40.02 19.9541 40.0247C22.7878 40.0291 25.3388 39.5327 27.6908 38.5194C28.2014 38.2993 28.3477 38.0723 28.226 37.6888C28.1189 37.3515 27.8501 37.2808 27.3303 37.4535C27.0741 37.5386 26.8488 37.5924 26.8295 37.5732C26.8102 37.5539 25.4725 33.9445 23.8567 29.5524C22.2408 25.1603 20.8744 21.5131 20.82 21.4476C20.6508 21.2438 20.115 21.3004 19.9695 21.5376C19.899 21.6526 18.5321 25.3844 16.9318 29.8305C15.3316 34.2767 14.0158 37.9246 14.0077 37.937C13.9715 37.9929 12.2709 37.2787 12.1103 37.1403C11.9976 37.0432 10.2265 32.3768 7.36624 24.6416L2.80189 12.2979L2.95159 11.9117C3.03382 11.6993 3.34361 11.1074 3.63983 10.5964L4.17848 9.66721H7.42032H10.6623V9.8995V10.1318L9.36567 10.1578C7.96668 10.1858 7.73531 10.2623 7.73531 10.6967C7.73531 10.9471 14.2957 30.1388 14.4412 30.3141C14.611 30.5187 15.1466 30.4631 15.2954 30.2254C15.3673 30.1104 16.3737 27.1674 17.5317 23.6854L19.6373 17.3544L18.2354 13.9764C17.4645 12.1185 16.7716 10.5039 16.6959 10.3883C16.5658 10.1897 16.4982 10.1783 15.4568 10.1783C14.591 10.1783 14.3305 10.1484 14.2396 10.0389C14.1473 9.92766 14.1473 9.87135 14.2396 9.76013C14.3401 9.63914 15.0752 9.62075 19.8147 9.62075C24.5542 9.62075 25.2894 9.63914 25.3899 9.76013C25.4821 9.87135 25.4821 9.92766 25.3899 10.0389C25.2973 10.1504 25.0191 10.1783 23.9991 10.1783C22.8818 10.1783 22.705 10.1993 22.5702 10.3482C22.4857 10.4417 22.4165 10.5852 22.4165 10.6672C22.4165 10.925 29.4979 31.4947 29.6454 31.6657C29.8259 31.8748 30.2443 31.8748 30.4308 31.6657C30.6388 31.4326 32.5281 25.2813 33.1493 22.8152C33.5871 21.0765 33.6919 20.1431 33.6344 18.495C33.5539 16.1864 33.0659 14.7061 31.8426 13.0587C30.9411 11.8448 30.2542 10.8151 29.9638 10.2421C29.1056 8.54949 30.5054 6.18276 32.3647 6.18276H32.8916L33.579 6.90288C34.9023 8.28941 35.948 9.74897 36.8212 11.4281C37.1422 12.0455 37.2834 12.4266 37.2834 12.6757C37.2834 13.7332 36.9207 14.9286 33.4075 25.4477L29.813 36.2105L29.4712 36.3849C28.9856 36.6327 28.8603 37.0499 29.1836 37.3425C29.4652 37.5973 29.7825 37.5209 30.6169 36.997C31.9708 36.147 32.8233 35.4603 34.0868 34.2019C37.9587 30.3459 39.9984 25.4723 40 20.0741C40.0016 14.5504 38.0345 9.7959 34.1334 5.8948C32.0156 3.777 29.907 2.39047 27.161 1.31001C24.6873 0.336692 21.1808 -0.170736 18.4674 0.0518966ZM12.1704 1.59927C11.8015 1.76764 11.6178 1.9098 11.5813 2.05531C11.5034 2.36566 11.6101 2.60939 11.8773 2.73111C12.0764 2.8218 12.2098 2.79838 12.7335 2.58058C13.46 2.27851 13.6388 2.00049 13.3702 1.59044C13.1671 1.28056 12.8637 1.28279 12.1704 1.59927ZM6.33893 25.1235C8.59658 31.2225 10.425 36.2313 10.4022 36.2543C10.3792 36.2771 9.98934 36.0471 9.53571 35.7429C4.93289 32.6565 1.91945 27.7612 1.23594 22.2601C1.09256 21.1061 1.11607 18.7051 1.28249 17.512C1.36194 16.9427 1.5539 15.99 1.70917 15.395C1.86435 14.7999 2.01394 14.2161 2.04145 14.0976C2.06895 13.979 2.1235 13.9163 2.16271 13.9582C2.20192 14.0001 4.0812 19.0245 6.33893 25.1235ZM38.7239 17.5933C38.9002 18.9236 38.9001 21.2764 38.7236 22.5182C38.148 26.5671 36.4074 30.1769 33.6168 33.1095C32.7292 34.0422 31.394 35.1817 31.4432 34.9645C31.4612 34.8849 32.9568 30.373 34.7666 24.9381C36.5765 19.5032 38.0775 14.9938 38.1021 14.9171C38.1705 14.7044 38.5672 16.4117 38.7239 17.5933ZM23.1506 30.8908C24.5872 34.7958 25.7433 38.0102 25.7197 38.0337C25.6101 38.1433 23.8283 38.5476 22.7417 38.7094C21.3879 38.9109 19.1517 38.9505 17.861 38.7957C16.6798 38.654 15.1689 38.3223 15.1678 38.2044C15.1652 37.9431 20.414 23.5635 20.4728 23.6707C20.509 23.7368 21.7141 26.9858 23.1506 30.8908Z" fill="white"/>
</svg>
