<svg width="30" height="31" viewBox="0 0 30 31" fill="none" xmlns="http://www.w3.org/2000/svg">
<path fill-rule="evenodd" clip-rule="evenodd" d="M14.5277 3.06847C14.2403 3.17541 14.0426 3.30546 13.2153 3.93211C12.8919 4.17701 12.5182 4.41782 12.3848 4.46716C12.1839 4.54146 11.9326 4.56213 10.9209 4.58744C9.54511 4.62183 9.46064 4.64054 9.10484 4.98882C8.85299 5.23539 8.69217 5.58723 8.42567 6.47462C8.07627 7.63812 7.94846 7.81331 6.96279 8.48027C5.85507 9.22978 5.64212 9.50556 5.64813 10.183C5.65116 10.5301 5.68609 10.6748 5.9604 11.4776C6.38646 12.7244 6.38651 12.831 5.96157 14.0669C5.67817 14.8912 5.65057 15.0072 5.64774 15.3859C5.64505 15.7516 5.66024 15.8274 5.7751 16.021C5.96065 16.3337 6.2441 16.5892 6.91486 17.0482C7.90239 17.724 8.0683 17.9292 8.33627 18.8057C8.4307 19.1147 8.57487 19.5667 8.6566 19.8101L8.80526 20.2527L7.79897 22.8293C7.24555 24.2464 6.79273 25.4724 6.79273 25.5537C6.79273 25.652 6.8406 25.7495 6.93553 25.8444C7.11873 26.0276 7.18111 26.0275 8.7293 25.8408C9.39728 25.7602 9.99183 25.6942 10.0505 25.6942C10.1292 25.6941 10.4004 25.9795 11.0865 26.7845C11.5977 27.3843 12.0729 27.9009 12.1424 27.9326C12.212 27.9643 12.3217 27.9902 12.3861 27.9902C12.6691 27.9902 12.7214 27.8846 13.7802 25.1764L14.7907 22.5919H15.0005H15.2102L16.2028 25.1307C16.7487 26.5271 17.2368 27.725 17.2875 27.7928C17.4106 27.9578 17.6409 28.0212 17.831 27.9425C17.9244 27.9038 18.3185 27.4821 18.91 26.7878C19.7005 25.8599 19.8617 25.6942 19.9736 25.6948C20.0461 25.6952 20.644 25.761 21.3023 25.8412C22.7635 26.019 22.87 26.0212 23.0356 25.8773C23.3026 25.6453 23.3032 25.6474 22.2049 22.8415L21.1935 20.2576L21.3432 19.8125C21.4257 19.5678 21.5626 19.1367 21.6476 18.8545C21.7325 18.5724 21.8456 18.256 21.8987 18.1514C22.059 17.836 22.4092 17.5065 23.0318 17.085C23.7212 16.6184 24.0445 16.3306 24.2255 16.0227C24.34 15.828 24.3553 15.751 24.3526 15.3859C24.3498 15.0072 24.3222 14.8912 24.0388 14.0669C23.6123 12.8264 23.6123 12.7201 24.0387 11.4776C24.3146 10.6734 24.3492 10.5307 24.3522 10.183C24.3581 9.52276 24.119 9.21029 23.0611 8.49556C22.0544 7.81541 21.8975 7.60216 21.5711 6.47007C21.3249 5.61576 21.1288 5.20119 20.8509 4.94666C20.5029 4.62808 20.2923 4.58558 19.073 4.58773C17.6842 4.59022 17.6408 4.57664 16.6481 3.82859C16.2388 3.52022 15.7838 3.21054 15.6368 3.14038C15.2791 2.96969 14.8654 2.94287 14.5277 3.06847ZM15.3079 4.08492C15.3831 4.12318 15.7129 4.36188 16.0407 4.61538C16.3685 4.86884 16.7907 5.15434 16.9788 5.2498C17.5125 5.52064 17.7718 5.56246 18.9329 5.5652C19.4972 5.56652 20.009 5.58103 20.0703 5.59744C20.2402 5.64297 20.3927 5.96053 20.6183 6.73877C21.0065 8.078 21.3032 8.4894 22.447 9.27502C23.149 9.75716 23.4031 9.99572 23.403 10.1725C23.403 10.232 23.2721 10.6608 23.1121 11.1254C22.6384 12.5013 22.6185 12.9914 22.9929 14.0747C23.3112 14.9957 23.4031 15.2909 23.4031 15.3925C23.4031 15.58 23.2103 15.7648 22.5365 16.2231C21.332 17.0426 21.0436 17.4263 20.647 18.7378C20.3651 19.6696 20.3055 19.8103 20.1489 19.9129C20.0385 19.9852 19.8962 19.9946 19.0585 19.9847C17.5316 19.9667 17.1669 20.0847 16.0066 20.9732C15.6331 21.2591 15.2448 21.5179 15.1437 21.5482C14.9043 21.6199 14.6955 21.5204 14.0964 21.0491C13.4193 20.5163 13.0529 20.2898 12.6289 20.1418C12.2514 20.0099 12.2067 20.0056 11.1071 19.9954C10.3957 19.9888 9.93692 19.9649 9.87375 19.931C9.72606 19.852 9.61683 19.6023 9.35995 18.7568C9.23342 18.3404 9.04924 17.8457 8.95065 17.6576C8.70995 17.1983 8.27266 16.77 7.52749 16.2637C6.80098 15.77 6.59711 15.5798 6.59785 15.3965C6.59809 15.3235 6.68813 15.011 6.7979 14.702C7.40838 12.9832 7.41669 12.6601 6.89019 11.1309C6.72917 10.6633 6.59736 10.232 6.59736 10.1725C6.59726 9.99572 6.8514 9.75716 7.55338 9.27502C8.6972 8.4894 8.99384 8.078 9.38208 6.73877C9.60764 5.96053 9.76016 5.64297 9.93008 5.59744C9.99139 5.58103 10.5032 5.56652 11.0674 5.5652C12.2295 5.56246 12.4874 5.52074 13.0245 5.24858C13.2141 5.15248 13.6424 4.86248 13.9763 4.60419C14.8218 3.94994 14.9468 3.90119 15.3079 4.08492ZM14.3651 6.37847C11.403 6.75465 9.19057 8.81648 8.66877 11.687C8.57091 12.2253 8.57306 13.3347 8.67302 13.8959C8.90634 15.2055 9.49645 16.3298 10.4564 17.2936C11.3912 18.2321 12.4444 18.8079 13.73 19.0832C14.3143 19.2083 15.6877 19.2082 16.2687 19.083C19.4727 18.3926 21.6582 15.4946 21.3963 12.2837C21.3283 11.4498 21.1814 10.8728 20.8491 10.1344C19.9985 8.24459 18.2537 6.8652 16.2135 6.46978C15.8104 6.39166 14.6951 6.33655 14.3651 6.37847ZM16.075 7.45536C18.0938 7.86236 19.7166 9.3973 20.2653 11.4187C20.3829 11.8522 20.3939 11.9705 20.3926 12.7967C20.3911 13.7866 20.3452 14.0467 20.0327 14.8338C19.351 16.5507 17.7212 17.8451 15.8612 18.1468C13.3869 18.548 10.8838 17.1409 9.96769 14.8338C9.65635 14.0495 9.60945 13.7858 9.60569 12.7967C9.60246 11.9538 9.6113 11.8603 9.73676 11.4107C10.5248 8.58657 13.2501 6.88587 16.075 7.45536ZM14.7659 9.14439C14.6883 9.18176 14.5021 9.50024 14.16 10.181L13.6662 11.1636L12.7088 11.2996C12.1822 11.3745 11.6817 11.4572 11.5966 11.4836C11.4347 11.5336 11.3035 11.6875 11.2862 11.8476C11.2548 12.1381 11.2868 12.1829 12.0669 12.9419L12.8466 13.7005L12.6675 14.7529C12.5105 15.6756 12.4962 15.8243 12.5519 15.9586C12.6279 16.1423 12.899 16.2882 13.0798 16.2429C13.1475 16.2259 13.5948 16.0041 14.0737 15.7501C14.5525 15.496 14.9695 15.2882 15.0002 15.2882C15.0309 15.2882 15.4557 15.5013 15.9441 15.7616C16.9741 16.3107 17.1156 16.3428 17.3502 16.0802C17.5297 15.8792 17.5288 15.8362 17.3204 14.6531L17.1526 13.7005L17.9078 12.9676C18.3232 12.5646 18.6841 12.1763 18.7097 12.1046C18.7737 11.9261 18.6889 11.6426 18.5431 11.547C18.4739 11.5016 18.0051 11.4079 17.3852 11.3154L16.3437 11.1601L15.8575 10.1961C15.4414 9.37117 15.3488 9.22138 15.215 9.15792C15.0342 9.07213 14.9229 9.06876 14.7659 9.14439ZM15.3297 11.3536C15.5545 11.805 15.668 11.9804 15.7685 12.0318C15.843 12.07 16.1843 12.1401 16.5269 12.1877C16.8694 12.2353 17.1498 12.2907 17.1498 12.3109C17.1498 12.331 16.941 12.5391 16.6858 12.7733C16.0883 13.3218 16.082 13.3421 16.2383 14.2033C16.3032 14.5605 16.3424 14.846 16.3255 14.8379C16.3086 14.8297 16.0258 14.6859 15.6971 14.5182C15.3684 14.3506 15.0517 14.2134 14.9934 14.2134C14.9351 14.2134 14.6136 14.3563 14.279 14.531C13.9444 14.7056 13.6649 14.8485 13.6578 14.8485C13.6507 14.8485 13.6972 14.5572 13.7611 14.2012C13.8255 13.8419 13.8635 13.4897 13.8464 13.4096C13.8256 13.3123 13.6587 13.1151 13.3331 12.8034C13.0677 12.5492 12.8506 12.3262 12.8506 12.3077C12.8506 12.2893 13.1309 12.2353 13.4735 12.1877C13.8161 12.1401 14.1574 12.07 14.2319 12.0318C14.3324 11.9804 14.4458 11.805 14.6707 11.3536C14.8375 11.0188 14.9858 10.7448 15.0002 10.7448C15.0146 10.7448 15.1629 11.0188 15.3297 11.3536ZM10.8232 20.9667C11.771 20.9517 12.222 21.0051 12.5489 21.1708C12.788 21.292 13.8758 22.1073 13.8776 22.1667C13.8796 22.2298 12.1919 26.5247 12.1669 26.5203C12.1533 26.518 11.8125 26.1284 11.4094 25.6546C11.0064 25.1808 10.6183 24.7606 10.547 24.7208C10.4305 24.6559 10.3002 24.6622 9.25961 24.7837C8.62279 24.858 8.09234 24.9093 8.08076 24.8977C8.06376 24.8807 9.25213 21.7899 9.54648 21.0854C9.62147 20.906 9.62787 20.9024 9.80799 20.9406C9.90956 20.9621 10.3664 20.9738 10.8232 20.9667ZM21.1677 22.9046C21.5923 23.9897 21.9305 24.8868 21.9192 24.8981C21.9078 24.9095 21.3776 24.858 20.7408 24.7837C19.7002 24.6622 19.5699 24.6559 19.4534 24.7208C19.3821 24.7606 18.994 25.1808 18.591 25.6546C18.1879 26.1284 17.8471 26.518 17.8336 26.5203C17.8085 26.5247 16.12 22.2287 16.1225 22.1667C16.1249 22.1073 17.2125 21.292 17.45 21.1715C17.7941 20.9971 18.2459 20.9436 19.0795 20.9784C19.4902 20.9956 19.9089 20.9886 20.0321 20.9626C20.1531 20.937 20.2843 20.9196 20.3239 20.9239C20.3709 20.9289 20.6615 21.6111 21.1677 22.9046Z" fill="#30A7D7"/>
</svg>
