<svg width="30" height="30" viewBox="0 0 30 30" fill="none" xmlns="http://www.w3.org/2000/svg">
<path d="M27.1009 3.26468C26.9533 3.13594 26.7809 3.03908 26.5945 2.98012C26.408 2.92116 26.2115 2.90136 26.0171 2.92196C23.1884 3.2385 20.4296 4.0147 17.8488 5.22019C16.3785 6.03768 15.0278 7.0553 13.8348 8.24419C13.6224 8.46259 13.3356 8.59222 13.032 8.60707C11.3923 8.76398 9.7979 9.23624 8.33574 9.99811C7.25373 10.5115 6.2583 11.1918 5.3855 12.0141C5.23427 12.1961 5.13258 12.4143 5.09037 12.6475C5.04816 12.8807 5.06687 13.1209 5.14466 13.3447C5.22291 13.5806 5.36636 13.7892 5.55827 13.9463C5.75017 14.1034 5.98261 14.2024 6.22842 14.2317L8.37588 14.5341C8.33287 14.7407 8.34351 14.9549 8.40678 15.1562C8.47005 15.3574 8.58382 15.5389 8.73713 15.6832L14.6176 21.5901C14.7623 21.7425 14.9431 21.8557 15.1431 21.9192C15.3431 21.9826 15.5558 21.9942 15.7615 21.953L16.0626 24.0899C16.0957 24.3384 16.1981 24.5725 16.3579 24.7651C16.5176 24.9577 16.7283 25.101 16.9657 25.1786C17.1047 25.2074 17.2481 25.2074 17.3872 25.1786C17.5637 25.1812 17.7388 25.1467 17.9013 25.0773C18.0638 25.0079 18.21 24.905 18.3304 24.7754C19.2718 23.8172 20.0454 22.7062 20.6184 21.4893C21.2752 20.1358 21.6831 18.6743 21.8226 17.1751C21.8363 16.864 21.9651 16.5692 22.1838 16.3485C23.4787 15.0067 24.5859 13.4943 25.4752 11.8528C26.7299 9.45524 27.4167 6.7991 27.4822 4.09124C27.4542 3.77967 27.3195 3.48753 27.1009 3.26468V3.26468ZM24.1707 11.3287C23.3474 12.7889 22.35 14.1429 21.2004 15.3607C20.7241 15.8262 20.4318 16.4493 20.3775 17.1146C20.2194 18.4598 19.8181 19.7647 19.1934 20.9651C18.7302 21.9238 18.1357 22.8128 17.4273 23.6061L17.1865 20.9047C17.1683 20.7406 17.1039 20.5851 17.0008 20.4565C16.8977 20.328 16.7602 20.2316 16.6044 20.1789C16.519 20.1558 16.429 20.1558 16.3435 20.1789C16.1138 20.1773 15.8893 20.2478 15.7013 20.3805H15.601L9.94131 14.8365C10.0389 14.7055 10.1057 14.5541 10.137 14.3935C10.1683 14.233 10.1631 14.0674 10.1219 13.9091C10.0628 13.7734 9.97454 13.6525 9.86354 13.5549C9.75253 13.4573 9.62148 13.3856 9.47971 13.3447L6.7703 12.9415C7.49075 12.2986 8.29406 11.7562 9.1586 11.3287C10.4042 10.6495 11.7658 10.2118 13.1725 10.0384C13.8367 10.0264 14.473 9.76789 14.9587 9.31267C16.0415 8.20492 17.2625 7.24268 18.5913 6.44995C20.9431 5.38266 23.4503 4.70198 26.0171 4.43396C25.934 6.84368 25.3023 9.20224 24.1707 11.3287V11.3287Z" fill="#30A7D7"/>
<path d="M7.2146 18.3858C6.50136 18.5554 5.83715 18.8886 5.27427 19.3592C4.7114 19.8297 4.26522 20.4247 3.97087 21.0974C3.40333 22.4334 2.92467 23.8055 2.53805 25.2048C2.47869 25.4026 2.46663 25.6116 2.50286 25.815C2.53909 26.0183 2.62258 26.2102 2.74659 26.3753C2.87059 26.5403 3.03163 26.6737 3.21666 26.7648C3.40169 26.8559 3.60552 26.9021 3.81167 26.8996C3.93026 26.9193 4.05128 26.9193 4.16987 26.8996V26.8996C5.81189 26.4702 7.41073 25.8895 8.94592 25.1649C9.50919 24.8777 9.99611 24.4603 10.3664 23.9472C10.7367 23.434 10.9797 22.8399 11.0752 22.214C11.1438 21.6874 11.0856 21.1521 10.9056 20.6526C10.7256 20.1531 10.4289 19.704 10.0404 19.3428C9.68426 18.9628 9.24005 18.6767 8.74714 18.5097C8.25424 18.3428 7.72785 18.3002 7.2146 18.3858V18.3858ZM8.24941 23.8091C6.90911 24.4547 5.50956 24.9689 4.07037 25.3444C4.40714 24.1146 4.82599 22.9089 5.32408 21.7355C5.51881 21.2814 5.81314 20.8771 6.18522 20.5526C6.5573 20.2281 6.99756 19.9918 7.47331 19.8612H7.77181C8.00455 19.8653 8.23401 19.9169 8.44616 20.0129C8.6583 20.1089 8.84867 20.2473 9.00562 20.4195C9.21928 20.6269 9.38383 20.8796 9.48714 21.1591C9.59046 21.4386 9.62992 21.7377 9.60263 22.0345C9.52202 22.4122 9.35885 22.7672 9.12485 23.074C8.89086 23.3809 8.59187 23.6319 8.24941 23.8091Z" fill="#30A7D7"/>
</svg>
