<svg width="30" height="31" viewBox="0 0 30 31" fill="none" xmlns="http://www.w3.org/2000/svg">
<path fill-rule="evenodd" clip-rule="evenodd" d="M2.62803 3.1181L2.5 3.24591V11.8681V20.4902H2.91722H3.33444V12.1569V3.82357H11.8875H20.4405V15.4902V27.1569H11.8875H3.33444V24.2402V21.3236H2.91722H2.5V24.529V27.7346L2.62803 27.8624L2.75602 27.9902H11.8875H21.0189L21.1469 27.8624L21.2749 27.7346V15.4902V3.24591L21.1469 3.1181L21.0189 2.99023H11.8875H2.75602L2.62803 3.1181ZM22.1119 4.58378C22.0769 4.80049 22.0601 4.98971 22.0746 5.00419C22.0892 5.01867 23.0945 5.20477 24.3086 5.41768C25.5228 5.63065 26.5428 5.8143 26.5752 5.82581C26.6164 5.84049 26.5735 6.19607 26.4324 7.00966C26.3214 7.64924 26.2303 8.20977 26.23 8.25534C26.2295 8.31716 26.3232 8.35487 26.5993 8.40414C26.8039 8.44065 26.9877 8.45023 27.0107 8.42549C27.0336 8.40096 27.1635 7.71711 27.2995 6.90586C27.5643 5.32539 27.565 5.23378 27.3123 5.12565C27.2474 5.09789 26.1147 4.88701 24.7952 4.65706C23.4757 4.42711 22.3465 4.22789 22.2859 4.21435C22.185 4.1918 22.1701 4.22357 22.1119 4.58378ZM4.5861 5.07357V5.49023H5.83776H7.08942V5.07357V4.6569H5.83776H4.5861V5.07357ZM10.01 5.5393C8.51152 6.20982 8.03708 6.44435 7.98081 6.54232C7.91588 6.65534 7.92704 6.79607 8.07771 7.75987C8.32841 9.36383 8.53373 10.0642 8.99445 10.8869C9.26074 11.3625 9.75963 12.0146 10.1568 12.4063C10.6671 12.9096 11.9174 13.8236 12.0956 13.8236C12.2511 13.8236 12.9652 13.3333 13.6709 12.7421C14.5786 11.9815 15.3525 10.8162 15.7195 9.6569C15.7966 9.41341 15.9528 8.65352 16.0666 7.9682C16.2989 6.56909 16.2952 6.51039 15.9655 6.35128C15.0965 5.93195 12.1665 4.65763 12.0778 4.66049C12.0161 4.66247 11.0856 5.05789 10.01 5.5393ZM17.1027 5.07357V5.49023H17.5199H17.9371V5.07357V4.6569H17.5199H17.1027V5.07357ZM18.7716 5.07357V5.49023H19.1888H19.606V5.07357V4.6569H19.1888H18.7716V5.07357ZM13.7148 6.2507C14.5885 6.64034 15.32 6.9744 15.3402 6.99315C15.3883 7.03768 15.0995 8.80414 14.9728 9.24023C14.5927 10.5491 13.7397 11.721 12.5497 12.5697L12.0907 12.8971L11.4963 12.4466C10.3664 11.5907 9.68891 10.6763 9.27889 9.45409C9.11216 8.95706 8.77968 7.06242 8.84743 6.99534C8.8976 6.94565 11.9956 5.55451 12.072 5.54737C12.1017 5.54461 12.841 5.86112 13.7148 6.2507ZM4.5861 6.74023V7.1569H5.42054H6.25498V6.74023V6.32357H5.42054H4.5861V6.74023ZM12.7613 8.39326L11.6798 9.47336L11.2219 9.01826C10.9701 8.76794 10.7403 8.56315 10.7112 8.56315C10.6821 8.56315 10.5357 8.68711 10.3859 8.83867L10.1134 9.11414L10.8092 9.80221C11.4226 10.4088 11.5256 10.4902 11.6791 10.4902C11.837 10.4902 11.9756 10.3686 13.1611 9.18992L14.469 7.88966L14.1839 7.60138C14.0272 7.44284 13.8863 7.31315 13.8709 7.31315C13.8555 7.31315 13.3562 7.79919 12.7613 8.39326ZM26.047 9.30534C26.0317 9.36982 25.3506 13.3483 24.5335 18.1465C23.7164 22.9447 23.0344 26.9349 23.0178 27.0137C22.9878 27.1562 22.9855 27.1569 22.5485 27.1569H22.1093V27.5736V27.9902H22.7588C23.4697 27.9902 23.6384 27.9456 23.72 27.7361C23.7746 27.5959 26.8552 9.58169 26.8552 9.40263C26.8552 9.32107 26.7954 9.29263 26.525 9.2456C26.086 9.16924 26.0792 9.17008 26.047 9.30534ZM5.55692 15.1589C5.37825 15.2137 5.21991 15.3192 5.02668 15.5122C4.6177 15.9206 4.5861 16.0688 4.5861 17.5771C4.5861 19.0643 4.62083 19.2261 5.02762 19.6332C5.44594 20.0519 5.60553 20.0835 7.20181 20.0638C8.51788 20.0476 8.52476 20.0469 8.78438 19.9091C9.25432 19.6598 9.53141 19.2421 9.5797 18.7101L9.60724 18.4069H9.18955H8.77186L8.74469 18.6476C8.72456 18.826 8.67527 18.9305 8.55439 19.0513L8.39125 19.2142H7.08942H5.78759L5.6171 19.0439L5.44662 18.8737V17.5736V16.2735L5.617 16.1032L5.78738 15.9329L6.85562 15.917L7.92386 15.901V15.4873V15.0736L6.86777 15.0772C6.08569 15.0799 5.74561 15.1011 5.55692 15.1589ZM11.2616 15.4902V15.9069H14.3908H17.5199V15.4902V15.0736H14.3908H11.2616V15.4902ZM8.57968 16.5104L7.48839 17.7876L7.04014 17.3421C6.79361 17.097 6.568 16.8965 6.53885 16.8965C6.47021 16.8965 5.99422 17.3783 5.99422 17.4477C5.99422 17.4768 6.29545 17.7983 6.66365 18.1621C7.21923 18.7111 7.35942 18.8236 7.48813 18.8236C7.5734 18.8236 7.68203 18.7943 7.72954 18.7585C7.77705 18.7227 8.37994 18.0371 9.06918 17.235L10.3225 15.7767L10.0228 15.5045C9.85799 15.3548 9.71139 15.2325 9.69705 15.2327C9.68271 15.233 9.1799 15.8079 8.57968 16.5104ZM11.2616 17.5736V17.9902H12.3047H13.3477V17.5736V17.1569H12.3047H11.2616V17.5736ZM14.1822 17.5736V17.9902H15.851H17.5199V17.5736V17.1569H15.851H14.1822V17.5736ZM5.55692 21.4089C5.37825 21.4637 5.21991 21.5692 5.02668 21.7622C4.6177 22.1706 4.5861 22.3188 4.5861 23.8271C4.5861 25.3143 4.62083 25.4761 5.02762 25.8832C5.44594 26.3019 5.60553 26.3335 7.20181 26.3138C8.51788 26.2976 8.52476 26.2969 8.78438 26.1591C9.25432 25.9098 9.53141 25.4921 9.5797 24.9601L9.60724 24.6569H9.18955H8.77186L8.74469 24.8976C8.72456 25.076 8.67527 25.1805 8.55439 25.3013L8.39125 25.4642H7.08942H5.78759L5.6171 25.2939L5.44662 25.1237V23.8236V22.5235L5.617 22.3532L5.78738 22.1829L6.85562 22.167L7.92386 22.151V21.7373V21.3236L6.86777 21.3272C6.08569 21.3299 5.74561 21.3511 5.55692 21.4089ZM11.2616 21.7402V22.1569H14.3908H17.5199V21.7402V21.3236H14.3908H11.2616V21.7402ZM8.57968 22.7604L7.48839 24.0376L7.04014 23.5921C6.79361 23.347 6.568 23.1465 6.53885 23.1465C6.47021 23.1465 5.99422 23.6283 5.99422 23.6977C5.99422 23.7268 6.29545 24.0483 6.66365 24.4121C7.21923 24.9611 7.35942 25.0736 7.48813 25.0736C7.5734 25.0736 7.68203 25.0443 7.72954 25.0085C7.77705 24.9727 8.37994 24.2871 9.06918 23.485L10.3225 22.0267L10.0228 21.7545C9.85799 21.6048 9.71139 21.4825 9.69705 21.4827C9.68271 21.483 9.1799 22.0579 8.57968 22.7604ZM11.2616 23.8236V24.2402H12.3047H13.3477V23.8236V23.4069H12.3047H11.2616V23.8236ZM14.1822 23.8236V24.2402H15.851H17.5199V23.8236V23.4069H15.851H14.1822V23.8236Z" fill="#30A7D7"/>
</svg>
