<svg width="30" height="30" viewBox="0 0 30 30" fill="none" xmlns="http://www.w3.org/2000/svg">
<path d="M6.33197 12.9177L8.11349 14.1672C8.34325 14.3273 8.62603 14.0891 8.55887 13.7962L8.04279 11.555C8.02884 11.4929 8.03106 11.4277 8.04919 11.3669C8.06733 11.3061 8.10065 11.2522 8.1453 11.2114L9.74302 9.73934C9.95157 9.54802 9.84553 9.16146 9.57335 9.14193L7.48784 8.99356C7.43093 8.9899 7.37622 8.96801 7.3304 8.93057C7.28457 8.89312 7.24962 8.84174 7.2298 8.78271L6.45215 6.61955C6.43156 6.55704 6.39406 6.50304 6.34474 6.46488C6.29541 6.42672 6.23665 6.40625 6.17644 6.40625C6.11622 6.40625 6.05746 6.42672 6.00813 6.46488C5.95881 6.50304 5.92131 6.55704 5.90072 6.61955L5.12307 8.78271C5.10325 8.84174 5.0683 8.89312 5.02247 8.93057C4.97665 8.96801 4.92194 8.9899 4.86504 8.99356L2.77952 9.14193C2.50734 9.16146 2.4013 9.54802 2.60985 9.73934L4.20757 11.2114C4.25223 11.2522 4.28554 11.3061 4.30368 11.3669C4.32181 11.4277 4.32403 11.4929 4.31008 11.555L3.83288 13.6322C3.75158 13.9837 4.09092 14.2687 4.3631 14.0774L6.02091 12.9177C6.06739 12.885 6.12134 12.8677 6.17644 12.8677C6.23153 12.8677 6.28548 12.885 6.33197 12.9177Z" stroke="#30A7D7" stroke-linecap="round" stroke-linejoin="round"/>
<path d="M15.8906 9.01145L17.6721 10.2609C17.9018 10.421 18.1846 10.1828 18.1175 9.88999L17.6014 7.64874C17.5874 7.58662 17.5897 7.5214 17.6078 7.46061C17.6259 7.39982 17.6592 7.34592 17.7039 7.30513L19.3016 5.83309C19.5102 5.64177 19.4041 5.25521 19.1319 5.23568L17.0464 5.08731C16.9895 5.08365 16.9348 5.06176 16.889 5.02432C16.8432 4.98687 16.8082 4.93549 16.7884 4.87646L16.0107 2.7133C15.9902 2.65079 15.9527 2.59679 15.9033 2.55863C15.854 2.52047 15.7952 2.5 15.735 2.5C15.6748 2.5 15.6161 2.52047 15.5667 2.55863C15.5174 2.59679 15.4799 2.65079 15.4593 2.7133L14.6817 4.87646C14.6618 4.93549 14.6269 4.98687 14.5811 5.02432C14.5352 5.06176 14.4805 5.08365 14.4236 5.08731L12.3381 5.23568C12.0659 5.25521 11.9599 5.64177 12.1684 5.83309L13.7662 7.30513C13.8108 7.34592 13.8441 7.39982 13.8623 7.46061C13.8804 7.5214 13.8826 7.58662 13.8687 7.64874L13.3915 9.726C13.3102 10.0774 13.6495 10.3625 13.9217 10.1711L15.5795 9.01145C15.626 8.9788 15.6799 8.96146 15.735 8.96146C15.7901 8.96146 15.8441 8.9788 15.8906 9.01145V9.01145Z" stroke="#30A7D7" stroke-linecap="round" stroke-linejoin="round"/>
<path d="M23.9794 13.699L25.761 14.9484C25.9907 15.1085 26.2735 14.8703 26.2063 14.5775L25.6903 12.3362C25.6763 12.2741 25.6785 12.2089 25.6967 12.1481C25.7148 12.0873 25.7481 12.0334 25.7928 11.9926L27.3905 10.5206C27.599 10.3293 27.493 9.94271 27.2208 9.92318L25.1353 9.77481C25.0784 9.77115 25.0237 9.74926 24.9779 9.71182C24.932 9.67437 24.8971 9.62299 24.8773 9.56396L24.0996 7.4008C24.079 7.33829 24.0415 7.28429 23.9922 7.24613C23.9429 7.20797 23.8841 7.1875 23.8239 7.1875C23.7637 7.1875 23.7049 7.20797 23.6556 7.24613C23.6063 7.28429 23.5688 7.33829 23.5482 7.4008L22.7705 9.56396C22.7507 9.62299 22.7158 9.67437 22.6699 9.71182C22.6241 9.74926 22.5694 9.77115 22.5125 9.77481L20.427 9.92318C20.1548 9.94271 20.0488 10.3293 20.2573 10.5206L21.855 11.9926C21.8997 12.0334 21.933 12.0873 21.9511 12.1481C21.9693 12.2089 21.9715 12.2741 21.9575 12.3362L21.4803 14.4135C21.399 14.7649 21.7384 15.05 22.0106 14.8586L23.6684 13.699C23.7149 13.6663 23.7688 13.649 23.8239 13.649C23.879 13.649 23.9329 13.6663 23.9794 13.699V13.699Z" stroke="#30A7D7" stroke-linecap="round" stroke-linejoin="round"/>
<path d="M16.5763 19.3836H20.1252C21.2327 19.3836 21.9531 20.5381 21.4578 21.5193L18.8505 26.6841C18.5981 27.1841 18.0822 27.4999 17.5179 27.4999H14.5249C14.403 27.4999 14.2817 27.4851 14.1635 27.4558L11.3616 26.762M16.5763 19.3836V15.6944C16.5763 14.8794 15.9092 14.2188 15.0864 14.2188H15.0153C14.6431 14.2188 14.3414 14.5176 14.3414 14.8861C14.3414 15.4132 14.1839 15.9284 13.8888 16.367L11.3616 20.1215V26.762M16.5763 19.3836H15.0864M11.3616 26.762H9.87174C9.04889 26.762 8.38184 26.1013 8.38184 25.2864V20.8593C8.38184 20.0443 9.04889 19.3836 9.87174 19.3836H11.7341" stroke="#30A7D7" stroke-linecap="round" stroke-linejoin="round"/>
</svg>
