<svg width="40" height="41" viewBox="0 0 40 41" fill="none" xmlns="http://www.w3.org/2000/svg">
<path fill-rule="evenodd" clip-rule="evenodd" d="M18.2029 8.95534C16.0496 9.24962 14.0091 10.4069 12.6333 12.1141C11.1869 13.909 10.4828 16.2374 10.7081 18.4804C10.8387 19.7804 11.2652 21.0964 11.8941 22.1398C13.1859 24.2826 15.2452 25.7399 17.7278 26.2677C18.253 26.3794 18.3598 26.3873 19.3698 26.3891C20.5022 26.391 20.7244 26.3684 21.528 26.1689C22.5838 25.9067 23.663 25.4114 24.4831 24.8124C24.6337 24.7024 24.7911 24.5876 24.8329 24.5574C24.8996 24.5089 25.456 24.902 29.4633 27.8283C31.9683 29.6575 34.1193 31.2012 34.2432 31.2585C35.9762 32.0609 37.8698 30.5026 37.4311 28.635C37.396 28.4855 37.3201 28.2696 37.2624 28.1553C37.0046 27.6446 37.0232 27.6593 32.2143 24.1524C29.689 22.3108 27.6181 20.8005 27.6123 20.7962C27.6065 20.7918 27.6574 20.6227 27.7256 20.4204C28.4407 18.2963 28.2758 15.8436 27.2812 13.8109C26.7999 12.8273 26.2958 12.1336 25.4994 11.3592C24.1263 10.0237 22.4349 9.19744 20.5729 8.95243C19.9675 8.87274 18.7966 8.87418 18.2029 8.95534ZM20.0457 10.6248C21.7449 10.7982 23.319 11.5517 24.4477 12.732C25.4084 13.7365 25.9759 14.7927 26.2859 16.1534C26.455 16.8953 26.4846 18.0397 26.3545 18.806C26.0984 20.3152 25.3784 21.6742 24.2644 22.7512C22.1473 24.7981 18.939 25.2932 16.3109 23.9785C15.6043 23.6251 15.1267 23.2898 14.5568 22.7473C13.4996 21.7407 12.7904 20.4156 12.4906 18.8863C12.3815 18.3299 12.3825 16.9175 12.4924 16.3703C13.0116 13.7858 14.7895 11.7568 17.2418 10.9504C18.1875 10.6393 19.1236 10.5307 20.0457 10.6248ZM8.39445 12.8662C7.78186 13.0151 6.73139 13.4705 6.4971 13.6885C6.17761 13.9859 6.16076 14.2604 6.42447 14.8706C6.68606 15.4759 6.67418 15.5288 6.18102 15.9525C6.00931 16.0999 5.74948 16.3617 5.60361 16.534C5.45773 16.7064 5.30654 16.8731 5.26765 16.9046C5.16062 16.9909 4.89626 16.9449 4.48395 16.768C3.90097 16.518 3.57681 16.5604 3.30147 16.9227C3.15395 17.1169 2.88346 17.7089 2.68781 18.2658C2.50174 18.7955 2.48187 19.0862 2.61677 19.305C2.7238 19.4785 2.82737 19.5425 3.33889 19.7511C3.93082 19.9925 3.90157 19.9226 3.89543 21.0808C3.89215 21.702 3.87284 22.092 3.8425 22.1489C3.81252 22.2051 3.64585 22.2964 3.39398 22.3944C2.88186 22.5938 2.70051 22.7197 2.58734 22.9544C2.46316 23.2119 2.4702 23.292 2.67069 23.9054C2.88938 24.5744 3.2386 25.2523 3.45448 25.4267C3.71953 25.6408 3.90853 25.6349 4.50163 25.3939C4.83676 25.2578 5.03946 25.1979 5.10764 25.2151C5.16399 25.2293 5.52479 25.5569 5.90945 25.9431C6.71773 26.7545 6.68887 26.6755 6.41371 27.3236C6.2085 27.807 6.19831 28.099 6.37797 28.3474C6.53059 28.5583 7.18103 28.8933 7.92778 29.1456C8.50048 29.339 8.62273 29.3511 8.86976 29.2383C9.10037 29.1329 9.1253 29.0972 9.36442 28.5303C9.6411 27.8743 9.64464 27.872 10.2755 27.9305C10.6082 27.9614 10.9034 27.9626 11.1739 27.9343C11.7407 27.875 11.8305 27.9233 11.9966 28.3765C12.2319 29.0185 12.4464 29.2682 12.7968 29.3078C13.1724 29.3503 14.5383 28.8247 14.9149 28.4927C15.1013 28.3285 15.2 28.1335 15.2 27.9297C15.2 27.8559 15.1125 27.5811 15.0056 27.3189C14.8986 27.0568 14.8112 26.8091 14.8113 26.7685C14.8114 26.7278 14.8492 26.6324 14.8955 26.5563L14.9795 26.418L14.6468 26.2351C14.1975 25.9881 13.6512 25.6162 13.2374 25.2755L12.8951 24.9937L12.5367 25.1623C10.6071 26.0701 8.21016 25.3813 7.01294 23.575C6.24929 22.4228 6.05118 20.9973 6.47632 19.714C6.88137 18.4914 7.71346 17.5523 8.86284 17.0204C9.033 16.9417 9.28224 16.8453 9.41666 16.8062L9.6611 16.7352L9.69005 16.466C9.73905 16.0102 9.9179 15.1786 10.0704 14.6972L10.2157 14.2388L9.99641 14.2569C9.71291 14.2802 9.58557 14.1839 9.4514 13.8446C9.24784 13.33 9.11018 13.0981 8.9449 12.9916C8.7769 12.8832 8.54322 12.83 8.39445 12.8662ZM14.6976 13.8888C13.9989 14.7729 13.5205 16.0085 13.4442 17.1263L13.4188 17.4982L13.8665 17.9539C14.5263 18.6256 14.9073 19.3334 15.0903 20.2279C15.1626 20.581 15.1857 21.3526 15.1343 21.6966L15.1054 21.8901L15.41 22.1533C16.0333 22.6919 16.7757 23.1191 17.5272 23.3717C17.9735 23.5218 18.6938 23.6647 18.7993 23.624C18.8917 23.5884 18.9397 23.236 18.8795 23.0343C18.8139 22.8145 18.604 22.6331 18.2463 22.4872C17.4565 22.1652 17.4729 22.1877 17.5386 21.5152C17.5703 21.1905 17.5713 20.9144 17.5416 20.6364C17.4927 20.1784 17.5396 19.9809 17.7147 19.9078C17.7694 19.8849 17.9676 19.8039 18.155 19.7276C18.6808 19.5138 18.9161 19.2636 18.9161 18.9181C18.9161 18.5527 18.4129 17.2769 18.1132 16.8824C17.8614 16.551 17.5342 16.5236 16.9173 16.7824C16.6898 16.8778 16.4451 16.9559 16.3736 16.9559C16.2632 16.9559 16.1356 16.8478 15.5274 16.2389C15.0727 15.7838 14.8111 15.4899 14.8111 15.4342C14.8111 15.3859 14.8925 15.1571 14.9919 14.9257C15.2217 14.3913 15.2386 14.1129 15.0582 13.8392C14.9929 13.7401 14.9252 13.66 14.9077 13.6611C14.8902 13.6622 14.7956 13.7647 14.6976 13.8888Z" fill="white"/>
</svg>
