<svg width="40" height="41" viewBox="0 0 40 41" fill="none" xmlns="http://www.w3.org/2000/svg">
<path d="M11.1875 23.3369L5 28.3369V8.33691C5 8.00539 5.1317 7.68745 5.36612 7.45303C5.60054 7.21861 5.91848 7.08691 6.25 7.08691H26.25C26.5815 7.08691 26.8995 7.21861 27.1339 7.45303C27.3683 7.68745 27.5 8.00539 27.5 8.33691V22.0869C27.5 22.4184 27.3683 22.7364 27.1339 22.9708C26.8995 23.2052 26.5815 23.3369 26.25 23.3369H11.1875Z" stroke="white" stroke-width="2" stroke-linecap="round" stroke-linejoin="round"/>
<path d="M12.5 23.3369V29.5869C12.5 29.9184 12.6317 30.2364 12.8661 30.4708C13.1005 30.7052 13.4185 30.8369 13.75 30.8369H28.8125L35 35.8369V15.8369C35 15.5054 34.8683 15.1875 34.6339 14.953C34.3995 14.7186 34.0815 14.5869 33.75 14.5869H27.5" stroke="white" stroke-width="2" stroke-linecap="round" stroke-linejoin="round"/>
</svg>
