<svg width="40" height="41" viewBox="0 0 40 41" fill="none" xmlns="http://www.w3.org/2000/svg">
<g opacity="0.4">
<path fill-rule="evenodd" clip-rule="evenodd" d="M19.9014 3.25333C19.7134 3.28867 19.3021 3.44173 18.9873 3.59349C17.9784 4.07986 17.2414 4.98398 16.9632 6.07637C16.8782 6.40996 16.8594 7.02335 16.8594 9.46016L16.8595 12.4365L11.6526 12.417C8.05702 12.4035 6.33361 12.4207 6.08335 12.4727C5.13896 12.6687 4.3166 13.3261 3.88621 14.2289C3.63369 14.7587 3.6326 14.7648 3.60806 15.7961C3.58475 16.7747 3.59124 16.8393 3.72728 16.9753C3.93796 17.186 4.30088 17.1685 4.48135 16.939C4.60658 16.7799 4.62306 16.6648 4.62306 15.9504C4.62306 15.3004 4.65074 15.0677 4.76442 14.7641C4.93211 14.3159 5.3597 13.8598 5.8324 13.6252L6.16114 13.4619H11.3906H16.6201L16.9766 13.6231C17.4205 13.8238 17.8891 14.3161 18.0613 14.7627C18.1862 15.0865 18.1924 15.3379 18.1924 20.0928V25.083L17.3379 25.1172C16.5795 25.1475 16.4395 25.1729 16.0936 25.3428C15.5905 25.5898 15.1295 26.1009 14.9394 26.6224C14.7969 27.013 14.7659 27.044 13.6607 27.8985C13.0378 28.3803 12.5056 28.7838 12.4782 28.7951C12.4508 28.8065 12.4179 28.479 12.4051 28.0672C12.37 26.9375 12.6968 27.0453 9.21373 27.0153C6.6264 26.993 6.2617 26.9765 5.97691 26.8689C5.54885 26.707 5.06876 26.2732 4.84201 25.8434L4.65724 25.4932L4.62306 22.5095C4.59086 19.6981 4.58136 19.5175 4.45865 19.382C4.28871 19.1944 3.91861 19.1908 3.73438 19.375C3.6019 19.5075 3.59767 19.6028 3.59767 22.4451C3.59767 25.6533 3.61229 25.7916 4.02751 26.5C4.28194 26.9341 4.90449 27.4887 5.39524 27.7183C6.00788 28.005 6.52926 28.0521 9.11769 28.0545L11.3906 28.0566V29.1056C11.3906 30.234 11.4097 30.2976 11.7811 30.4107C11.9881 30.4738 12.0673 30.4239 13.4208 29.3782C14.074 28.8735 14.6524 28.4438 14.706 28.4232C14.7893 28.3912 14.8063 28.8493 14.8231 31.5879L14.8428 34.79L15.0331 35.1512C15.2871 35.6332 15.6953 36.0291 16.1657 36.2496C16.5494 36.4296 16.5632 36.4308 18.4146 36.4518L20.2774 36.4729V37.0809C20.2774 37.4153 20.3115 37.7638 20.3532 37.8555C20.4314 38.0271 20.6739 38.1739 20.8787 38.1737C20.9428 38.1736 21.4891 37.7931 22.0928 37.3282L23.1906 36.4828L23.8018 36.4531C24.854 36.402 25.5445 35.9539 25.9689 35.0471C26.164 34.6302 26.1785 34.5447 26.1843 33.7835C26.1902 33.0044 26.1831 32.9611 26.029 32.8361C25.837 32.6801 25.5574 32.667 25.3608 32.8047C25.2349 32.8929 25.2146 32.9935 25.1844 33.678C25.1477 34.5101 25.0783 34.7252 24.7439 35.0428C24.433 35.3381 24.1049 35.4395 23.4601 35.4395H22.8786L22.1078 36.0234L21.3369 36.6074L21.3168 36.1627C21.2993 35.7782 21.2726 35.6991 21.1195 35.5787C20.9506 35.4458 20.8501 35.4394 18.918 35.438C17.0934 35.4366 16.8666 35.4239 16.6201 35.3098C16.3018 35.1625 16.0101 34.8712 15.9067 34.5976C15.8586 34.4704 15.834 33.1662 15.834 30.7497C15.834 27.2975 15.8412 27.0801 15.9635 26.8405C16.1115 26.5504 16.2547 26.4107 16.5654 26.2534C16.7592 26.1553 17.2084 26.1426 20.4824 26.1426C23.7564 26.1426 24.2057 26.1553 24.3994 26.2534C24.7121 26.4117 24.8521 26.5493 25.0168 26.8604C25.1492 27.1105 25.1636 27.2646 25.1865 28.6719C25.2146 30.4003 25.2281 30.4492 25.6777 30.4492C25.8475 30.4492 25.9725 30.4021 26.0602 30.305C26.1806 30.1718 26.1902 30.0417 26.1866 28.579C26.1831 27.0835 26.174 26.9747 26.0217 26.5874C25.8026 26.0302 25.2396 25.4667 24.7005 25.265C24.3217 25.1233 24.2014 25.1172 21.7787 25.1172H19.252V23.7769C19.252 22.5279 19.2601 22.4398 19.3716 22.4838C19.8895 22.6888 20.4529 22.7223 23.4048 22.7234L26.4297 22.7246V24.0868V25.4491L26.6098 25.5907C26.7089 25.6686 26.8597 25.7324 26.9449 25.7324C27.0419 25.7324 27.8256 25.1757 29.0378 24.2456L30.9756 22.7588L32.1377 22.7173C33.1466 22.6813 33.3663 22.6525 33.8044 22.4989C34.7321 22.1735 35.5263 21.5013 35.9617 20.6727C36.4293 19.7828 36.4156 20.0358 36.3947 12.7264L36.376 6.14746L36.1788 5.66895C35.7682 4.67268 35.1148 3.97548 34.1885 3.54529C33.5478 3.24772 33.0895 3.17383 31.8859 3.17383C30.9642 3.17383 30.8608 3.18613 30.7363 3.31055C30.5483 3.49854 30.5549 3.87882 30.7493 4.05983C30.8856 4.18691 30.9869 4.19922 31.8969 4.19922C33.363 4.19922 33.9123 4.37565 34.5919 5.06499C34.7676 5.24313 35.0102 5.58972 35.131 5.83513L35.3506 6.28131V12.9478V19.6143L35.1307 20.0637C34.8871 20.5614 34.3548 21.1156 33.895 21.3502C33.3622 21.622 32.8889 21.6992 31.7546 21.6992H30.6825L29.0859 22.9215L27.4893 24.1438L27.4551 23.0521C27.4223 22.0071 27.414 21.9547 27.2595 21.8297C27.1057 21.7053 26.944 21.6992 23.7936 21.6992C20.3877 21.6992 20.0202 21.6749 19.5083 21.4159L19.252 21.2863V18.2832C19.252 16.3376 19.2252 15.1526 19.1757 14.9179C19.0523 14.3309 18.7798 13.835 18.3147 13.3513L17.8798 12.8989L17.8993 9.59154L17.919 6.28418L18.1296 5.83964C18.3588 5.35593 18.8264 4.84098 19.2751 4.57807C19.9017 4.21091 20.0547 4.19922 24.2224 4.19922C27.9792 4.19922 28.0735 4.19601 28.207 4.0625C28.2917 3.97787 28.3438 3.83466 28.3438 3.68652C28.3438 3.53839 28.2917 3.39518 28.207 3.31055C28.0733 3.17684 27.9845 3.17396 24.1567 3.18148C22.0042 3.18565 20.0894 3.21806 19.9014 3.25333ZM27.1817 7.05596C26.8406 7.24237 26.6509 7.55614 26.6026 8.01367C26.538 8.62542 26.3723 9.19643 26.1623 9.53125C26.056 9.70044 25.6238 10.2303 25.2016 10.7087C24.5252 11.4753 24.4221 11.5667 24.3333 11.4778C24.2501 11.3945 23.9476 11.377 22.6005 11.377C20.9917 11.377 20.9672 11.3791 20.8623 11.5289C20.7695 11.6613 20.7559 12.1047 20.7559 14.9811C20.7559 18.1901 20.7596 18.285 20.8926 18.418C21.0215 18.5469 21.1204 18.5547 22.6252 18.5547C24.1233 18.5547 24.2285 18.5465 24.3423 18.4207C24.4613 18.2892 24.468 18.289 24.7138 18.4144C25.4307 18.7802 25.5736 18.7939 28.6514 18.7939C31.5053 18.7939 31.5242 18.793 31.8129 18.6388C31.9727 18.5535 32.188 18.3558 32.2914 18.1996L32.4795 17.9155L32.4999 15.176C32.5112 13.6693 32.5019 12.3359 32.4794 12.2129C32.4262 11.9214 32.0734 11.5245 31.7282 11.3677C31.4923 11.2605 31.2605 11.243 30.0625 11.2417C28.764 11.2403 28.6743 11.2322 28.721 11.1206C29.0673 10.2924 29.1654 9.42229 29.0003 8.64258C28.8629 7.99405 28.5369 7.32488 28.2636 7.13026C27.9711 6.92197 27.4876 6.88875 27.1817 7.05596ZM27.8194 8.27091C27.8832 8.40489 27.9717 8.72522 28.0158 8.9828C28.1202 9.59127 28.0201 10.1554 27.6561 11.0107C27.5079 11.3587 27.3867 11.7079 27.3867 11.7867C27.3867 11.8656 27.4623 12.0055 27.5546 12.0978L27.7223 12.2656H29.5233C30.8329 12.2656 31.3466 12.288 31.4063 12.3477C31.4672 12.4086 31.4883 13.1021 31.4883 15.0455C31.4883 17.5616 31.4832 17.6639 31.3561 17.732C31.1802 17.8261 26.541 17.8253 25.96 17.731C25.5031 17.6569 25.11 17.4894 24.7378 17.2104L24.5156 17.0438V15.0371V13.0304L25.7122 11.6738C26.49 10.7921 26.9904 10.1619 27.1419 9.87305C27.4059 9.36999 27.5918 8.72317 27.5918 8.30803C27.5918 7.96295 27.6667 7.95071 27.8194 8.27091ZM23.4902 14.9658V17.5293H22.6358H21.7813V14.9658V12.4023H22.6358H23.4902V14.9658ZM10.4734 16.566C10.3725 16.6775 10.2598 17.209 10.0262 18.6743C10.0247 18.6837 9.53297 18.6914 8.93353 18.6914C7.89952 18.6914 7.83478 18.6993 7.67236 18.8452C7.42511 19.0674 7.4087 19.3579 7.63087 19.5801C7.75542 19.7046 7.85871 19.7168 8.79298 19.7168H9.81837L9.81516 19.9048C9.81345 20.0081 9.77476 20.2927 9.7293 20.5371L9.64658 20.9814L8.69317 21.0006C7.60428 21.0224 7.49415 21.0677 7.49415 21.4941C7.49415 21.9316 7.64488 22.0029 8.62919 22.031C9.09526 22.0442 9.47637 22.0596 9.47609 22.0651C9.47589 22.0707 9.41457 22.429 9.33985 22.8613C9.26514 23.2937 9.20382 23.7267 9.20361 23.8236C9.203 24.0579 9.46707 24.2969 9.7267 24.2969C10.074 24.2969 10.1655 24.1162 10.3408 23.0836C10.4285 22.5666 10.5007 22.1205 10.5011 22.0923C10.5016 22.0641 10.7788 22.041 11.1172 22.041C11.5192 22.041 11.7324 22.0671 11.7324 22.1162C11.7324 22.1576 11.6674 22.5763 11.588 23.0466C11.4442 23.8972 11.4442 23.9026 11.5776 24.0822C11.757 24.3236 12.1004 24.3603 12.3128 24.1608C12.4412 24.0402 12.4955 23.844 12.6264 23.028L12.7848 22.041H13.7865C14.8285 22.041 15.1749 21.9774 15.2886 21.7649C15.3841 21.5864 15.3713 21.3368 15.2586 21.1825C15.1719 21.0636 15.0494 21.0462 14.0794 21.0156C12.8425 20.9766 12.9589 21.072 13.0993 20.2124L13.1804 19.7168H14.1193C15.0123 19.7168 15.0655 19.7091 15.2069 19.5586C15.404 19.3487 15.3963 19.0679 15.1877 18.8592C15.0281 18.6996 14.9796 18.6914 14.1964 18.6914C13.6842 18.6914 13.3731 18.6652 13.3731 18.6219C13.3731 18.5837 13.4357 18.1619 13.5123 17.6845C13.6489 16.833 13.6491 16.8134 13.5225 16.6432C13.3126 16.361 12.8151 16.3707 12.6845 16.6596C12.6467 16.7432 12.5467 17.2268 12.4624 17.7344L12.3091 18.6572L11.6888 18.6768L11.0686 18.6963L11.1949 17.959C11.3574 17.0095 11.358 16.6941 11.1972 16.5487C11.0252 16.393 10.6213 16.4027 10.4734 16.566ZM12.1425 19.7339C12.1419 19.8422 11.9328 20.8996 11.9022 20.9492C11.8795 20.9858 11.6015 21.0156 11.2841 21.0156C10.6369 21.0156 10.6694 21.0532 10.7772 20.4301C10.9136 19.6421 10.8349 19.7168 11.5287 19.7168C11.8663 19.7168 12.1425 19.7245 12.1425 19.7339ZM18.5834 28.5747C18.2012 28.7651 17.9639 29.0081 17.7282 29.4501C17.6057 29.6797 17.578 29.8449 17.5776 30.3481C17.5772 30.9074 17.598 31.0072 17.8014 31.4203C17.9617 31.7458 18.1592 31.9991 18.4936 32.3076C18.9537 32.7321 19.8297 33.309 20.2622 33.4722C20.536 33.5756 20.7128 33.5155 21.4632 33.0642C22.2568 32.5869 22.8911 31.9736 23.1635 31.4203C23.3667 31.0076 23.3877 30.9069 23.3877 30.3481C23.3877 29.7911 23.3679 29.6955 23.1826 29.3596C22.9727 28.9789 22.5777 28.6395 22.1698 28.4891C21.7841 28.3469 21.1586 28.3793 20.8016 28.56L20.4824 28.7216L20.1633 28.56C19.7065 28.3288 19.0648 28.3347 18.5834 28.5747ZM19.9768 29.7429C20.2051 29.9916 20.3165 30.0618 20.4824 30.0618C20.6483 30.0618 20.7598 29.9916 20.9881 29.7429C21.247 29.4608 21.3141 29.4238 21.5663 29.4238C21.7959 29.4238 21.9015 29.4696 22.107 29.6578C22.3552 29.8853 22.3623 29.9051 22.3623 30.3697C22.3623 30.7916 22.338 30.8822 22.1546 31.1431C21.9131 31.4867 21.3119 31.9887 20.8235 32.2545L20.4824 32.4402L20.1517 32.2602C19.6706 31.9983 19.0755 31.513 18.8445 31.194C18.4822 30.6939 18.4846 29.9967 18.8497 29.6316C19.0206 29.4606 19.1129 29.4238 19.3706 29.4238C19.6561 29.4238 19.7098 29.4521 19.9768 29.7429Z" fill="#393E50"/>
</g>
</svg>
