<svg width="40" height="41" viewBox="0 0 40 41" fill="none" xmlns="http://www.w3.org/2000/svg">
<g opacity="0.4">
<path d="M33.75 17.8467H6.25V31.5967C6.25 31.9282 6.3817 32.2461 6.61612 32.4806C6.85054 32.715 7.16848 32.8467 7.5 32.8467H19.3389H32.5C32.8315 32.8467 33.1495 32.715 33.3839 32.4806C33.6183 32.2461 33.75 31.9282 33.75 31.5967V17.8467Z" stroke="#393E50" stroke-width="2" stroke-linecap="round" stroke-linejoin="round"/>
<path d="M6.25023 17.8467L32.8127 10.7217L31.5159 5.89359C31.4743 5.7347 31.4014 5.58569 31.3015 5.45532C31.2016 5.32494 31.0767 5.21581 30.9341 5.13432C30.7915 5.05283 30.6341 5.00062 30.471 4.98075C30.308 4.96088 30.1426 4.97374 29.9846 5.01859L5.84398 11.4873C5.68478 11.5291 5.53539 11.6019 5.40439 11.7015C5.27339 11.8012 5.16336 11.9257 5.08061 12.068C4.99786 12.2102 4.94402 12.3675 4.92218 12.5306C4.90035 12.6937 4.91094 12.8596 4.95336 13.0186L6.25023 17.8467Z" stroke="#393E50" stroke-width="2" stroke-linecap="round" stroke-linejoin="round"/>
<path d="M20.3281 7.59668L27.9844 12.0186" stroke="#393E50" stroke-width="2" stroke-linecap="round" stroke-linejoin="round"/>
<path d="M22.8223 25.4434L17.8223 22.4434V28.4434L22.8223 25.4434Z" stroke="#393E50" stroke-width="1.75" stroke-linecap="round" stroke-linejoin="round"/>
<path d="M9.46875 10.5186L17.1094 14.9404" stroke="#393E50" stroke-width="2" stroke-linecap="round" stroke-linejoin="round"/>
</g>
</svg>
