<svg width="24" height="24" viewBox="0 0 24 24" fill="none" xmlns="http://www.w3.org/2000/svg">
<path d="M12 12.5C13.1046 12.5 14 11.6046 14 10.5C14 9.39543 13.1046 8.5 12 8.5C10.8954 8.5 10 9.39543 10 10.5C10 11.6046 10.8954 12.5 12 12.5Z" stroke="#3C61C9" stroke-linecap="round" stroke-linejoin="round"/>
<path d="M17 10.5C17 15 12 18.5 12 18.5C12 18.5 7 15 7 10.5C7 9.17392 7.52678 7.90215 8.46447 6.96447C9.40215 6.02678 10.6739 5.5 12 5.5C13.3261 5.5 14.5979 6.02678 15.5355 6.96447C16.4732 7.90215 17 9.17392 17 10.5V10.5Z" stroke="#3C61C9" stroke-linecap="round" stroke-linejoin="round"/>
<rect x="0.5" y="0.5" width="23" height="23" rx="11.5" stroke="#3C61C9"/>
</svg>
