<svg width="40" height="40" viewBox="0 0 40 40" fill="none" xmlns="http://www.w3.org/2000/svg">
<path d="M6.02147 9.11328H34V7.61328H6.02147V9.11328ZM35.25 10.3633V30.3633H36.75V10.3633H35.25ZM34 31.6133H6.00195V33.1133H34V31.6133ZM4.75195 30.3621L4.77147 10.3621L3.27147 10.3606L3.25195 30.3606L4.75195 30.3621ZM6.00195 31.6133C5.31112 31.6133 4.75128 31.0529 4.75195 30.3621L3.25195 30.3606C3.25047 31.8804 4.48212 33.1133 6.00195 33.1133V31.6133ZM35.25 30.3633C35.25 31.0536 34.6904 31.6133 34 31.6133V33.1133C35.5188 33.1133 36.75 31.8821 36.75 30.3633H35.25ZM34 9.11328C34.6904 9.11328 35.25 9.67293 35.25 10.3633H36.75C36.75 8.8445 35.5188 7.61328 34 7.61328V9.11328ZM6.02147 7.61328C4.50373 7.61328 3.27295 8.84286 3.27147 10.3606L4.77147 10.3621C4.77214 9.67218 5.33159 9.11328 6.02147 9.11328V7.61328Z" fill="#393E50"/>
<path d="M32.1588 16.2284C32.4878 15.9766 32.5503 15.5059 32.2986 15.177C32.0468 14.848 31.5761 14.7855 31.2472 15.0372L32.1588 16.2284ZM9.6575 15.0574C9.33823 14.7935 8.86548 14.8384 8.60159 15.1576C8.3377 15.4769 8.3826 15.9497 8.70187 16.2136L9.6575 15.0574ZM18.1675 23.0641L17.6897 23.6422L18.1675 23.0641ZM31.2472 15.0372L21.4463 22.5385L22.3579 23.7297L32.1588 16.2284L31.2472 15.0372ZM18.6453 22.486L9.6575 15.0574L8.70187 16.2136L17.6897 23.6422L18.6453 22.486ZM21.4463 22.5385C20.6143 23.1753 19.4529 23.1535 18.6453 22.486L17.6897 23.6422C19.0356 24.7547 20.9713 24.7909 22.3579 23.7297L21.4463 22.5385Z" fill="#393E50"/>
</svg>
