<svg width="24" height="24" viewBox="0 0 24 24" fill="none" xmlns="http://www.w3.org/2000/svg">
<path d="M17.1439 6.24446L5.49387 9.52571C5.3947 9.55283 5.3063 9.60985 5.24071 9.68902C5.17512 9.76819 5.13552 9.86566 5.12733 9.96814C5.11913 10.0706 5.14272 10.1731 5.19489 10.2617C5.24706 10.3503 5.32527 10.4207 5.41887 10.4632L10.7689 12.9945C10.8737 13.043 10.9578 13.1272 11.0064 13.232L13.5376 18.582C13.5802 18.6756 13.6505 18.7538 13.7391 18.8059C13.8277 18.8581 13.9302 18.8817 14.0327 18.8735C14.1352 18.8653 14.2326 18.8257 14.3118 18.7601C14.391 18.6945 14.448 18.6061 14.4751 18.507L17.7564 6.85696C17.7812 6.77195 17.7828 6.68181 17.7608 6.596C17.7389 6.51019 17.6942 6.43186 17.6316 6.36923C17.569 6.30659 17.4906 6.26196 17.4048 6.24001C17.319 6.21806 17.2289 6.2196 17.1439 6.24446V6.24446Z" stroke="#3C61C9" stroke-linecap="round" stroke-linejoin="round"/>
<path d="M10.9312 13.0691L13.7562 10.2441" stroke="#3C61C9" stroke-linecap="round" stroke-linejoin="round"/>
<rect x="0.5" y="0.5" width="23" height="23" rx="11.5" stroke="#3C61C9"/>
</svg>
