<svg width="24" height="24" viewBox="0 0 24 24" fill="none" xmlns="http://www.w3.org/2000/svg">
<path d="M9.78125 11.8005C10.2958 12.863 11.1549 13.72 12.2188 14.2318C12.2972 14.2689 12.384 14.285 12.4706 14.2784C12.5572 14.2718 12.6405 14.2428 12.7125 14.1943L14.275 13.1505C14.344 13.1037 14.4238 13.0751 14.5069 13.0675C14.5899 13.0598 14.6736 13.0733 14.75 13.1068L17.675 14.363C17.775 14.4046 17.8585 14.4779 17.9127 14.5717C17.9669 14.6654 17.9888 14.7744 17.975 14.8818C17.8823 15.6053 17.5291 16.2704 16.9815 16.7524C16.4339 17.2344 15.7295 17.5003 15 17.5005C12.7457 17.5005 10.5837 16.605 8.98959 15.0109C7.39553 13.4169 6.5 11.2548 6.5 9.00051C6.50016 8.27101 6.76613 7.56656 7.24814 7.01898C7.73015 6.4714 8.39516 6.11822 9.11875 6.02551C9.22615 6.01171 9.33511 6.0336 9.42884 6.08781C9.52258 6.14202 9.59589 6.22554 9.6375 6.32551L10.8938 9.25676C10.9264 9.33198 10.9401 9.41407 10.9335 9.49582C10.927 9.57756 10.9005 9.65644 10.8562 9.72551L9.8125 11.313C9.76603 11.3848 9.73876 11.4673 9.73329 11.5527C9.72782 11.638 9.74433 11.7234 9.78125 11.8005V11.8005Z" stroke="#3C61C9" stroke-linecap="round" stroke-linejoin="round"/>
<rect x="0.5" y="0.5" width="23" height="23" rx="11.5" stroke="#3C61C9"/>
</svg>
