<svg width="20" height="20" viewBox="0 0 20 20" fill="none" xmlns="http://www.w3.org/2000/svg">
<path fill-rule="evenodd" clip-rule="evenodd" d="M17.1552 0.904064C14.5781 2.57394 11.1004 5.88734 8.37203 9.27234C8.07478 9.64118 7.9057 9.8161 7.86244 9.7996C7.82681 9.78602 6.95259 9.1877 5.91979 8.47001C4.88694 7.75236 3.9936 7.14692 3.93456 7.12459C3.7252 7.04547 3.59347 7.13342 2.89806 7.81655C2.17352 8.52824 2.09153 8.65595 2.21272 8.88381C2.24356 8.94187 2.60743 9.45335 3.02128 10.0204C4.71403 12.3399 6.5111 14.936 7.28173 16.1753C7.75623 16.9384 7.89135 17.042 8.20322 16.8817C8.28869 16.8377 8.44189 16.6258 8.68129 16.2205C9.56304 14.7273 10.8922 12.6396 11.9867 11.029C14.682 7.06233 17.093 4.07298 19.2648 2.00477C19.983 1.32074 20 1.30034 20 1.1191C20 0.966509 19.9741 0.910608 19.8537 0.803739L19.7074 0.673828H18.609H17.5105L17.1552 0.904064ZM17.9458 2.05242C15.0864 4.98877 11.9236 9.24284 8.67222 14.5256C8.31561 15.105 8.00695 15.585 7.98633 15.5922C7.96568 15.5994 7.93645 15.5733 7.92139 15.5343C7.82898 15.295 6.11273 12.8022 4.4708 10.5224C3.83502 9.63966 3.28985 8.88233 3.25927 8.83948C3.21088 8.7717 3.24637 8.71934 3.53069 8.43858L3.8578 8.11564L5.85971 9.50513C7.85645 10.8909 7.96036 10.9519 8.1823 10.8673C8.22171 10.8522 8.60597 10.4034 9.03623 9.86985C11.618 6.66829 14.4999 3.86763 17.153 1.98172L17.7317 1.57038H18.0735H18.4153L17.9458 2.05242ZM1.66872 3.48856C1.40434 3.56997 1.31973 3.87243 1.50883 4.06034C1.68725 4.23773 1.94175 4.20308 2.05468 3.98602C2.19229 3.72158 1.94545 3.40339 1.66872 3.48856ZM2.99146 3.52057C2.65677 3.66043 2.77395 4.1704 3.14079 4.1704C3.39295 4.1704 3.55486 3.86875 3.42858 3.63421C3.35994 3.50668 3.15324 3.45293 2.99146 3.52057ZM4.44239 3.48848C4.21581 3.53559 4.10531 3.77663 4.21427 3.98602C4.3272 4.20308 4.58171 4.23773 4.76012 4.06034C4.9012 3.92017 4.90517 3.7236 4.76937 3.60211C4.64724 3.49287 4.56263 3.46346 4.44239 3.48848ZM7.1407 3.52057C6.80642 3.66026 6.92314 4.1704 7.2894 4.1704C7.66238 4.1704 7.75713 3.62968 7.40553 3.50784C7.31407 3.47615 7.23825 3.47978 7.1407 3.52057ZM8.58504 3.48713C8.3369 3.52783 8.24404 3.89215 8.43378 4.08074C8.63889 4.28462 9.02179 4.12131 9.01864 3.83132C9.0162 3.60601 8.81821 3.44889 8.58504 3.48713ZM11.3653 3.48856C11.1009 3.56997 11.0163 3.87243 11.2054 4.06034C11.3951 4.24889 11.6787 4.19066 11.7647 3.94554C11.8587 3.67738 11.6241 3.40891 11.3653 3.48856ZM0.0899302 3.62054C-0.178147 3.9593 0.303481 4.36589 0.610885 4.06034C0.746186 3.9259 0.752139 3.77277 0.628113 3.6161C0.4943 3.44701 0.225547 3.44921 0.0899302 3.62054ZM5.64084 3.6161C5.51682 3.77277 5.52277 3.9259 5.65807 4.06034C5.86418 4.26525 6.19445 4.16367 6.24979 3.8783C6.31397 3.54724 5.85254 3.34857 5.64084 3.6161ZM9.78652 3.62054C9.51844 3.9593 10.0001 4.36589 10.3075 4.06034C10.4428 3.9259 10.4487 3.77277 10.3247 3.6161C10.1909 3.44701 9.92213 3.44921 9.78652 3.62054ZM0.131829 4.97384C-0.0119967 5.1168 -0.0264288 5.1844 0.0509635 5.35318C0.153116 5.57611 0.51419 5.61035 0.654993 5.41047C0.817039 5.18054 0.625272 4.84281 0.332661 4.84281C0.294731 4.84281 0.20435 4.90176 0.131829 4.97384ZM0.140443 6.31092C-0.105535 6.5139 0.0413571 6.91982 0.360803 6.91982C0.537867 6.91982 0.721606 6.73871 0.721606 6.56416C0.721606 6.30142 0.348806 6.13896 0.140443 6.31092ZM0.0899302 7.74469C-0.0940795 7.97726 0.0762196 8.29455 0.385067 8.29455C0.554735 8.29455 0.721606 8.12784 0.721606 7.95834C0.721606 7.64477 0.285711 7.49733 0.0899302 7.74469ZM15.3374 7.74026C15.286 7.80521 15.2439 7.90334 15.2439 7.95834C15.2439 8.12784 15.4108 8.29455 15.5805 8.29455C15.7998 8.29455 15.9385 8.16428 15.9385 7.95834C15.9385 7.63908 15.5337 7.49222 15.3374 7.74026ZM0.131829 9.098C0.059307 9.17008 0 9.26185 0 9.30197C0 9.41274 0.122763 9.625 0.204981 9.65638C0.438286 9.74536 0.721606 9.57551 0.721606 9.34662C0.721606 9.2029 0.497412 8.96697 0.360803 8.96697C0.307359 8.96697 0.20435 9.02592 0.131829 9.098ZM15.4469 9.02112C15.2186 9.15121 15.1775 9.39808 15.3547 9.57416C15.5348 9.75329 15.7878 9.70802 15.9131 9.47424C15.9942 9.32286 15.9767 9.24015 15.8337 9.098C15.6932 8.95836 15.5922 8.93828 15.4469 9.02112ZM0.144366 10.4475C-0.0593972 10.6362 -0.0092005 10.9207 0.248413 11.0374C0.461873 11.134 0.721606 10.9303 0.721606 10.6663C0.721606 10.5333 0.521812 10.3566 0.371357 10.3566C0.300504 10.3566 0.198352 10.3975 0.144366 10.4475ZM15.3547 10.4667C15.1555 10.6646 15.2557 10.9853 15.5387 11.0559C15.7496 11.1085 15.9997 10.8565 15.9463 10.6451C15.8763 10.3681 15.5522 10.2703 15.3547 10.4667ZM0.140443 11.8247C-0.111669 12.0328 0.0315252 12.4187 0.360803 12.4187C0.679618 12.4187 0.831967 12.076 0.610885 11.8563C0.479417 11.7256 0.277007 11.712 0.140443 11.8247ZM15.3547 11.8563C15.1351 12.0745 15.2859 12.4187 15.601 12.4187C15.8167 12.4187 15.9385 12.2944 15.9385 12.0745C15.9385 11.7694 15.5777 11.6346 15.3547 11.8563ZM0.239393 13.1368C0.0852397 13.1979 -0.0128987 13.3789 0.0221443 13.5375C0.0819475 13.8081 0.410233 13.8978 0.610885 13.6983C0.748892 13.5612 0.75223 13.3986 0.620131 13.2542C0.499216 13.1219 0.374198 13.0834 0.239393 13.1368ZM15.4855 13.136C15.3597 13.1859 15.2439 13.3527 15.2439 13.4842C15.2439 13.621 15.4361 13.8084 15.5765 13.8084C15.7486 13.8084 15.8279 13.7636 15.8996 13.6258C15.9894 13.4531 15.9828 13.384 15.8641 13.2542C15.7437 13.1225 15.6182 13.0834 15.4855 13.136ZM0.194879 14.5341C0.0468142 14.6052 -0.0237679 14.8086 0.0434768 14.97C0.154965 15.2376 0.551578 15.2509 0.670643 14.9912C0.764407 14.7867 0.713173 14.6403 0.510356 14.5329C0.39287 14.4707 0.326166 14.471 0.194879 14.5341ZM15.4385 14.5259C15.1292 14.6498 15.206 15.1153 15.5466 15.1807C15.6677 15.204 15.7137 15.1863 15.8284 15.0722C16.0004 14.9014 16.0018 14.7789 15.8337 14.6118C15.6979 14.4769 15.6092 14.4576 15.4385 14.5259ZM0.140443 15.9489C-0.105535 16.1519 0.0413571 16.5578 0.360803 16.5578C0.537867 16.5578 0.721606 16.3767 0.721606 16.2021C0.721606 15.9394 0.348806 15.7769 0.140443 15.9489ZM15.3547 15.9805C15.2268 16.1076 15.2132 16.2552 15.3161 16.4013C15.4702 16.6198 15.752 16.6136 15.9005 16.3883C16.1207 16.0543 15.641 15.6959 15.3547 15.9805ZM0.0899302 17.3827C-0.178147 17.7214 0.303481 18.128 0.610885 17.8225C0.746186 17.688 0.752139 17.5349 0.628113 17.3782C0.4943 17.2091 0.225547 17.2113 0.0899302 17.3827ZM15.3374 17.3782C15.286 17.4432 15.2439 17.5413 15.2439 17.5963C15.2439 17.7658 15.4108 17.9325 15.5805 17.9325C15.796 17.9325 15.9385 17.8019 15.9385 17.6043C15.9385 17.3844 15.8167 17.2601 15.601 17.2601C15.4709 17.2601 15.4089 17.2879 15.3374 17.3782ZM0.131829 18.736C-0.0111849 18.8781 -0.0286388 18.9608 0.0524517 19.1122C0.177741 19.346 0.430709 19.3913 0.610885 19.2121C0.782898 19.0412 0.731799 18.7544 0.511574 18.6547C0.343755 18.5787 0.275293 18.5934 0.131829 18.736ZM1.60106 18.6567C1.37083 18.7819 1.32906 19.0335 1.50883 19.2121C1.65929 19.3617 1.82512 19.3529 1.99249 19.1866C2.15336 19.0267 2.142 18.8695 1.95767 18.7058C1.83293 18.595 1.73844 18.582 1.60106 18.6567ZM2.99083 18.6491C2.76898 18.7401 2.72452 19.0803 2.91506 19.2293C2.98042 19.2804 3.07914 19.3222 3.13448 19.3222C3.305 19.3222 3.47273 19.1563 3.47273 18.9877C3.47273 18.726 3.22599 18.5527 2.99083 18.6491ZM4.33681 18.6767C4.03134 18.8894 4.18054 19.3222 4.55934 19.3222C4.68462 19.3222 4.87084 19.1246 4.87084 18.9917C4.87084 18.8206 4.82579 18.7418 4.68719 18.6705C4.5247 18.587 4.46417 18.588 4.33681 18.6767ZM5.74417 18.6574C5.53598 18.7576 5.4912 19.0463 5.65807 19.2121C5.83825 19.3913 6.09122 19.346 6.21651 19.1122C6.2976 18.9608 6.28014 18.8781 6.13713 18.736C5.99912 18.5988 5.905 18.58 5.74417 18.6574ZM7.14007 18.6491C6.92625 18.7368 6.88133 19.0384 7.05618 19.2121C7.27569 19.4304 7.62197 19.2805 7.62197 18.9672C7.62197 18.712 7.37856 18.5513 7.14007 18.6491ZM8.54495 18.6466C8.30357 18.7464 8.25423 19.0487 8.45177 19.2176C8.60935 19.3523 8.77027 19.3504 8.90936 19.2121C9.17685 18.9463 8.89141 18.5034 8.54495 18.6466ZM9.82842 18.736C9.67981 18.8837 9.66777 18.9574 9.76257 19.1397C9.91798 19.4384 10.3348 19.3611 10.4008 19.0214C10.4242 18.901 10.4064 18.8553 10.2916 18.7412C10.1197 18.5703 9.9965 18.5689 9.82842 18.736ZM11.2977 18.6567C11.0674 18.7819 11.0257 19.0335 11.2054 19.2121C11.3446 19.3505 11.5054 19.3523 11.6635 19.2172C11.7512 19.1422 11.7862 19.0698 11.7862 18.9636C11.7862 18.8573 11.7512 18.7849 11.6635 18.7099C11.5292 18.5951 11.4359 18.5815 11.2977 18.6567ZM12.7183 18.6358C12.4634 18.7325 12.4034 19.0664 12.6117 19.2293C12.677 19.2804 12.7757 19.3222 12.8311 19.3222C13.0016 19.3222 13.1693 19.1563 13.1693 18.9877C13.1693 18.7437 12.9287 18.556 12.7183 18.6358ZM13.9777 18.736C13.8346 18.8781 13.8172 18.9608 13.8983 19.1122C14.0236 19.346 14.2765 19.3913 14.4567 19.2121C14.6369 19.0331 14.5914 18.7816 14.3562 18.6571C14.2039 18.5765 14.1207 18.5938 13.9777 18.736ZM15.4469 18.6591C15.2186 18.7892 15.1775 19.0361 15.3547 19.2121C15.5348 19.3913 15.7878 19.346 15.9131 19.1122C15.9942 18.9608 15.9767 18.8781 15.8337 18.736C15.6932 18.5963 15.5922 18.5763 15.4469 18.6591Z" fill="#3C61C9"/>
</svg>
