<svg width="40" height="40" viewBox="0 0 40 40" fill="none" xmlns="http://www.w3.org/2000/svg">
<path fill-rule="evenodd" clip-rule="evenodd" d="M2.09559 1.06592C1.56594 1.17089 0.989403 1.52165 0.601638 1.97466C-0.0456615 2.73082 0.000942562 1.33523 0.000942562 19.9729C0.000942562 38.7215 -0.0524486 37.2246 0.644442 38.0162C0.844342 38.2434 1.23147 38.5356 1.51997 38.6774L2.03705 38.9313H20H37.963L38.48 38.6774C38.7685 38.5356 39.1557 38.2434 39.3556 38.0162C40.0524 37.2246 39.9991 38.7215 39.9991 19.9729C39.9991 1.22429 40.0524 2.72123 39.3556 1.92959C39.1557 1.70245 38.7685 1.41016 38.48 1.26845L37.963 1.01452L20.2262 1.00113C10.471 0.993799 2.31224 1.02294 2.09559 1.06592ZM37.7565 2.14967C37.9416 2.20107 38.218 2.34821 38.3706 2.47672C38.8907 2.91425 38.9131 3.02954 38.9131 5.26319V7.30382H20H1.08686V5.26319C1.08686 3.07777 1.10922 2.95054 1.56738 2.5226C2.08419 2.03981 1.14795 2.06343 19.9548 2.05963C31.7015 2.05737 37.5302 2.08678 37.7565 2.14967ZM3.93922 3.34283C3.40639 3.65232 3.15292 4.14532 3.19292 4.7938C3.22866 5.37233 3.40685 5.68462 3.888 6.01211C4.51919 6.44169 5.28078 6.36169 5.83497 5.80742C6.54353 5.09894 6.43322 4.00605 5.59009 3.38156C5.2054 3.0965 4.39594 3.07759 3.93922 3.34283ZM8.27657 3.26844C7.6918 3.52309 7.2616 4.31654 7.37326 4.93425C7.50511 5.66344 8.23594 6.31156 8.92052 6.3064C9.52592 6.30187 10.3275 5.70923 10.464 5.16537C10.5619 4.77543 10.4463 4.08297 10.2335 3.78407C9.83061 3.21831 8.9341 2.98203 8.27657 3.26844ZM12.3514 3.36102C11.8202 3.67946 11.5523 4.20487 11.604 4.82737C11.7426 6.49816 14.0231 6.83199 14.62 5.26898C15.1489 3.88398 13.6217 2.59942 12.3514 3.36102ZM25.5407 4.24785C25.2652 4.3807 25.1919 4.71507 25.3765 4.99687L25.5243 5.22247H31.0283C36.2455 5.22247 36.54 5.21387 36.682 5.05696C36.8958 4.82077 36.8711 4.44585 36.6306 4.27745C36.4539 4.15365 35.7826 4.13727 31.0879 4.1427C27.4158 4.14686 25.6821 4.1798 25.5407 4.24785ZM5.1074 4.36921C5.30105 4.56295 5.28594 4.82412 5.06858 5.04148C4.85121 5.25885 4.59005 5.27396 4.3963 5.0803C4.22807 4.91199 4.20898 4.48938 4.36273 4.33563C4.51648 4.18188 4.93908 4.20098 5.1074 4.36921ZM9.30367 4.33563C9.57597 4.60793 9.33326 5.22247 8.95337 5.22247C8.73881 5.22247 8.41683 4.91452 8.41683 4.70928C8.41683 4.32803 9.03545 4.06741 9.30367 4.33563ZM13.5233 4.36921C13.819 4.66503 13.5635 5.22247 13.1321 5.22247C12.7687 5.22247 12.5187 4.59553 12.7786 4.33563C12.9324 4.18188 13.355 4.20098 13.5233 4.36921ZM38.9131 22.5565C38.9131 38.1009 38.9539 36.9783 38.3706 37.4691C38.218 37.5976 37.9416 37.7447 37.7565 37.7961C37.2884 37.9262 2.71158 37.9262 2.24346 37.7961C2.0584 37.7447 1.78203 37.5976 1.62937 37.4691C1.04605 36.9783 1.08686 38.1009 1.08686 22.5565V8.38974H20H38.9131V22.5565ZM10.2079 14.2944C9.96699 14.4838 9.93414 14.7687 10.126 15.0058C10.2987 15.2194 10.3255 15.2225 12.3205 15.2672L14.3402 15.3125L15.7635 20.5159C16.5465 23.3777 17.1887 25.7295 17.1909 25.7419C17.193 25.7543 16.4397 25.7645 15.517 25.7645C14.0123 25.7645 13.8023 25.7833 13.4809 25.9473C12.4349 26.4809 12.3519 27.9956 13.3333 28.6457C13.6826 28.8772 13.7524 28.8876 15.1362 28.9155C16.4441 28.9418 16.5698 28.9584 16.5098 29.0965C16.4736 29.1801 16.4033 29.4317 16.3537 29.6557C16.0714 30.9306 17.3509 32.2511 18.6907 32.0674C19.9967 31.8884 20.8394 30.5664 20.4242 29.3479L20.2824 28.9318H22.1344H23.9863L23.8483 29.1987C23.6775 29.529 23.6688 30.3771 23.8322 30.7671C24.1731 31.5805 24.8874 32.0471 25.7916 32.0471C26.6958 32.0471 27.4101 31.5805 27.7509 30.7671C27.9144 30.3771 27.9057 29.529 27.7348 29.1987L27.5968 28.9318H28.8972C30.0422 28.9318 30.2156 28.9119 30.3475 28.7662C30.5612 28.5301 30.5365 28.1551 30.2961 27.9867C30.1177 27.8618 29.1818 27.8458 22.0181 27.8458H13.9411L13.7861 27.6092C13.6469 27.3969 13.6447 27.3479 13.7648 27.1341L13.8986 26.8957L21.0183 26.8504C27.1898 26.8112 28.155 26.7871 28.2659 26.6694C28.4039 26.523 31.0427 17.6089 31.0412 17.2948C31.0407 17.1905 30.9657 17.0377 30.8747 16.9554C30.7238 16.8188 30.1126 16.8056 23.9519 16.8056C17.3153 16.8056 17.1914 16.8089 17.0137 16.9866C16.9142 17.0862 16.8327 17.2491 16.8327 17.3486C16.8327 17.4481 16.9142 17.611 17.0137 17.7106C17.1913 17.8881 17.3153 17.8916 23.484 17.8916C26.9431 17.8916 29.7733 17.918 29.7733 17.9503C29.7733 17.9959 28.8477 21.1763 27.5453 25.6061C27.5017 25.7543 27.2019 25.7645 22.9038 25.7645H18.3088L16.7789 20.1338C15.8084 16.5618 15.1912 14.4442 15.0907 14.3422C14.9472 14.1964 14.7172 14.1813 12.6421 14.1813C10.9469 14.1813 10.3144 14.2107 10.2079 14.2944ZM5.94229 17.5141C5.74094 17.7366 5.75343 18.0334 5.97351 18.2535C6.14653 18.4266 6.27513 18.4345 8.90233 18.4345C11.5453 18.4345 11.6593 18.4274 11.8886 18.2469C12.1609 18.0328 12.1882 17.8381 11.9862 17.5498C11.8456 17.349 11.8388 17.3486 8.96867 17.3486C6.29675 17.3486 6.08138 17.3604 5.94229 17.5141ZM8.01477 20.1741C7.82519 20.4447 7.83741 20.6604 8.05486 20.8778C8.22716 21.0501 8.35647 21.0588 10.7495 21.0588C13.5235 21.0588 13.6655 21.0329 13.6655 20.5247C13.6655 19.9864 13.594 19.9729 10.7451 19.9729C8.17178 19.9729 8.15477 19.9742 8.01477 20.1741ZM10.2079 22.7103C9.96111 22.9044 9.93586 23.1816 10.1412 23.4427L10.3303 23.6831H12.6156C14.8873 23.6831 14.902 23.6819 15.0976 23.4737C15.3423 23.2132 15.3469 23.0118 15.1134 22.7782C14.9419 22.6067 14.8117 22.5972 12.6421 22.5972C10.9469 22.5972 10.3144 22.6266 10.2079 22.7103ZM18.9171 29.069C19.8386 29.5456 19.4607 31.0131 18.4164 31.0131C18.0682 31.0131 17.6687 30.7743 17.513 30.4731C17.0315 29.5421 17.9861 28.5876 18.9171 29.069ZM26.5382 29.2896C26.8944 29.6883 26.8881 30.2637 26.5229 30.6723C26.2893 30.9338 26.205 30.9679 25.7916 30.9679C25.3781 30.9679 25.2939 30.9338 25.0602 30.6723C24.5976 30.1546 24.7639 29.2772 25.3742 29.0158C25.7328 28.8623 26.269 28.9884 26.5382 29.2896Z" fill="white"/>
</svg>
