<svg width="40" height="40" viewBox="0 0 40 40" fill="none" xmlns="http://www.w3.org/2000/svg">
<path fill-rule="evenodd" clip-rule="evenodd" d="M22.6335 0.125549C21.23 0.317455 19.7733 0.720689 18.5069 1.26789C17.1161 1.86895 14.9719 3.25647 14.7348 3.70898C14.5946 3.97658 14.6779 4.2947 14.9429 4.50311C15.2468 4.7422 15.4822 4.7086 15.9371 4.36131C17.7372 2.98704 19.7353 2.07461 21.9617 1.61027C22.8551 1.42387 23.2287 1.39094 24.5092 1.38552C25.3706 1.38185 26.2938 1.42504 26.6767 1.48698C31.2907 2.23309 35.0782 4.97845 37.1324 9.06574C38.2725 11.3343 38.7949 14.0128 38.5713 16.4438C38.4444 17.8239 38.298 18.5389 37.8908 19.7658C37.0716 22.2343 35.5976 24.4103 33.6376 26.0448C29.3242 29.6416 23.3674 30.3424 18.3736 27.8404C15.0222 26.1613 12.5572 23.3192 11.3824 19.7797C10.3895 16.7886 10.4038 13.6879 11.424 10.7569C11.9109 9.3581 12.8442 7.64637 13.6753 6.62757C14.1882 5.99892 14.0199 5.33542 13.3476 5.33542C12.9931 5.33542 12.8511 5.45963 12.2233 6.31862C10.2343 9.04023 9.2062 12.3991 9.322 15.7977C9.45772 19.7815 10.8469 23.0537 13.6956 26.0995L14.2864 26.731L12.9578 28.0577L11.6292 29.3843L11.1118 28.8668L10.5942 28.3493L11.2786 27.6483C12.0512 26.8567 12.1387 26.595 11.7582 26.2145C11.3782 25.8345 11.1157 25.9217 10.3292 26.6894L9.63303 27.3689L9.25756 27.0229C8.55654 26.3767 8.86074 26.1522 4.44367 30.5741C0.813722 34.2079 0.53195 34.5108 0.27527 35.0549C0.0183402 35.5996 0 35.6968 0 36.5138C0 37.3221 0.0200075 37.4314 0.261598 37.9412C0.719854 38.9085 1.44329 39.5413 2.44367 39.8504C3.41662 40.1509 4.55096 39.9914 5.38052 39.4376C5.58493 39.3011 7.44963 37.4892 9.52441 35.411C13.8058 31.1227 13.5938 31.4137 12.9479 30.7129L12.599 30.3345L13.9789 28.9546L15.3588 27.5747L16.1161 28.084C18.7815 29.8761 21.8754 30.761 25.0927 30.6514C27.1472 30.5815 28.8369 30.2184 30.5867 29.4711C35.5328 27.3584 38.9339 22.9961 39.8174 17.6317C39.8816 17.2412 39.9272 16.291 39.9272 15.3392C39.9272 13.5834 39.8508 12.9379 39.4657 11.4379C38.2902 6.85924 34.8931 2.97529 30.4751 1.15877C28.0406 0.157811 25.1669 -0.220831 22.6335 0.125549ZM23.6756 2.59398C20.622 2.79247 17.9009 4.05527 15.6249 6.33029C13.7551 8.19916 12.6479 10.2298 12.0768 12.8382C11.8539 13.8559 11.8534 16.8181 12.0759 17.8401C12.6421 20.4409 13.7497 22.4722 15.6254 24.3486C17.4942 26.2183 19.5249 27.3255 22.1333 27.8966C23.1537 28.1201 26.1148 28.1201 27.1352 27.8966C29.7432 27.3256 31.7736 26.2187 33.6436 24.3486C35.4808 22.5115 36.5604 20.5621 37.1514 18.0143C37.4163 16.8728 37.4582 14.5072 37.2366 13.2134C36.9274 11.408 36.2762 9.77325 35.2456 8.21509C34.5137 7.10867 32.8943 5.48098 31.8075 4.75954C29.9219 3.50765 27.7816 2.7412 25.843 2.62332C25.4304 2.59823 24.9802 2.56797 24.8427 2.55604C24.7051 2.54412 24.1799 2.56121 23.6756 2.59398ZM26.4266 4.04185C30.6385 4.73203 34.0995 7.64029 35.4563 11.6294C35.9143 12.9761 36.0135 13.6366 36.0135 15.3392C36.0135 17.0417 35.9143 17.7022 35.4563 19.0489C34.2426 22.6173 31.2721 25.397 27.6274 26.3747C22.1105 27.8545 16.3826 25.0858 14.1244 19.8476C12.9053 17.02 12.9053 13.6584 14.1244 10.8307C15.6755 7.2328 18.916 4.69676 22.8002 4.04085C23.6726 3.89355 25.5247 3.89405 26.4266 4.04185ZM23.6339 6.72294C22.421 6.96428 21.4353 7.39536 20.5555 8.06928C18.2054 9.86929 17.37 12.9775 18.4378 15.9487C19.1835 18.0237 20.8502 20.4475 23.1337 22.7781C24.7319 24.4092 24.5365 24.4092 26.1348 22.7781C29.0472 19.8056 30.8222 16.8823 31.2226 14.3982C31.3476 13.6233 31.287 12.3501 31.0908 11.6294C30.481 9.38819 28.6786 7.55542 26.4533 6.91401C25.8522 6.7407 24.1306 6.62407 23.6339 6.72294ZM25.7006 8.13364C27.8102 8.5623 29.4252 10.1963 29.8509 12.3327C30.1056 13.6113 29.8811 14.8433 29.0938 16.4874C28.2954 18.1546 27.0681 19.8684 25.5443 21.4439L24.6356 22.3835L23.7387 21.4621C22.2355 19.9176 20.9745 18.1576 20.1747 16.4874C19.3874 14.8433 19.1629 13.6113 19.4176 12.3327C20.0037 9.39169 22.7754 7.53925 25.7006 8.13364ZM23.5922 9.50682C22.6357 9.81369 21.7971 10.6596 21.4742 11.6431C20.9055 13.3754 21.8647 15.26 23.6059 15.8315C25.665 16.5075 27.8117 15.0444 27.9513 12.8697C28.1004 10.546 25.8248 8.79038 23.5922 9.50682ZM25.5197 10.9061C26.2174 11.2648 26.5877 11.877 26.5877 12.6715C26.5877 13.8176 25.7806 14.6244 24.6342 14.6244C23.8244 14.6244 23.2234 14.2509 22.8334 13.5052C22.6118 13.0815 22.6264 12.2341 22.8629 11.7843C23.0902 11.352 23.6368 10.8774 24.0372 10.7645C24.4626 10.6445 25.1361 10.7089 25.5197 10.9061ZM10.1707 29.8449L11.6698 31.3457L8.21083 34.8068C5.79184 37.2273 4.63899 38.3239 4.37664 38.4538C3.89088 38.6944 2.9772 38.7081 2.54262 38.4814C1.54066 37.9586 1.07982 36.8761 1.41695 35.8375C1.55317 35.4178 1.79276 35.1575 5.0724 31.8662C7.00271 29.929 8.60223 28.3441 8.6269 28.3441C8.6515 28.3441 9.34626 29.0194 10.1707 29.8449Z" fill="white"/>
</svg>
