<svg width="40" height="40" viewBox="0 0 40 40" fill="none" xmlns="http://www.w3.org/2000/svg">
<path fill-rule="evenodd" clip-rule="evenodd" d="M1.35653 5.12008C0.698404 5.35513 0.122974 6.02768 0.0318165 6.66828C0.00358884 6.86648 -0.0080649 12.7777 0.00591946 19.8044C0.0341472 33.9974 -0.0192006 32.7754 0.599046 33.3937C1.09402 33.8887 1.30836 33.954 2.55185 33.9891C3.67768 34.0209 3.69373 34.0188 3.91144 33.801C4.20019 33.5123 4.20356 33.1192 3.91973 32.8353C3.72308 32.6386 3.64608 32.6234 2.84483 32.6234C1.89812 32.6234 1.61006 32.5395 1.46513 32.2214C1.39676 32.0712 1.36931 29.2342 1.36931 22.3037V12.5964H7.71795H14.0667L14.2785 12.3845C14.5589 12.1042 14.5589 11.7075 14.2785 11.4272L14.0667 11.2153H7.71795H1.36931V9.10441C1.36931 6.86544 1.40306 6.6448 1.77132 6.47699C1.92316 6.40785 6.54663 6.38117 18.383 6.38117H34.7842L34.9961 6.16925C35.2765 5.88896 35.2765 5.49222 34.9961 5.21192L34.7842 5L18.2278 5.0038C4.84882 5.00682 1.61101 5.02918 1.35653 5.12008ZM36.1188 5.20355C35.83 5.4923 35.8267 5.88542 36.1105 6.16925C36.3072 6.36598 36.3842 6.38117 37.1854 6.38117C38.1321 6.38117 38.4202 6.46508 38.5651 6.78318C38.627 6.91905 38.6609 7.74128 38.6609 9.10441V11.2153H27.1329H15.6048L15.3929 11.4272C15.1126 11.7075 15.1126 12.1042 15.3929 12.3845L15.6048 12.5964H27.1329H38.6609V22.3037C38.6609 29.2342 38.6335 32.0712 38.5651 32.2214C38.5124 32.3371 38.3746 32.4749 38.2589 32.5276C38.1073 32.5967 33.7603 32.6234 22.6831 32.6234H7.31775L7.10592 32.8353C6.82519 33.116 6.82554 33.5124 7.10678 33.7936L7.31957 34.0064L22.9687 33.984C37.5836 33.9629 38.6357 33.9516 38.8892 33.8129C39.2363 33.6229 39.6604 33.1988 39.8504 32.8517C39.9891 32.5983 39.9989 31.7103 39.9989 19.5023C39.9989 4.96452 40.0506 6.23036 39.4312 5.61091C38.9362 5.11593 38.7219 5.05059 37.4784 5.01545C36.3526 4.98368 36.3365 4.98584 36.1188 5.20355ZM3.25746 7.90771C2.58629 8.32422 2.59415 9.29259 3.27187 9.69287C3.9401 10.0876 4.82224 9.57858 4.82224 8.79822C4.82224 8.01605 3.91489 7.49966 3.25746 7.90771ZM6.71038 7.90771C6.03922 8.32422 6.04708 9.29259 6.7248 9.69287C7.39303 10.0876 8.27516 9.57858 8.27516 8.79822C8.27516 8.01605 7.36782 7.49966 6.71038 7.90771ZM10.1633 7.90771C9.49215 8.32422 9.5 9.29259 10.1777 9.69287C10.846 10.0876 11.7281 9.57858 11.7281 8.79822C11.7281 8.01605 10.8207 7.49966 10.1633 7.90771ZM25.7046 15.5225C25.1763 15.6915 24.6017 16.056 24.2072 16.4724L23.9537 16.74H22.8005C21.6913 16.74 21.6394 16.748 21.4356 16.9519C21.3019 17.0854 21.2236 17.2624 21.2236 17.4305C21.2236 17.5987 21.3019 17.7757 21.4356 17.9092C21.6316 18.1053 21.7103 18.1211 22.493 18.1211H23.3386V18.8117V19.5023H17.5805C13.4849 19.5023 11.7607 19.4742 11.6085 19.4048C11.1291 19.1864 11.1291 18.4371 11.6085 18.2187C11.758 18.1505 13.0703 18.1211 15.966 18.1211H20.1093L20.3211 17.9092C20.6027 17.6276 20.6015 17.2322 20.3182 16.9489L20.1033 16.734L15.6783 16.7585C10.7905 16.7857 11.0324 16.7583 10.4399 17.3509C9.98902 17.8017 9.8756 18.0954 9.8756 18.8117C9.8756 19.5342 9.9854 19.8136 10.4486 20.2703C11.0655 20.8785 10.5752 20.8378 17.597 20.864L23.9408 20.8879L24.2871 21.2175C24.7903 21.6965 25.0922 21.8831 25.6916 22.085C27.8685 22.8183 30.2013 21.1251 30.2013 18.8117C30.2013 16.5134 27.8905 14.8231 25.7046 15.5225ZM27.6653 16.9836C28.3877 17.3551 28.7711 17.989 28.7711 18.8117C28.7711 19.9985 27.9354 20.8339 26.7483 20.8339C25.5613 20.8339 24.7255 19.9985 24.7255 18.8117C24.7255 17.8449 25.2625 17.1323 26.2299 16.8156C26.5623 16.7067 27.2931 16.7923 27.6653 16.9836ZM11.8576 23.1312C9.67325 23.832 8.77549 26.6258 10.1533 28.4347C11.4905 30.1901 13.9727 30.3359 15.4777 28.7475L15.7312 28.4799H19.9921H24.2528L24.4647 28.268C24.5983 28.1344 24.6766 27.9575 24.6766 27.7893C24.6766 27.6212 24.5983 27.4442 24.4647 27.3107L24.2528 27.0987H20.2996H16.3464V26.4082V25.7176H22.1044C26.2 25.7176 27.9242 25.7457 28.0764 25.8151C28.3803 25.9535 28.5249 26.3377 28.3931 26.6559C28.2406 27.0241 27.9765 27.0987 26.8266 27.0987C25.8421 27.0987 25.7805 27.1092 25.5791 27.3107C25.2955 27.5941 25.2986 27.9876 25.5867 28.2757C25.8057 28.4947 25.8097 28.4952 27.1189 28.4648C28.5529 28.4317 28.7329 28.3812 29.2451 27.869C29.6959 27.4181 29.8093 27.1245 29.8093 26.4082C29.8093 25.6918 29.6959 25.3982 29.2451 24.9473C28.6409 24.3431 29.1125 24.3821 22.0879 24.3558L15.7442 24.332L15.3979 24.0023C14.8946 23.5233 14.5927 23.3368 13.9933 23.1349C13.3265 22.9103 12.5501 22.9089 11.8576 23.1312ZM13.8535 24.5801C14.576 24.9515 14.9594 25.5854 14.9594 26.4082C14.9594 27.5949 14.1236 28.4304 12.9366 28.4304C11.7496 28.4304 10.9138 27.5949 10.9138 26.4082C10.9138 25.4413 11.4508 24.7287 12.4182 24.412C12.7506 24.3032 13.4814 24.3887 13.8535 24.5801ZM5.03416 32.8353C4.60591 33.2635 4.90934 34.0046 5.51282 34.0046C5.8677 34.0046 6.20341 33.6689 6.20341 33.314C6.20341 32.9591 5.8677 32.6234 5.51282 32.6234C5.34466 32.6234 5.1677 32.7017 5.03416 32.8353Z" fill="white"/>
</svg>
