<svg width="40" height="40" viewBox="0 0 40 40" fill="none" xmlns="http://www.w3.org/2000/svg">
<path fill-rule="evenodd" clip-rule="evenodd" d="M23.6505 0.0165063C23.5782 0.0366253 23.024 0.719725 22.4191 1.53451L21.3193 3.01598L19.9212 3.01945L18.5232 3.02284L17.453 1.57995C16.8644 0.786315 16.3285 0.115918 16.2622 0.090276C16.1957 0.0645552 16.0671 0.0435683 15.9763 0.0435683C15.7333 0.0435683 10.4295 2.00703 10.2567 2.16096C10.1196 2.28309 10.1129 2.38211 10.16 3.59398C10.1879 4.30998 10.2323 5.16532 10.2589 5.49472L10.307 6.09363L9.8162 6.47455C9.54621 6.68403 9.07515 7.07994 8.76933 7.35435C8.46359 7.62875 8.15839 7.85353 8.09111 7.85385C8.02383 7.85417 7.21918 7.6768 6.30304 7.45968C4.85514 7.11647 4.61066 7.07781 4.43408 7.16381C4.14672 7.30377 1.29309 12.281 1.29106 12.646C1.28973 12.8674 1.45371 13.0767 2.54133 14.2428C3.2298 14.981 3.7931 15.5957 3.7931 15.6091C3.7931 15.6224 3.72574 15.9512 3.64351 16.3397C3.56121 16.7282 3.47132 17.2414 3.44378 17.4801C3.33691 18.4052 3.47249 18.272 1.75444 19.1392C0.710941 19.6659 0.155627 19.991 0.0673781 20.1268C-0.0585807 20.3206 -0.0432466 20.457 0.424053 23.3033C0.849105 25.8919 0.935007 26.3007 1.08702 26.4586C1.24443 26.6221 1.43853 26.6613 3.05033 26.8554L4.83902 27.0708L5.35295 27.9758C5.63562 28.4736 5.94598 28.9928 6.0426 29.1297C6.13929 29.2666 6.21839 29.4276 6.21839 29.4876C6.21839 29.5475 5.91914 30.2989 5.55339 31.1574C5.18764 32.0158 4.88839 32.8202 4.88839 32.945C4.88839 33.0705 4.9671 33.2585 5.06442 33.3653C5.16128 33.4717 6.21675 34.379 7.41007 35.3816C8.83943 36.5826 9.64024 37.2045 9.75713 37.2043C9.85469 37.2042 10.6268 36.7463 11.4728 36.1868L13.0112 35.1696L13.7583 35.4728C14.1692 35.6395 14.7506 35.8496 15.0502 35.9396L15.5949 36.1032L15.753 36.5947C15.84 36.8651 16.0733 37.6365 16.2715 38.3092C16.542 39.2267 16.6809 39.5764 16.8278 39.7096L17.0236 39.8871H20.0348H23.0461L23.2185 39.7096C23.3361 39.5886 23.5516 38.9867 23.8954 37.8185C24.1728 36.876 24.4463 36.0869 24.5032 36.065C24.56 36.043 24.8051 36.153 25.0478 36.3096C26.1911 37.0471 27.8603 37.5202 29.3194 37.5202C30.7168 37.5202 31.9133 37.2336 33.1841 36.5945L33.7963 36.2866L35.3998 37.9768C36.3515 38.9799 37.1305 39.7335 37.3165 39.8307C37.7528 40.0586 38.5289 40.056 38.971 39.8252C39.3989 39.6017 39.8175 39.0975 39.9392 38.6591C40.0551 38.2417 40.0008 37.6352 39.8152 37.2732C39.7431 37.1327 38.9504 36.2576 38.0535 35.3287L36.4228 33.6397L36.7628 32.9565C37.1821 32.1138 37.4688 31.2142 37.5947 30.3457C37.7107 29.5454 37.6503 27.9927 37.4752 27.2717C37.4077 26.9942 37.363 26.7567 37.3757 26.7439C37.3884 26.731 37.6963 26.6829 38.0598 26.637C38.5235 26.5783 38.7651 26.5086 38.8694 26.4034C38.988 26.2839 39.1204 25.644 39.5231 23.2431C39.9993 20.4055 40.021 20.2214 39.9019 20.0381C39.8197 19.9116 39.2186 19.5631 38.1831 19.0418L36.5906 18.2399L36.5371 17.7613C36.487 17.3136 36.228 15.9409 36.1397 15.6558C36.1129 15.5695 36.5082 15.0885 37.3539 14.1783C38.4523 12.9962 38.6075 12.7968 38.6053 12.5705C38.6018 12.2138 35.7475 7.22677 35.4677 7.08838C35.303 7.00696 35.0113 7.0554 33.4847 7.41762L31.6948 7.84241L31.1833 7.36957C30.9019 7.10952 30.4292 6.71283 30.1329 6.48804L29.5941 6.07927L29.6433 4.93525C29.6702 4.30604 29.7135 3.47169 29.7394 3.08115C29.7806 2.46045 29.7681 2.34826 29.6399 2.18991C29.5344 2.05949 28.7461 1.73483 26.824 1.03027C24.0541 0.0148494 23.8692 -0.0441663 23.6505 0.0165063ZM16.8751 2.76413L17.948 4.21554L19.9263 4.20063L21.9046 4.18572L22.9216 2.82788C23.481 2.08111 23.9772 1.43162 24.0243 1.38452C24.0858 1.32298 24.7216 1.52251 26.2931 2.09681C27.4938 2.53557 28.4986 2.91885 28.5258 2.94844C28.5531 2.97803 28.5315 3.76559 28.4778 4.69856C28.4242 5.63153 28.4082 6.47037 28.4422 6.5626C28.4763 6.65484 28.8324 6.97974 29.2335 7.28452C29.6346 7.58938 30.2563 8.11453 30.615 8.4515C31.0935 8.90114 31.3227 9.06383 31.4755 9.06281C31.5902 9.06194 32.4141 8.89002 33.3066 8.68062C34.199 8.47131 34.9422 8.31517 34.9582 8.33363C35.002 8.38436 37.2869 12.3839 37.303 12.438C37.3106 12.4638 36.8146 13.0253 36.2005 13.6858C35.5865 14.3463 35.0287 14.972 34.9609 15.0763C34.847 15.2517 34.8526 15.3303 35.0348 16.1166C35.2176 16.9058 35.316 17.473 35.4422 18.4663C35.4697 18.6832 35.5507 18.927 35.6223 19.0079C35.6937 19.0888 36.4211 19.4922 37.2387 19.9044C38.0562 20.3164 38.7326 20.6601 38.7416 20.6681C38.7669 20.69 37.9791 25.399 37.9444 25.4341C37.9168 25.4619 36.9321 25.5989 36.921 25.5766C36.7532 25.2376 36.1841 24.3386 36.0549 24.2083C35.83 23.9815 35.5026 23.9781 35.2682 24.2001C35.0242 24.4314 35.0403 24.712 35.3231 25.1618C36.0844 26.3724 36.4172 27.4373 36.4747 28.8471C36.5623 30.9931 35.9044 32.6869 34.3904 34.2138C33.2952 35.3182 32.1939 35.9195 30.7117 36.2221C29.7649 36.4154 28.3319 36.349 27.3976 36.0686C24.7286 35.2676 22.7676 33.0378 22.3309 30.3076C22.1986 29.481 22.2748 27.936 22.483 27.224C23.0696 25.2166 24.4382 23.5808 26.2736 22.693C27.4575 22.1204 27.9334 22.0167 29.376 22.0167C30.881 22.0167 31.3994 22.1372 32.6524 22.7781C33.6682 23.2977 33.904 23.3378 34.1427 23.0317C34.3555 22.759 34.3473 22.5925 34.107 22.3045C33.9001 22.0566 32.5578 21.3478 31.9791 21.1808L31.6482 21.0854L31.6963 20.4035C31.7983 18.9527 31.424 16.8352 30.7984 15.3253C30.1934 13.8653 29.3803 12.6617 28.2031 11.4838C26.6053 9.88508 24.6211 8.80023 22.4097 8.31627C21.7122 8.1636 21.361 8.13725 20.0269 8.13725C18.7043 8.13725 18.3391 8.16423 17.6659 8.31177C16.5002 8.56733 15.91 8.79763 15.7685 9.05231C15.6185 9.32222 15.722 9.65714 16.005 9.81731C16.1861 9.91988 16.2789 9.91001 16.9567 9.71608C18.0375 9.4068 18.9548 9.27528 20.0327 9.27496C25.0171 9.27338 29.2922 12.7987 30.319 17.7574C30.4879 18.573 30.597 20.08 30.5179 20.5052L30.4642 20.7938L29.4312 20.7948C28.7094 20.7955 28.1742 20.8428 27.6549 20.9516C27.2461 21.0373 26.9103 21.1078 26.9086 21.1083C26.9069 21.1089 26.904 20.5857 26.9021 19.9456C26.8979 18.5606 26.7564 17.9196 26.2054 16.7908C25.3405 15.0188 23.7473 13.6777 21.8654 13.1375C21.0589 12.906 19.6152 12.8443 18.7725 13.0054C15.5238 13.6264 13.107 16.5268 13.1047 19.8075C13.1039 20.9997 13.348 22.0114 13.8955 23.0851C14.3214 23.9203 14.5785 24.2127 14.8875 24.2127C15.4978 24.2127 15.6184 23.6657 15.1655 22.9517C13.1405 19.7593 14.7343 15.4701 18.3775 14.3076C19.0857 14.0817 20.4294 14.0313 21.2085 14.2014C24.104 14.8338 26.0955 17.649 25.7105 20.5653C25.5901 21.4776 25.4675 21.7729 25.1379 21.9447C24.1339 22.4681 22.8359 23.777 22.1874 24.9201C21.9452 25.347 21.9331 25.3556 21.3754 25.4993C20.6493 25.6866 19.3708 25.6861 18.6578 25.4984C18.3781 25.4248 17.9253 25.2592 17.6515 25.1305C17.0589 24.8519 16.8132 24.8377 16.57 25.068C16.3745 25.2533 16.3384 25.5216 16.4745 25.7781C16.5924 26.0003 17.5712 26.4411 18.3995 26.645C19.1312 26.8251 20.5336 26.8868 21.1132 26.7642C21.4057 26.7024 21.4151 26.7069 21.3634 26.883C21.172 27.5351 21.0706 28.4896 21.0953 29.4083L21.1222 30.4111L20.6137 30.4668C19.9289 30.5417 18.3965 30.3887 17.4776 30.1535C15.4941 29.646 13.9011 28.7041 12.4336 27.1712C11.0291 25.7042 10.1411 23.9956 9.6911 21.8942C9.49191 20.9641 9.48972 18.8161 9.68703 17.8745C10.2423 15.2244 11.6691 12.9134 13.6744 11.4163C14.1658 11.0494 14.3592 10.8547 14.3948 10.6911C14.4781 10.3088 14.2018 9.98473 13.7927 9.98473C13.5173 9.98473 12.3499 10.9123 11.5421 11.773C10.0194 13.3957 9.03995 15.2995 8.54957 17.5902C8.3025 18.7444 8.30313 21.0315 8.5509 22.1893C9.16958 25.0809 10.7509 27.5819 13.0723 29.341C13.8421 29.9243 15.4721 30.7753 16.4072 31.0818C17.6601 31.4927 19.2234 31.7112 20.6002 31.6677L21.4083 31.6423L21.6691 32.291C21.9963 33.1054 22.3878 33.7579 23.0165 34.5368C23.4453 35.0681 23.4983 35.1692 23.4303 35.3272C23.3658 35.4771 23.1634 36.1411 22.4431 38.5667C22.4046 38.6964 22.2377 38.7045 20.0052 38.685L17.6084 38.6642L17.0965 36.9879C16.815 36.066 16.5318 35.2627 16.4672 35.2027C16.4027 35.1428 15.9336 34.9632 15.4247 34.8038C14.9159 34.6443 14.1838 34.3736 13.7978 34.2023C13.4119 34.031 13.0343 33.8909 12.9589 33.8909C12.8835 33.8909 12.1454 34.3348 11.3187 34.8774L9.81565 35.8639L7.98095 34.3126C6.97187 33.4593 6.15885 32.7402 6.17411 32.7146C6.18944 32.6889 6.50559 31.9437 6.87682 31.0587C7.32331 29.9939 7.53486 29.396 7.50207 29.2918C7.47477 29.2051 7.2511 28.825 7.00505 28.447C6.75892 28.069 6.37392 27.3993 6.14947 26.9586C5.92509 26.518 5.66394 26.1084 5.56919 26.0485C5.47101 25.9863 4.68005 25.8544 3.72941 25.7417C2.81234 25.6329 2.04102 25.5228 2.01536 25.4969C1.97428 25.4555 1.21431 21.0346 1.2136 20.8332C1.21352 20.7898 1.90246 20.4023 2.74467 19.9719C3.59727 19.5363 4.32001 19.1166 4.37525 19.0251C4.42985 18.9348 4.51521 18.4907 4.56489 18.0384C4.61457 17.5861 4.74592 16.8081 4.85678 16.3095C5.01388 15.6035 5.03978 15.3619 4.97414 15.2166C4.92782 15.1141 4.37626 14.482 3.7485 13.8121C3.12067 13.1421 2.61863 12.5445 2.63287 12.4841C2.64703 12.4236 3.16917 11.4816 3.7931 10.3907C4.54815 9.0707 4.97046 8.40724 5.05597 8.40708C5.12662 8.40693 5.8571 8.56654 6.67927 8.76181C7.50145 8.95708 8.27926 9.11685 8.40788 9.11685C8.59338 9.11685 8.7831 8.98201 9.32723 8.46334C9.70432 8.10388 10.2951 7.59372 10.6402 7.32965C10.9852 7.06558 11.3167 6.78975 11.3768 6.71677C11.4695 6.6041 11.4714 6.31455 11.3898 4.80475C11.337 3.8261 11.3153 3.00359 11.3418 2.97692C11.3848 2.93361 15.6677 1.32487 15.7631 1.31627C15.7846 1.31438 16.285 1.96592 16.8751 2.76413ZM28.1243 23.1505C26.8729 23.4281 25.8683 24.0111 24.9557 24.9896C24.2928 25.7004 23.9549 26.2578 23.6546 27.1366C22.671 30.0144 23.9022 33.1768 26.5387 34.5451C28.1523 35.3824 29.7077 35.503 31.3914 34.9213C32.236 34.6296 32.7843 34.2909 33.5072 33.6147C36.5909 30.7299 35.9181 25.6735 32.1904 23.7168C30.9606 23.0713 29.4377 22.8592 28.1243 23.1505ZM30.9016 24.4545C31.6786 24.705 32.3499 25.1426 32.9511 25.7908C33.5195 26.4036 33.7694 26.8251 34.0322 27.6145C34.623 29.3896 34.1678 31.2811 32.8257 32.6275C31.846 33.6102 30.7727 34.0658 29.4151 34.0749C28.5306 34.0808 28.0262 33.962 27.1854 33.5498C25.2798 32.6153 24.1894 30.4527 24.5533 28.3294C24.8903 26.3634 26.4216 24.7436 28.359 24.3038C29.0818 24.1397 30.1151 24.201 30.9016 24.4545ZM35.9094 35.7837C35.6535 36.0445 35.4241 36.2578 35.3996 36.2578C35.3751 36.2578 35.2234 36.099 35.0626 35.9049L34.77 35.552L35.222 35.0869L35.674 34.6217L36.0243 34.9656L36.3746 35.3096L35.9094 35.7837ZM37.9553 36.9087C38.3477 37.3101 38.7079 37.7161 38.7557 37.8108C39.0608 38.4163 38.4375 39.0623 37.846 38.7538C37.7219 38.6891 37.309 38.294 36.9284 37.8759L36.2364 37.1157L36.696 36.6472C36.9487 36.3896 37.1749 36.1789 37.1986 36.1789C37.2224 36.1789 37.5629 36.5074 37.9553 36.9087Z" fill="white"/>
</svg>
