<svg width="366" height="50" viewBox="0 0 366 50" fill="none" xmlns="http://www.w3.org/2000/svg">
<path fill-rule="evenodd" clip-rule="evenodd" d="M104.92 30.3437C104.537 31.107 104.347 31.6787 103.584 32.6325C101.866 34.5413 99.7671 34.5413 99.3849 34.5413C94.9968 34.5413 93.088 29.7699 93.088 25.9534C93.088 22.7096 94.6145 17.5571 99.1943 17.5571C100.339 17.5571 101.484 17.9382 102.248 18.5109C103.584 19.4648 104.156 20.4186 104.728 21.3725L110.835 17.9371C107.21 12.0212 101.866 11.0674 98.8121 11.0674C89.2703 11.0674 84.5 18.1287 84.5 26.3356C84.5 37.9767 93.0879 41.2205 98.6216 41.2205C101.866 41.2205 104.537 40.0761 106.637 38.5484C108.927 37.0229 110.072 35.1141 111.217 33.5864L104.92 30.3437V30.3437Z" fill="#4B9EDA"/>
<path fill-rule="evenodd" clip-rule="evenodd" d="M113.697 40.2664H121.904V11.8315H113.697V40.2664Z" fill="#A3C34E"/>
<path fill-rule="evenodd" clip-rule="evenodd" d="M128.583 12.4046H124.385V17.5572H128.583V31.2976C128.583 33.9698 128.583 36.0691 129.729 37.5946C131.446 40.2667 134.691 40.4572 137.553 40.4572C139.079 40.4572 140.224 40.2667 141.942 40.0762V33.397L138.889 33.5875C136.789 33.5875 136.789 32.0598 136.789 30.3438V17.5572H142.324V12.5952H136.789V3.625H128.583V12.4046V12.4046Z" fill="#C82E37"/>
<path fill-rule="evenodd" clip-rule="evenodd" d="M162.361 11.8315L157.782 32.2523L153.01 11.8315H144.041L152.628 39.3125C152.818 39.8842 153.01 40.4569 153.01 41.2213C153.01 43.3207 150.911 43.3207 149.575 43.3207H146.521V49.9998H152.628C154.727 49.8093 156.636 49.8093 158.544 47.7111C160.07 45.9928 160.643 44.2745 161.216 42.5574L171.33 11.8338H162.361V11.8315V11.8315Z" fill="#E3A537"/>
<path fill-rule="evenodd" clip-rule="evenodd" d="M176.865 12.5961H172.285V17.5581H176.865V40.2677H185.07V17.557H190.604V12.595H185.07C185.07 8.77741 185.07 8.01411 188.316 8.01411H190.415V1.90771C188.724 1.52932 186.996 1.33726 185.263 1.33496C181.446 1.33496 179.156 2.86156 178.01 4.1965C177.057 5.7231 176.866 7.6319 176.866 8.96796V12.5961H176.865Z" fill="#4B9EDA"/>
<path fill-rule="evenodd" clip-rule="evenodd" d="M207.399 11.0685C196.52 10.4958 191.177 17.3666 191.177 25.9534C191.177 36.4502 198.428 41.03 206.442 41.03C217.511 41.03 221.518 33.2064 221.518 25.9534C221.52 20.8009 219.038 11.6413 207.399 11.0685V11.0685ZM205.872 17.5571C207.017 17.5571 209.116 17.5571 210.834 19.2743C212.362 20.8009 213.123 23.0908 213.123 26.3367C213.123 30.7249 210.834 34.3508 206.444 34.3508C201.675 34.3508 199.574 30.5343 199.574 25.9534C199.574 24.0457 199.957 21.9464 200.911 20.4187C202.055 18.7026 203.582 17.7488 205.872 17.5571Z" fill="#E3A537"/>
<path fill-rule="evenodd" clip-rule="evenodd" d="M232.781 12.0232H224.384V40.2675H232.781V24.9993C232.781 21.3733 232.781 17.9379 237.169 17.9379C238.697 17.9379 240.223 18.5107 240.986 20.0373C241.176 20.8006 241.369 21.7555 241.369 24.2371V40.2675H249.574V20.8006C249.574 16.4113 248.81 13.9309 245.757 12.4043C244.422 11.4493 242.514 11.2588 240.795 11.2588C238.696 11.2588 236.979 11.6399 235.644 12.2126C234.116 12.9759 233.543 13.5487 232.781 14.5025V12.0232Z" fill="#A3C34E"/>
<path fill-rule="evenodd" clip-rule="evenodd" d="M274.572 29.771C273.428 31.8703 271.9 34.733 267.319 34.733C262.931 34.733 260.833 31.2987 261.023 27.6727H281.252C281.061 24.6195 280.868 19.0848 277.245 15.0766C273.428 11.0696 268.657 10.8779 266.938 10.8779C255.678 10.8779 252.435 19.6564 252.435 26.5272C252.435 35.8763 258.35 41.2216 266.748 41.2216C271.329 41.2216 274.952 39.5033 277.434 37.2145C278.96 35.8774 279.913 34.5424 280.868 33.0147L274.572 29.771V29.771ZM261.024 22.5191C261.214 21.3736 261.595 20.0375 262.742 18.7026C263.504 17.9393 264.841 16.9843 266.939 16.9843C268.274 16.9843 269.993 17.5571 270.947 18.5109C272.091 19.6564 272.474 21.3725 272.474 22.5191H261.024V22.5191Z" fill="#C82E37"/>
<path fill-rule="evenodd" clip-rule="evenodd" d="M113.697 0H121.904V8.20575H113.697V0Z" fill="#A3C34E"/>
</svg>
