<svg width="366" height="50" viewBox="0 0 366 50" fill="none" xmlns="http://www.w3.org/2000/svg">
<path d="M173.5 12.4798V33.1512C173.5 33.4433 173.493 33.7319 173.479 34.017C173.479 34.1141 173.465 34.2059 173.463 34.2977C173.449 34.4893 173.44 34.6808 173.421 34.8697C173.421 34.9825 173.398 35.0953 173.384 35.2081C173.367 35.3734 173.349 35.5387 173.326 35.704C173.309 35.8247 173.284 35.948 173.268 36.0687C173.251 36.1893 173.219 36.373 173.188 36.5252C173.158 36.6773 173.137 36.7744 173.109 36.8977C173.082 37.021 173.049 37.1837 173.014 37.3227C172.979 37.4618 172.949 37.5851 172.914 37.711C172.879 37.837 172.842 37.9734 172.805 38.1124C172.768 38.2515 172.724 38.3748 172.679 38.5034C172.635 38.6319 172.596 38.7657 172.552 38.8838C172.507 39.0019 172.456 39.1461 172.407 39.2747C172.359 39.4033 172.317 39.5187 172.266 39.6368L172.208 39.7889C172.168 39.8781 172.124 39.9673 172.087 40.0513C172.049 40.1353 172.001 40.2454 171.954 40.3425C171.908 40.4396 171.824 40.6049 171.759 40.7465L171.603 41.0456C171.536 41.1768 171.464 41.308 171.392 41.4313C171.32 41.5546 171.278 41.6333 171.217 41.733C171.157 41.8327 171.064 41.9954 170.985 42.1082C170.906 42.221 170.864 42.305 170.799 42.402C170.734 42.4991 170.629 42.6513 170.538 42.7772C170.448 42.9031 170.413 42.9609 170.348 43.0553C170.283 43.1498 170.15 43.3177 170.05 43.4436C169.985 43.5249 169.922 43.6115 169.857 43.706C169.741 43.8476 169.625 43.9919 169.499 44.131C169.444 44.1966 169.39 44.2648 169.334 44.3278C169.153 44.5377 168.965 44.7423 168.774 44.9417C168.542 45.1778 168.309 45.4061 168.077 45.6265C164.977 48.5387 161.265 49.9965 156.94 50C152.39 50 148.515 48.1862 145.317 44.5586C142.118 40.9311 140.512 36.5584 140.5 31.4406V20.5658H141.797C143.954 20.5884 146.017 21.5657 147.542 23.2874C149.067 25.0091 149.932 27.3376 149.952 29.772V31.4432C149.903 32.5096 150.047 33.5761 150.375 34.5777C150.703 35.5794 151.208 36.4952 151.859 37.2695C152.511 38.0438 153.295 38.6604 154.165 39.0817C155.034 39.5031 155.97 39.7204 156.916 39.7204C157.862 39.7204 158.799 39.5031 159.668 39.0817C160.537 38.6604 161.322 38.0438 161.973 37.2695C162.625 36.4952 163.13 35.5794 163.458 34.5777C163.786 33.5761 163.93 32.5096 163.881 31.4432V27.0513C163.509 26.8205 163.118 26.5607 162.707 26.2826C160.791 25.0793 159.834 23.0923 159.836 20.3218V2.54426C159.816 2.09321 159.913 1.64539 160.116 1.25576C160.318 0.866137 160.617 0.551662 160.975 0.350937C161.321 0.11037 161.722 -0.0112895 162.128 0.000824079C162.534 0.0129377 162.928 0.158295 163.262 0.419145L170.615 5.6821C171.476 6.3688 172.167 7.29278 172.621 8.36604C172.751 8.652 172.866 8.94636 172.965 9.24757C173.32 10.2781 173.501 11.3743 173.5 12.4798Z" fill="url(#paint0_linear_1344_3577)"/>
<path style="mix-blend-mode:multiply" opacity="0.5" d="M173.78 11.1823V29.6568C173.78 29.9171 173.78 30.1703 173.759 30.4305C173.759 30.5149 173.759 30.5946 173.742 30.679C173.742 30.8502 173.721 31.019 173.7 31.1901C173.7 31.291 173.679 31.3918 173.663 31.4926C173.648 31.6403 173.632 31.788 173.606 31.938C173.59 32.0435 173.562 32.1537 173.548 32.2616C173.534 32.3694 173.498 32.5312 173.468 32.6695C173.437 32.8078 173.414 32.8922 173.388 33.0048C173.362 33.1173 173.33 33.258 173.292 33.3846C173.255 33.5112 173.229 33.619 173.191 33.7316C173.154 33.8441 173.116 33.966 173.081 34.0856C173.046 34.2051 173.001 34.32 172.952 34.4349C172.903 34.5498 172.872 34.6694 172.826 34.7749C172.779 34.8804 172.729 35.0093 172.683 35.1265C172.636 35.2438 172.586 35.3422 172.532 35.4501C172.516 35.4972 172.498 35.5434 172.476 35.5884C172.439 35.6658 172.396 35.7455 172.359 35.8228C172.321 35.9002 172.268 35.994 172.221 36.0784C172.162 36.2003 172.094 36.3128 172.024 36.4441C171.972 36.5285 171.923 36.62 171.871 36.7091C171.82 36.7982 171.726 36.9435 171.658 37.0537C171.59 37.1639 171.541 37.2342 171.477 37.3257C171.414 37.4171 171.325 37.5484 171.243 37.6586C171.161 37.7688 171.121 37.8344 171.055 37.9188C170.99 38.0032 170.882 38.1533 170.795 38.2541L170.664 38.4182L170.601 38.5026C170.504 38.6198 170.399 38.737 170.298 38.8519L170.106 39.0864C169.991 39.213 169.871 39.3396 169.745 39.4662C169.689 39.5248 169.635 39.5881 169.576 39.642C169.396 39.8272 169.206 40.0148 169.013 40.1883C168.779 40.4016 168.544 40.6079 168.31 40.8049C169.248 37.2436 169.637 30.0202 164.09 24.2082C163.715 24.0019 163.316 23.7745 162.904 23.5237C160.972 22.4483 160.006 20.6735 160.006 18.1993V12.2771C163.757 10.4156 169.21 9.098 173.248 8.30322C173.603 9.22118 173.784 10.1977 173.78 11.1823V11.1823Z" fill="url(#paint1_linear_1344_3577)"/>
<path style="mix-blend-mode:multiply" opacity="0.5" d="M173.78 23.587V29.6569C173.78 29.9172 173.78 30.1704 173.759 30.4306C173.759 30.515 173.759 30.5947 173.742 30.6791C173.742 30.8503 173.721 31.0191 173.7 31.1902C173.7 31.291 173.679 31.3919 173.663 31.4927C173.649 31.6404 173.632 31.7881 173.607 31.9381C173.59 32.0436 173.562 32.1538 173.548 32.2617C173.534 32.3695 173.499 32.5313 173.468 32.6696C173.438 32.8079 173.414 32.8923 173.388 33.0049C173.363 33.1174 173.33 33.2581 173.292 33.3847C173.255 33.5113 173.229 33.6191 173.192 33.7317C173.154 33.8442 173.117 33.9661 173.081 34.0857C173.046 34.2052 173.002 34.3201 172.952 34.435C172.903 34.5499 172.873 34.6695 172.826 34.775C172.779 34.8805 172.73 35.0094 172.683 35.1266C172.636 35.2439 172.587 35.3423 172.533 35.4502C172.517 35.4973 172.498 35.5435 172.476 35.5885C172.439 35.6659 172.397 35.7456 172.359 35.8229C172.322 35.9003 172.268 35.9941 172.221 36.0785C172.162 36.2004 172.094 36.3129 172.024 36.4442C171.972 36.5286 171.923 36.6201 171.872 36.7092C171.82 36.7982 171.726 36.9436 171.658 37.0538C171.59 37.164 171.541 37.2343 171.478 37.3258C171.414 37.4172 171.325 37.5485 171.243 37.6587C171.161 37.7689 171.121 37.8345 171.056 37.9189C170.99 38.0033 170.882 38.1534 170.795 38.2542L170.664 38.4183C171.783 28.1729 164.1 24.199 164.1 24.199L166.707 22.2319L173.78 23.587Z" fill="url(#paint2_linear_1344_3577)"/>
<path d="M224.653 44.6709H214.774C210.864 44.7217 207.089 43.2465 204.249 40.5587L200.191 36.7747L199.019 35.6775L198.367 35.0726L195.598 32.4937V47.482C195.615 47.9409 195.496 48.3946 195.258 48.7868C195.019 49.179 194.67 49.4924 194.255 49.6882C193.883 49.8945 193.465 50.0019 193.04 50C192.569 50.0007 192.106 49.8709 191.704 49.6248L183.386 44.3287C183.304 44.2914 183.23 44.2398 183.168 44.1763C181.136 42.6008 180.12 40.3688 180.12 37.4804V37.2319C180.06 36.7975 180.03 36.3597 180.028 35.9213V8.09456C180.028 7.88825 180.028 7.68193 180.049 7.4803C180.05 7.44794 180.054 7.41571 180.061 7.38418C180.061 7.31619 180.061 7.25289 180.075 7.18724C180.092 7.02313 180.113 6.85901 180.141 6.6949C180.139 6.67543 180.139 6.65576 180.141 6.63629C180.167 6.47686 180.195 6.32447 180.232 6.16739C180.258 6.05485 180.284 5.94935 180.317 5.83916L180.413 5.52031L180.523 5.20146C180.57 5.06782 180.629 4.93653 180.687 4.80289C180.725 4.70911 180.772 4.61299 180.821 4.51687C180.87 4.42074 180.889 4.37854 180.926 4.31055C181.245 3.71562 181.639 3.16407 182.099 2.66941C182.19 2.56391 182.284 2.46779 182.385 2.36697C182.485 2.26616 182.619 2.13252 182.757 2.01764C182.821 1.96372 182.889 1.90745 182.952 1.84884C182.978 1.83136 183.004 1.81176 183.027 1.79022C183.212 1.63549 183.404 1.49247 183.601 1.35884C183.616 1.34397 183.634 1.33204 183.653 1.32367C183.669 1.32367 183.69 1.30257 183.712 1.28616C183.781 1.2334 183.854 1.18561 183.93 1.14315V1.14315C184.03 1.07985 184.136 1.02123 184.248 0.964966C184.272 0.948579 184.298 0.933702 184.323 0.92042C184.53 0.810229 184.741 0.709414 184.959 0.617979C185.001 0.603912 185.043 0.582816 185.085 0.571093C185.266 0.49607 185.442 0.432769 185.632 0.374157C185.686 0.36009 185.74 0.343678 185.798 0.322578C186.014 0.263966 186.237 0.205348 186.466 0.163147C186.504 0.163147 186.539 0.146737 186.584 0.142048C186.778 0.109225 186.98 0.0787499 187.181 0.0576495L187.362 0.0412364H187.378C187.613 0.020136 187.861 0.00841725 188.105 0.00841725H190.759V14.1199L191.462 13.4845L192.374 12.6452L192.878 12.1763L193.547 11.5667L201.696 4.11361C204.537 1.42366 208.315 -0.0516937 212.228 0.00138407H221.638L200.104 19.9858L198.986 21.0268L200.057 22.0091L224.653 44.6709Z" fill="url(#paint3_linear_1344_3577)"/>
<path style="mix-blend-mode:multiply" opacity="0.5" d="M199.012 35.6774L198.36 35.0725L195.591 32.4936V47.2099L187.976 42.3662C187.894 42.3309 187.82 42.279 187.758 42.2138C185.726 40.6383 184.71 38.4064 184.71 35.518V35.2695C184.647 34.8354 184.615 34.3975 184.614 33.9589L184.291 32.8593L180.005 18.4571V8.09448C180.005 7.88816 180.005 7.68185 180.026 7.48022C180.026 7.44785 180.03 7.41562 180.038 7.3841C180.038 7.31611 180.038 7.25281 180.052 7.18716C180.068 7.02305 180.089 6.85893 180.117 6.69482C180.115 6.67534 180.115 6.65568 180.117 6.6362C180.143 6.47678 180.171 6.32439 180.209 6.16731C180.235 6.05477 180.26 5.94927 180.293 5.83908L180.389 5.52022L180.5 5.20138C180.547 5.06573 180.602 4.93268 180.664 4.80281C180.701 4.70903 180.748 4.61291 180.797 4.51678C180.847 4.42066 180.865 4.37846 180.903 4.31047C181.222 3.71553 181.616 3.16398 182.075 2.66932C182.166 2.56382 182.26 2.4677 182.361 2.36689C182.462 2.26608 182.596 2.13244 182.734 2.01756C182.797 1.96363 182.865 1.90737 182.928 1.84875C182.955 1.83127 182.98 1.81167 183.003 1.79014C183.189 1.6354 183.381 1.49239 183.578 1.35876C183.593 1.34389 183.61 1.33195 183.629 1.32359C183.646 1.32359 183.667 1.30249 183.688 1.28608C183.757 1.23332 183.83 1.18553 183.906 1.14307V1.21105C183.906 1.97067 184.091 8.71342 190.745 11.9652V14.1128L191.448 13.4774L192.36 12.6381C192.36 12.6381 192.36 12.6381 192.377 12.6381C192.393 12.6381 196.541 14.5254 197.64 17.1888C199.04 20.5789 198.901 30.2288 199.012 35.6774Z" fill="url(#paint4_linear_1344_3577)"/>
<path style="mix-blend-mode:multiply" opacity="0.5" d="M198.36 35.0724L195.591 32.4935V38.4837C194.63 38.69 193.659 38.8869 193.469 38.8869C193.235 38.8869 188.429 36.0173 184.291 32.8639C182.767 31.7426 181.334 30.5033 180.005 29.1573V8.09438C180.005 7.88807 180.005 7.68175 180.026 7.48013C180.026 7.44776 180.03 7.41553 180.038 7.384C180.038 7.31601 180.038 7.25271 180.052 7.18707C181.927 4.22129 183.803 1.30005 183.915 1.14062C183.914 1.1656 183.914 1.19068 183.915 1.21565C183.913 1.24215 183.913 1.26886 183.915 1.29536C183.892 1.52904 183.881 1.76384 183.883 1.99871C183.883 2.12062 183.883 2.25895 183.883 2.40196C183.883 2.41837 183.883 2.43244 183.883 2.45354V2.57077C183.962 5.05827 184.884 10.2372 190.764 13.1608V14.1197L191.467 13.4844L193.882 14.5511C193.882 14.5511 197.6 16.1923 197.79 22.4192C197.926 27.1199 198.132 31.3377 198.36 35.0724Z" fill="url(#paint5_linear_1344_3577)"/>
<path d="M173.782 11.182V29.6542C173.8 31.7044 173.355 33.7321 172.479 35.5858C172.479 35.506 172.502 35.424 172.511 35.3396C173.548 28.0318 164.095 24.2033 164.095 24.2033C163.72 23.9969 163.326 23.7648 162.911 23.5163C160.979 22.441 160.014 20.6654 160.015 18.1896V2.30338C159.995 1.90031 160.093 1.50013 160.297 1.15195C160.501 0.803778 160.803 0.522758 161.164 0.343387C161.513 0.128413 161.917 0.0196967 162.327 0.0305216C162.736 0.0413464 163.134 0.17124 163.471 0.404339L170.887 5.10739C171.755 5.72104 172.451 6.54672 172.91 7.5058C173.49 8.64384 173.789 9.90447 173.782 11.182Z" fill="url(#paint6_linear_1344_3577)"/>
<path d="M195.591 32.4888V47.4771C195.608 47.936 195.49 48.3897 195.251 48.7819C195.012 49.1741 194.663 49.4875 194.248 49.6833C193.876 49.8896 193.458 49.997 193.033 49.9951C192.562 49.9959 192.099 49.866 191.697 49.62L183.379 44.3238C183.298 44.2866 183.224 44.2349 183.161 44.1714C181.129 42.5959 180.113 40.3639 180.113 37.4755V37.227C180.054 36.7927 180.023 36.3548 180.021 35.9164V8.09438C180.021 7.88807 180.021 7.68175 180.043 7.48013C180.043 7.37931 180.059 7.28319 180.068 7.18707C180.106 6.84877 180.163 6.51293 180.24 6.18128C180.265 6.06874 180.291 5.96324 180.324 5.85305L180.42 5.5342L180.53 5.21535C180.74 4.65268 181.018 4.118 181.358 3.62344C181.421 3.52262 181.491 3.4265 181.564 3.33272C181.576 3.31187 181.59 3.29225 181.606 3.27411C181.681 3.17799 181.756 3.07717 181.841 2.98808C181.925 2.89899 182.014 2.77942 182.11 2.67861C182.207 2.5778 182.296 2.47698 182.396 2.37617C182.598 2.17024 182.812 1.97759 183.039 1.79943C183.123 1.72909 183.215 1.6611 183.299 1.59311C183.308 1.57927 183.321 1.56921 183.337 1.56498C183.426 1.49699 183.522 1.43369 183.613 1.36804C183.705 1.30239 183.829 1.22033 183.941 1.15234C183.94 1.17732 183.94 1.2024 183.941 1.22737C183.925 1.41258 183.904 1.83225 183.899 2.39961C183.899 2.41603 183.899 2.43009 183.899 2.45119V2.56842C183.899 4.78631 184.206 9.01577 186.366 11.297C189.385 14.4902 192.063 15.0106 193.012 15.8687C193.962 16.7268 195.687 17.7677 195.512 22.0863C195.336 26.4048 195.591 32.4888 195.591 32.4888Z" fill="url(#paint7_linear_1344_3577)"/>
<defs>
<linearGradient id="paint0_linear_1344_3577" x1="140.514" y1="24.9944" x2="173.5" y2="24.9944" gradientUnits="userSpaceOnUse">
<stop stop-color="#0047BF"/>
<stop offset="1" stop-color="#7E00BF"/>
</linearGradient>
<linearGradient id="paint1_linear_1344_3577" x1="153.101" y1="6.49562" x2="170.755" y2="24.513" gradientUnits="userSpaceOnUse">
<stop stop-color="#3C9ADE"/>
<stop offset="1" stop-color="#ED74C1"/>
</linearGradient>
<linearGradient id="paint2_linear_1344_3577" x1="161.319" y1="19.8757" x2="171.243" y2="30.0016" gradientUnits="userSpaceOnUse">
<stop stop-color="#3C9ADE"/>
<stop offset="1" stop-color="#ED74C1"/>
</linearGradient>
<linearGradient id="paint3_linear_1344_3577" x1="212.138" y1="11.2713" x2="191.978" y2="39.6537" gradientUnits="userSpaceOnUse">
<stop stop-color="#0047BF"/>
<stop offset="1" stop-color="#7E00BF"/>
</linearGradient>
<linearGradient id="paint4_linear_1344_3577" x1="200.472" y1="35.1897" x2="177.259" y2="13.7799" gradientUnits="userSpaceOnUse">
<stop stop-color="#3C9ADE"/>
<stop offset="1" stop-color="#ED74C1"/>
</linearGradient>
<linearGradient id="paint5_linear_1344_3577" x1="167.603" y1="0.484168" x2="191.033" y2="24.398" gradientUnits="userSpaceOnUse">
<stop stop-color="#3C9ADE"/>
<stop offset="1" stop-color="#ED74C1"/>
</linearGradient>
<linearGradient id="paint6_linear_1344_3577" x1="175.545" y1="1.5297" x2="167.321" y2="16.6493" gradientUnits="userSpaceOnUse">
<stop stop-color="#9F2AFF"/>
<stop offset="1" stop-color="#DE3FFF"/>
</linearGradient>
<linearGradient id="paint7_linear_1344_3577" x1="180.265" y1="37.22" x2="193.795" y2="18.6516" gradientUnits="userSpaceOnUse">
<stop stop-color="#9F2AFF"/>
<stop offset="1" stop-color="#DE3FFF"/>
</linearGradient>
</defs>
</svg>
