<svg width="366" height="50" viewBox="0 0 366 50" fill="none" xmlns="http://www.w3.org/2000/svg">
<path d="M60 3.25781H85.2232L82.7262 10.0859H68.6627V15.8953H82.7262V22.5708H68.6627V28.1759L85.2232 28.1248L82.7774 35.0547H60V3.25781Z" fill="#A0CA54"/>
<path d="M112.122 3.25781L109.625 10.0859H95.5611V28.1754L112.122 28.1242L109.676 35.0541H89.3448C88.868 34.5784 88.4099 34.1544 87.9688 33.7801C87.5272 33.4067 87.1704 32.8462 86.8984 32.0985V5.7548C87.1704 5.00816 87.5272 4.47377 87.9688 4.14952C88.4099 3.82739 88.8685 3.53087 89.3448 3.25781H112.122Z" fill="#A0CA54"/>
<path d="M118.094 35.1058C115.579 35.1058 114.068 34.0354 113.559 31.8952C113.592 27.4452 113.61 23.1819 113.61 19.1057C113.61 15.0296 113.593 10.9705 113.559 6.92745C113.831 5.6027 114.34 4.65179 115.088 4.07367C115.834 3.49662 116.836 3.20703 118.094 3.20703H134.4C135.655 3.20703 136.658 3.49662 137.406 4.07367C138.152 4.65179 138.662 5.60216 138.934 6.92745C138.901 10.9705 138.884 15.029 138.884 19.1057C138.884 23.1824 138.9 27.4457 138.934 31.8952C138.425 34.0354 136.913 35.1058 134.4 35.1058H118.094ZM122.679 28.1246H129.814V10.0863H122.679V28.1246Z" fill="#A0CA54"/>
<path d="M152.231 3H161.505L172.46 34.9995H154.524V28.2227H161.505L156.868 13.853L149.276 34.9995H140.613L152.231 3Z" fill="#004483"/>
<path d="M199.36 35.0541H174.137V3.25781H182.748L182.85 28.3792H190.544V3.41139H190.697V3.25833H199.308L199.36 35.0541Z" fill="#004483"/>
<path d="M200.789 3.25781H226.012V10.1365L209.451 10.0853V15.8947H223.515V22.5703H209.451L209.502 44.889L200.84 47.9972L200.789 35.0541V3.25781Z" fill="#004483"/>
<path d="M227.285 3.25781H252.507L250.01 10.0859H235.947V15.8953H250.01V22.5708H235.947V28.1759L252.507 28.1248L250.061 35.0547H227.285V3.25781Z" fill="#004483"/>
<path d="M262.643 35.1058H253.981V19.7681L253.93 19.7169L253.981 19.6657V3.25823L274.77 3.20703C276.026 3.20703 277.029 3.49662 277.777 4.07367C278.524 4.65179 279.033 5.60216 279.305 6.92745C279.305 9.10178 279.305 10.826 279.305 12.0996C279.305 13.3731 279.305 14.3667 279.305 15.0803C279.305 15.7933 279.305 16.3122 279.305 16.6343C279.305 16.9575 279.305 17.238 279.305 17.4748C279.068 18.5964 278.669 19.4449 278.108 20.0225C277.547 20.6006 276.808 20.9739 275.892 21.1441V21.2966H272.63L279.254 35.2071H270.337L263.866 21.3979V15.9458H270.185V10.0351H262.337L262.643 35.1058Z" fill="#004483"/>
<path d="M285.27 35.1058C282.755 35.1058 281.244 34.0354 280.734 31.8952C280.768 27.4452 280.786 23.1819 280.786 19.1057C280.786 15.0296 280.768 10.9705 280.734 6.92745C281.006 5.6027 281.516 4.65179 282.263 4.07367C283.01 3.49662 284.012 3.20703 285.27 3.20703H301.575C302.831 3.20703 303.833 3.49662 304.582 4.07367C305.328 4.65179 305.838 5.60216 306.111 6.92745C306.077 10.9705 306.059 15.029 306.059 19.1057C306.059 23.1824 306.076 27.4457 306.111 31.8952C305.6 34.0354 304.089 35.1058 301.575 35.1058H285.27ZM289.856 28.1246H296.989V10.0863H289.856V28.1246Z" fill="#004483"/>
</svg>
