<svg width="366" height="50" viewBox="0 0 366 50" fill="none" xmlns="http://www.w3.org/2000/svg">
<path fill-rule="evenodd" clip-rule="evenodd" d="M74.529 28.2102C74.4228 29.3277 74.267 30.4509 74.0645 31.5642C73.8634 32.68 73.5955 33.7827 73.2621 34.8665C72.9293 35.9437 72.5398 36.924 72.0894 37.801C71.4684 39.0861 70.6639 40.1711 69.6781 41.0722C68.6618 41.9863 67.5141 42.7432 66.2733 43.3178C65.3316 43.7577 64.347 44.0994 63.3351 44.3377C62.3276 44.5774 61.3051 44.7489 60.2744 44.8512C59.2469 44.9481 58.1946 44.9969 57.1231 44.999C56.0899 44.999 55.0624 44.999 54.0284 44.9969H36.5361V5.00071H54.0341C55.7238 5.00283 57.4432 5.07992 59.1952 5.23906C60.9479 5.40315 62.6192 5.75043 64.2026 6.28796C65.7733 6.8213 67.2538 7.58993 68.5932 8.56754C69.9316 9.54571 71.0335 10.8408 71.9046 12.4378C72.8528 14.2357 73.5489 16.2953 74.005 18.6152C74.4568 20.9309 74.682 23.0895 74.682 25.0897C74.6862 26.0516 74.6324 27.0885 74.5297 28.2102H74.529ZM64.4498 20.1246C64.0957 18.3868 63.5122 16.8711 62.6829 15.5718C61.695 14.0398 60.4345 13.0602 58.9133 12.6373C57.3816 12.2129 55.7564 12.0007 54.0249 12.0007L45.2961 12L45.2982 38.0012L54.0228 37.9997C55.0085 37.9997 56.1168 37.9007 57.332 37.7006C58.5486 37.4983 59.5889 37.1708 60.4621 36.728C61.3657 36.2414 62.1079 35.5243 62.6893 34.5765C63.2699 33.6063 63.7251 32.5666 64.044 31.4821C64.3749 30.3735 64.6132 29.2394 64.7564 28.0914C64.9023 26.9392 64.9752 25.9193 64.9752 25.0296C64.9773 23.4962 64.8003 21.8609 64.4498 20.1253V20.1246ZM89.9514 44.9594C88.8346 44.9608 87.7094 44.9509 86.5713 44.9269C85.4383 44.9085 84.3335 44.7614 83.2642 44.4799C81.3621 44.001 79.9139 42.9705 78.9218 41.3947C77.9303 39.8139 77.436 38.1249 77.4382 36.3242C77.436 34.9259 77.7427 33.5453 78.3361 32.1894C78.9208 30.8485 79.8532 29.6878 81.037 28.827C81.5767 28.4267 82.2183 28.1155 82.9604 27.8997C83.7236 27.6775 84.5035 27.5166 85.2924 27.4188C86.0844 27.3214 86.8805 27.2612 87.6782 27.2384C88.4699 27.2207 89.1887 27.2101 89.8558 27.2101H100.037L100.033 26.7313C100.037 25.6909 99.8912 24.8598 99.6036 24.2395C99.3133 23.6214 98.8926 23.1383 98.336 22.8009C97.7766 22.4614 97.1074 22.2415 96.3234 22.1403C95.4621 22.0356 94.595 21.9848 93.7273 21.9883H79.7454L79.7432 15.7521L93.7231 15.75C94.3002 15.7543 94.8689 15.7564 95.4276 15.7804C95.9821 15.8009 96.5508 15.8108 97.1258 15.8087C99.6787 15.8936 101.861 16.4092 103.667 17.369C105.471 18.333 106.784 20.0687 107.607 22.593C107.937 23.591 108.131 24.5713 108.193 25.5268C108.253 26.4908 108.285 27.4909 108.283 28.532L108.286 44.9594H89.9514ZM100.037 33.459L89.0492 33.4611C88.1803 33.4611 87.4445 33.6775 86.8426 34.1139C86.2442 34.5524 85.9446 35.2272 85.9446 36.1431C85.9446 36.7797 86.0777 37.2663 86.3483 37.6058C86.6152 37.9417 86.9672 38.1921 87.4034 38.3477C87.8382 38.5055 88.324 38.608 88.8622 38.649C89.3969 38.6851 89.916 38.7056 90.4117 38.7056L100.031 38.7035L100.037 33.459ZM126.574 44.9983C124.52 44.9941 122.665 44.6503 121.031 43.9473C119.383 43.2464 118.172 41.8962 117.397 39.8938C117.073 38.9517 116.866 37.9736 116.781 36.9813C116.698 35.9927 116.658 35.0012 116.659 34.0092V21.9996L111.396 21.9974L111.398 15.7528L116.658 15.7507L116.659 5L124.907 5.00212L124.905 15.7486H132.576L132.574 21.9974L124.907 22.001V32.6286C124.903 33.2694 124.915 34.0672 124.934 35.0277C124.957 35.9932 125.174 36.7514 125.586 37.3108C125.951 37.7899 126.445 38.1558 127.01 38.3661C127.605 38.5888 128.228 38.7294 128.862 38.7841C129.525 38.8428 130.181 38.8527 130.841 38.8145C131.419 38.7779 131.997 38.7577 132.576 38.7537V44.9983H126.574ZM147.404 44.958C146.289 44.958 145.158 44.9516 144.026 44.9255C142.906 44.9113 141.792 44.76 140.708 44.4749C138.808 43.9996 137.364 42.9691 136.374 41.389C135.384 39.8125 134.886 38.1235 134.886 36.3207C134.889 34.9245 135.187 33.546 135.789 32.1859C136.371 30.8444 137.304 29.6839 138.489 28.8256C139.027 28.4274 139.669 28.1162 140.412 27.8997C141.174 27.6763 141.952 27.5143 142.74 27.4152C143.532 27.3212 144.329 27.2624 145.126 27.2391C145.92 27.2193 146.639 27.2108 147.301 27.2087L157.487 27.2108V26.7299C157.485 25.6916 157.343 24.8605 157.051 24.2402C156.764 23.6178 156.343 23.1411 155.784 22.7995C155.23 22.4621 154.557 22.2379 153.776 22.1389C152.913 22.0357 152.045 21.9857 151.176 21.989L137.195 21.9868L137.193 15.7507H151.176C151.744 15.7489 152.312 15.7583 152.88 15.779C153.432 15.7995 153.999 15.8094 154.578 15.8073C157.133 15.89 159.31 16.4078 161.117 17.3676C162.92 18.3337 164.236 20.0694 165.06 22.5894C165.385 23.5917 165.58 24.5698 165.639 25.5296C165.71 26.4894 165.737 27.4895 165.733 28.5327L165.735 44.958H147.404ZM157.487 33.4576H146.497C145.63 33.4576 144.895 33.6754 144.295 34.1118C143.69 34.5524 143.394 35.2293 143.394 36.1431C143.394 36.7797 143.527 37.2684 143.799 37.6037C144.068 37.9417 144.418 38.19 144.855 38.3456C145.284 38.5111 145.774 38.6045 146.31 38.649C146.849 38.6851 147.37 38.707 147.866 38.707H157.485L157.487 33.4576Z" fill="#0A0A0C"/>
<path fill-rule="evenodd" clip-rule="evenodd" d="M193.339 44.5863C193.014 43.6872 192.809 42.749 192.731 41.7962C192.646 40.8449 192.543 39.8953 192.422 38.948C192.213 37.1301 191.884 35.6147 191.409 34.4107C190.937 33.2067 190.275 32.2421 189.421 31.5366C188.559 30.8226 187.48 30.3207 186.171 30.0225C184.861 29.7264 183.271 29.5766 181.391 29.5766H174.41L174.406 44.5863H165.733V5.00308L185.692 5.00098C187.2 5.00308 188.742 5.05138 190.318 5.14937C191.838 5.24049 193.345 5.48916 194.814 5.89135C197.227 6.56543 199.102 7.831 200.448 9.69295C201.794 11.5493 202.469 13.6688 202.471 16.0411C202.467 18.7731 201.873 21.1544 200.689 23.1928C199.505 25.2283 197.503 26.6808 194.692 27.5523C195.585 27.8708 196.353 28.1788 196.985 28.4706C197.619 28.7702 198.177 29.1265 198.671 29.5423C199.161 29.9546 199.59 30.4523 199.964 31.0263C200.324 31.6003 200.691 32.3247 201.056 33.1927C201.63 34.4982 201.949 35.8442 202.007 37.226C202.07 38.6106 202.183 39.9979 202.349 41.3804C202.468 42.408 202.714 43.4782 203.08 44.5863H193.339ZM192.372 14.457C192.048 13.785 191.607 13.2692 191.057 12.9052C190.508 12.5391 189.845 12.285 189.07 12.145C188.295 11.9973 187.46 11.9273 186.567 11.9252L174.406 11.9287L174.408 22.651L186.567 22.6468C188.561 22.6468 190.108 22.2548 191.207 21.4624C192.312 20.6708 192.858 19.1945 192.857 17.0491C192.858 15.9928 192.696 15.129 192.372 14.457V14.457ZM235.764 36.708C234.97 38.514 233.867 40.028 232.463 41.2565C231.058 42.4801 229.384 43.4159 227.447 44.0459C225.513 44.6822 223.383 44.9979 221.063 44.9979C216.088 45 212.236 43.6798 209.506 41.0479C206.772 38.4146 205.408 34.6767 205.408 29.8447C205.408 27.5887 205.791 25.5468 206.573 23.7269C207.342 21.9027 208.425 20.3691 209.813 19.1189C211.198 17.8729 212.859 16.9112 214.797 16.2371C216.731 15.5672 218.839 15.227 221.124 15.227C226.096 15.2291 229.978 16.5528 232.77 19.2085C235.56 21.8628 236.959 25.6287 236.962 30.5027C236.96 32.8364 236.561 34.9084 235.764 36.708H235.764ZM228.173 26.6843C227.932 25.6329 227.525 24.7103 226.958 23.9327C226.389 23.1529 225.628 22.5348 224.676 22.0889C223.731 21.6388 222.562 21.4127 221.182 21.4106C219.724 21.4127 218.517 21.6444 217.569 22.1169C216.616 22.5845 215.869 23.2187 215.321 24.0188C214.766 24.8188 214.385 25.7568 214.164 26.8327C213.937 27.9086 213.828 29.0642 213.83 30.3186C213.826 31.5282 213.96 32.6523 214.222 33.6883C214.486 34.7201 214.913 35.6182 215.501 36.3825C216.088 37.1441 216.858 37.7405 217.812 38.1682C218.758 38.598 219.93 38.8122 221.304 38.8122C222.679 38.8122 223.838 38.5805 224.773 38.1101C225.7 37.6425 226.453 37.0181 227.02 36.2362C227.583 35.4586 227.979 34.5262 228.204 33.4524C228.427 32.3765 228.538 31.2545 228.542 30.0827C228.54 28.8745 228.416 27.7406 228.173 26.6843V26.6843ZM270.371 36.9782C269.353 39.1944 267.684 41.0185 265.362 42.4444C263.687 43.4782 262.006 44.09 260.295 44.2923C258.579 44.4862 256.772 44.5863 254.859 44.5842L241.539 44.5863V5.00308H249.701L249.703 15.6407L256.975 15.6386C261.669 15.6407 265.327 16.8391 267.952 19.2351C270.582 21.6346 271.902 25.1303 271.902 29.7264C271.904 32.3422 271.39 34.7607 270.371 36.9782ZM261.85 23.9628C260.596 22.539 258.588 21.825 255.822 21.825H249.704L249.701 38.402H255.819C258.464 38.4006 260.439 37.6005 261.757 35.994C263.071 34.3904 263.735 32.3807 263.735 29.9644C263.735 27.3927 263.104 25.3886 261.849 23.9628H261.85ZM304.863 36.708C304.064 38.5126 302.965 40.028 301.557 41.2523C300.155 42.4843 298.484 43.4138 296.55 44.0459C294.613 44.6822 292.479 45 290.157 45C285.183 45 281.33 43.6798 278.604 41.0465C275.869 38.4146 274.51 34.6802 274.508 29.8447C274.506 27.5866 274.896 25.5468 275.665 23.7269C276.443 21.9048 277.523 20.3691 278.911 19.1189C280.295 17.8729 281.958 16.9112 283.89 16.2392C285.83 15.5672 287.936 15.2291 290.218 15.227C295.194 15.227 299.076 16.5549 301.869 19.2085C304.658 21.8649 306.053 25.6245 306.055 30.4985C306.057 32.8364 305.657 34.9084 304.863 36.708H304.863ZM297.272 26.6864C297.03 25.6308 296.622 24.7103 296.052 23.9306C295.487 23.1529 294.727 22.539 293.776 22.0868C292.826 21.6388 291.658 21.4127 290.281 21.4127C288.823 21.4106 287.612 21.6486 286.663 22.1169C285.708 22.5866 284.964 23.2208 284.415 24.0209C283.865 24.8223 283.479 25.7589 283.259 26.8327C283.032 27.9086 282.928 29.0642 282.926 30.3165C282.928 31.5268 283.059 32.6502 283.316 33.6862C283.584 34.7201 284.009 35.6182 284.593 36.3804C285.183 37.142 285.954 37.7363 286.909 38.1682C287.857 38.598 289.021 38.8122 290.402 38.8122C291.782 38.8122 292.932 38.5826 293.864 38.108C294.801 37.6425 295.552 37.016 296.117 36.2362C296.682 35.4523 297.08 34.5262 297.303 33.4545C297.519 32.3786 297.635 31.2566 297.635 30.0827C297.635 28.8745 297.519 27.7406 297.272 26.6864V26.6864ZM322.598 44.5863C320.559 44.5821 318.734 44.2384 317.104 43.5461C315.481 42.8525 314.281 41.5183 313.512 39.5345C313.19 38.6041 312.985 37.6372 312.902 36.6562C312.82 35.677 312.779 34.6948 312.78 33.7121L312.784 21.825H307.575V15.6407H312.78L312.778 5.00308L320.943 5.00098V15.6407L328.535 15.6386L328.534 21.825L320.942 21.8264V32.3422C320.944 32.9785 320.951 33.7702 320.971 34.7222C320.994 35.6742 321.207 36.4245 321.617 36.9803C321.977 37.4544 322.466 37.8153 323.025 38.0205C323.616 38.2411 324.234 38.3802 324.863 38.4342C325.513 38.4965 326.166 38.5084 326.82 38.4664C327.39 38.4281 327.961 38.408 328.532 38.4062L328.535 44.5863H322.598Z" fill="#2D8FE2"/>
</svg>
