<svg width="366" height="50" viewBox="0 0 366 50" fill="none" xmlns="http://www.w3.org/2000/svg">
<path d="M195.002 13.2887C191.812 10.0989 188.026 7.56859 183.858 5.84231C179.69 4.11603 175.224 3.22754 170.713 3.22754C166.201 3.22754 161.735 4.11603 157.567 5.84231C153.399 7.56859 149.613 10.0989 146.423 13.2887L170.713 37.5782L195.002 13.2887Z" fill="#FFD200"/>
<path d="M170.742 37.6134C173.932 40.8031 177.719 43.3334 181.886 45.0597C186.054 46.7859 190.521 47.6744 195.032 47.6744C199.543 47.6744 204.01 46.7859 208.178 45.0597C212.345 43.3334 216.132 40.8031 219.322 37.6134L195.032 13.3237L170.742 37.6134Z" fill="#06E07F"/>
<path d="M170.683 37.608C167.493 40.7978 163.706 43.328 159.539 45.0543C155.371 46.7806 150.904 47.6691 146.393 47.6691C141.882 47.6691 137.415 46.7806 133.248 45.0543C129.08 43.328 125.293 40.7978 122.104 37.608L146.393 13.3184L170.683 37.608Z" fill="#E3073C"/>
<path d="M195.062 13.294C198.251 10.1042 202.038 7.57396 206.206 5.84768C210.373 4.1214 214.84 3.23291 219.351 3.23291C223.863 3.23291 228.329 4.1214 232.496 5.84768C236.664 7.57396 240.451 10.1042 243.64 13.294L219.351 37.5836L195.062 13.294Z" fill="#1F84EF"/>
</svg>
