<svg width="366" height="50" viewBox="0 0 366 50" fill="none" xmlns="http://www.w3.org/2000/svg">
<path d="M145.983 6.40939L145.054 3.94253C144.942 3.65053 144.737 3.41307 144.461 3.25798C144.338 3.18832 144.195 3.14045 144.035 3.11319C143.954 3.09683 143.873 3.08775 143.777 3.08594C143.696 3.08775 143.615 3.09744 143.543 3.11138C143.374 3.13985 143.232 3.18771 143.109 3.25737C142.832 3.41367 142.626 3.65054 142.515 3.94314L141.587 6.40756L126.568 45.6475C126.442 45.9807 126.452 46.3418 126.6 46.6671C126.746 46.9918 127.01 47.2402 127.343 47.3656L128.771 47.9054C129.441 48.1586 130.238 47.7957 130.489 47.1324L143.783 12.459L156.95 47.1312C157.146 47.6467 157.646 47.9932 158.197 47.9932C158.358 47.9932 158.517 47.9635 158.668 47.9054L160.097 47.3656C160.43 47.2402 160.694 46.9918 160.84 46.6671C160.987 46.3436 160.998 45.9807 160.873 45.6463L145.983 6.40939Z" fill="#D87727"/>
<path d="M284.852 3H283.324C282.589 3 281.991 3.59794 281.991 4.33339V40.1826L253.692 3.59551C253.67 3.56583 253.644 3.53978 253.604 3.4998L253.557 3.45254C253.511 3.40711 253.462 3.36713 253.421 3.33866L253.351 3.28898C253.302 3.25809 253.251 3.23082 253.19 3.20235L253.116 3.17085C253.065 3.15085 253.014 3.13511 252.968 3.1242C252.932 3.11451 252.896 3.10541 252.86 3.09935C252.81 3.09087 252.759 3.08602 252.712 3.0836L251.107 3.07695C250.373 3.07695 249.773 3.67487 249.773 4.41032V46.6666C249.773 47.402 250.373 48 251.107 48H252.634C253.37 48 253.967 47.402 253.967 46.6666V10.8052L282.204 47.3076C282.271 47.4148 282.36 47.5147 282.467 47.605C282.53 47.6583 282.597 47.705 282.7 47.7625C282.76 47.7964 282.823 47.8231 282.889 47.8467L282.964 47.8697C283.018 47.8843 283.07 47.897 283.122 47.9043C283.156 47.9109 283.189 47.9133 283.246 47.9176L284.852 47.9243C285.586 47.9243 286.185 47.3251 286.185 46.5909V4.33399C286.184 3.59793 285.586 3 284.852 3Z" fill="#D87727"/>
<path d="M193.678 43.7308H177.209V4.4115C177.209 3.67666 176.611 3.07812 175.876 3.07812H174.348C173.614 3.07812 173.016 3.67605 173.016 4.4115V46.5908C173.016 47.2221 173.463 47.7703 174.076 47.8957C174.164 47.9139 174.254 47.9242 174.348 47.9242H193.677C194.413 47.9242 195.011 47.3251 195.011 46.5908V45.0636C195.012 44.3288 194.413 43.7308 193.678 43.7308Z" fill="#D87727"/>
<path d="M236.35 3.07812H207.563C206.828 3.07812 206.23 3.67607 206.23 4.41152V5.93876C206.23 6.6736 206.828 7.27152 207.563 7.27152H236.35C237.084 7.27152 237.683 6.6736 237.683 5.93876V4.41152C237.684 3.67607 237.084 3.07812 236.35 3.07812Z" fill="#D87727"/>
<path d="M236.35 43.3008H207.563C206.828 43.3008 206.23 43.8993 206.23 44.6336V46.1608C206.23 46.8963 206.828 47.4936 207.563 47.4936H236.35C237.084 47.4936 237.683 46.8963 237.683 46.1608V44.6336C237.684 43.8999 237.084 43.3008 236.35 43.3008Z" fill="#D87727"/>
<path d="M207.563 27.6147H231.936C232.672 27.6147 233.269 27.0161 233.269 26.2819V24.7546C233.269 24.0198 232.672 23.4219 231.936 23.4219H207.563C206.828 23.4219 206.23 24.0198 206.23 24.7546V26.2819C206.23 27.0161 206.828 27.6147 207.563 27.6147Z" fill="#D87727"/>
<path d="M111.434 3.05866L80.3334 3.05078C79.5979 3.05078 79.0006 3.64749 79.0006 4.38051V5.88111C79.0006 6.61414 79.5979 7.21084 80.3334 7.21084H111.434C112.243 7.21084 112.901 7.85968 112.901 8.65692V21.9695C112.901 22.7662 112.243 23.4156 111.434 23.4156H80.3328C79.5973 23.4156 79 24.0123 79 24.7459V26.2465C79 26.9795 79.5973 27.5763 80.3328 27.5763H85.4882C85.5209 27.5763 85.5518 27.5726 85.5718 27.5678H111.434C112.243 27.5678 112.901 28.2172 112.901 29.0145V42.3265C112.901 43.1243 112.243 43.7725 111.434 43.7725L80.3334 43.7653C79.5979 43.7653 79.0006 44.3614 79.0006 45.0944V46.595C79.0006 47.3292 79.5979 47.9253 80.3334 47.9253H111.434C114.556 47.9253 117.095 45.4137 117.095 42.3265V29.0145C117.095 27.7301 116.645 26.4901 115.823 25.4917C116.645 24.4933 117.095 23.2532 117.095 21.9695V8.65692C117.095 5.56973 114.555 3.05866 111.434 3.05866Z" fill="#D87727"/>
</svg>
