<svg width="366" height="50" viewBox="0 0 366 50" fill="none" xmlns="http://www.w3.org/2000/svg">
<path fill-rule="evenodd" clip-rule="evenodd" d="M232.962 41.9469V35.3463H235.326V41.0598L244.995 26.5458L235.326 14.2566V19.5702H232.962V13.0394H243.707L249.278 20.1787L254.029 13.0394H262.62L253.889 26.0999L272.522 50H263.417L249.63 32.468L243.31 41.9469H232.962ZM232.962 29.5189H235.326V23.035H232.962V29.5189ZM232.962 13.0394V19.5702H220.93V23.035H232.962V29.5189H220.93V35.3463H232.962V41.9469H213.557V30.6643C212.107 37.0314 206.605 41.6196 200.098 41.9469V35.2764C203.796 34.598 206.583 31.3666 206.583 27.4817C206.583 23.5967 203.796 20.3893 200.098 19.6869V13.0394C203.262 13.1784 206.294 14.3532 208.726 16.3833C211.158 18.4133 212.855 21.1861 213.557 24.2752V13.0394H232.962V13.0394ZM142.61 23.0341V19.5692H157.005V13.0385H135.259V23.0331H111.407V29.517H127.442C119.694 41.6646 100.874 36.1874 100.874 21.7921C100.874 13.8337 107.334 7.39671 115.292 7.39671C117.51 7.40005 119.697 7.91253 121.686 8.89466C123.674 9.87678 125.411 11.3023 126.761 13.0615L135.258 13.0375C131.794 5.12602 123.953 0 115.292 0C103.261 0 93.5 9.76116 93.5 21.7921C93.5 33.8229 103.261 43.5611 115.292 43.5611C119.533 43.5624 123.682 42.3245 127.229 39.9996C130.777 37.6747 133.567 34.3642 135.258 30.4748V41.944H157.004V35.3434H142.61V29.516H157.005V23.0322H142.61V23.0341V23.0341ZM200.097 13.0394V19.6869C199.625 19.6121 199.149 19.5728 198.671 19.5692H193.591V35.3941H198.693C199.16 35.3941 199.63 35.3453 200.097 35.2764V41.9469H186.335V13.0165H199.466C199.677 13.0165 199.888 13.0394 200.097 13.0394V13.0394ZM165.221 29.027V41.9469H158.527V11.9629L178.072 31.8585V12.9686H184.978V49.3216L165.221 29.027V29.027Z" fill="#37B19B"/>
</svg>
