<svg width="30" height="30" viewBox="0 0 30 30" fill="none" xmlns="http://www.w3.org/2000/svg">
<path d="M16.1724 11.8335V10.5685C16.1592 10.4707 16.1679 10.3712 16.1978 10.2771C16.2277 10.1831 16.278 10.0969 16.3452 10.0246C16.4124 9.95236 16.4948 9.89591 16.5864 9.85931C16.678 9.82272 16.7767 9.80689 16.8752 9.81297H18.6321V7.09847H16.1812C15.7361 7.0615 15.2883 7.12165 14.8688 7.27476C14.4493 7.42788 14.068 7.67029 13.7514 7.98525C13.4348 8.30021 13.1903 8.68019 13.035 9.0989C12.8796 9.51762 12.8171 9.96508 12.8517 10.4103V11.8422H11.2793V15.0136H12.8693V22.9198H16.0318V15.0136H18.3774L18.4916 13.7661L18.6672 11.8422L16.1724 11.8335Z" fill="white"/>
</svg>
