<svg width="30" height="30" viewBox="0 0 30 30" fill="none" xmlns="http://www.w3.org/2000/svg">
<path d="M19.6161 7.37598H10.3745C9.60331 7.37598 8.86378 7.67823 8.31847 8.21625C7.77315 8.75426 7.4668 9.48397 7.4668 10.2448V19.3628C7.46911 20.1229 7.77623 20.8513 8.32104 21.3888C8.86585 21.9263 9.60403 22.2293 10.3745 22.2316H19.6161C20.3873 22.2316 21.1269 21.9294 21.6722 21.3913C22.2176 20.8533 22.5239 20.1236 22.5239 19.3628V10.2448C22.5239 9.48397 22.2176 8.75426 21.6722 8.21625C21.1269 7.67823 20.3873 7.37598 19.6161 7.37598V7.37598ZM20.4946 9.10942H20.8284V11.6316H18.2808V9.11809L20.4946 9.10942ZM12.887 13.3044C13.1304 12.9645 13.4529 12.6873 13.8274 12.496C14.2019 12.3046 14.6175 12.2048 15.0393 12.2048C15.461 12.2048 15.8766 12.3046 16.2511 12.496C16.6257 12.6873 16.9481 12.9645 17.1915 13.3044L17.3497 13.5557C17.5763 13.9429 17.6946 14.3827 17.6923 14.8298C17.6837 15.2222 17.5851 15.6075 17.404 15.957C17.223 16.3065 16.964 16.6109 16.6466 16.8476C16.3293 17.0843 15.9618 17.247 15.5717 17.3236C15.1815 17.4001 14.7788 17.3886 14.3938 17.2898C14.0088 17.1909 13.6515 17.0074 13.3487 16.753C13.0458 16.4985 12.8053 16.1797 12.6451 15.8204C12.4849 15.4612 12.4093 15.0708 12.4238 14.6786C12.4383 14.2864 12.5426 13.9025 12.7289 13.5557L12.887 13.3044ZM21.1008 19.3714C21.1008 19.7484 20.949 20.11 20.6788 20.3765C20.4086 20.6431 20.0422 20.7929 19.6601 20.7929H10.4185C10.0371 20.7906 9.67199 20.6401 9.4023 20.374C9.13261 20.1079 8.98006 19.7477 8.97775 19.3714V13.3044H11.2267C11.1692 13.4402 11.1193 13.5791 11.0773 13.7204C10.975 14.0816 10.9218 14.4547 10.9192 14.8298C10.9192 15.9079 11.3533 16.9418 12.126 17.7041C12.8986 18.4665 13.9466 18.8947 15.0393 18.8947C16.132 18.8947 17.1799 18.4665 17.9525 17.7041C18.7252 16.9418 19.1593 15.9079 19.1593 14.8298C19.1567 14.4547 19.1035 14.0816 19.0012 13.7204C18.9593 13.5791 18.9094 13.4402 18.8518 13.3044H21.1008V19.3714V19.3714Z" fill="white"/>
</svg>
