<svg width="135" height="33" viewBox="0 0 135 33" fill="none" xmlns="http://www.w3.org/2000/svg">
<g clip-path="url(#clip0_1284_3349)">
<path d="M18.7905 15.4004L14.4085 7.92704C14.2376 7.63555 14.5624 7.30565 14.8565 7.47199L21.6669 11.3235C21.8344 11.4182 21.8859 11.6355 21.7787 11.7954L19.3503 15.4173C19.2145 15.6198 18.9138 15.6108 18.7905 15.4004Z" fill="#3C61C9"/>
<path d="M21.3606 19.5971L19.7236 16.8183C19.6638 16.7167 19.6626 16.591 19.7204 16.4882L21.3574 13.5812C21.5243 13.2848 21.9761 13.4033 21.9761 13.7435V19.4292C21.9761 19.766 21.5315 19.8872 21.3606 19.5971Z" fill="#E95B51"/>
<path d="M12.9559 26.2254L5.19389 13.2249C5.0196 12.933 5.3464 12.5997 5.64168 12.7683L21.0218 21.5464C21.2458 21.6742 21.2438 21.9978 21.0182 22.1228L13.4 26.3451C13.2439 26.4317 13.0474 26.3787 12.9559 26.2254Z" fill="#E95B51"/>
<path d="M12.5857 6.66059L4.89862 11.0561C4.67529 11.1838 4.67694 11.5065 4.90157 11.6319L20.4485 20.3117C20.7444 20.4769 21.0677 20.1431 20.8931 19.8527L13.0333 6.77727C12.9406 6.62317 12.7418 6.57134 12.5857 6.66059Z" fill="#3C61C9"/>
<path d="M6.38512 16.6684L4.59212 19.6728C4.42005 19.9611 3.97754 19.8391 3.97754 19.5033V13.4506C3.97754 13.1138 4.42239 12.9926 4.59319 13.283L6.38619 16.3313C6.44744 16.4354 6.44703 16.5646 6.38512 16.6684Z" fill="#E95B51"/>
<path d="M11.1794 25.6656L4.46062 21.8212C4.29993 21.7292 4.24604 21.5233 4.34111 21.3644L6.58072 17.6219C6.70952 17.4066 7.02166 17.4076 7.14918 17.6236L11.6283 25.2105C11.8008 25.5027 11.4739 25.8341 11.1794 25.6656Z" fill="#3C61C9"/>
</g>
<path d="M40.8665 10.4C41.1785 10.4 41.3345 10.514 41.3345 10.742V11.048C41.3345 11.276 41.1785 11.39 40.8665 11.39H40.3085V22.442C40.3085 22.598 40.2605 22.73 40.1645 22.838C40.0685 22.946 39.9425 23 39.7865 23H39.4985C39.3425 23 39.2105 22.928 39.1025 22.784L32.3165 12.254V22.01H32.8745C33.1865 22.01 33.3425 22.124 33.3425 22.352V22.658C33.3425 22.886 33.1865 23 32.8745 23H30.6965C30.3845 23 30.2285 22.886 30.2285 22.658V22.352C30.2285 22.124 30.3845 22.01 30.6965 22.01H31.2545V11.39H30.6965C30.3845 11.39 30.2285 11.276 30.2285 11.048V10.742C30.2285 10.514 30.3845 10.4 30.6965 10.4H32.0645C32.2205 10.4 32.3525 10.472 32.4605 10.616L39.2465 21.146V11.39H38.6885C38.3765 11.39 38.2205 11.276 38.2205 11.048V10.742C38.2205 10.514 38.3765 10.4 38.6885 10.4H40.8665ZM54.1166 10.4C54.4286 10.4 54.5846 10.514 54.5846 10.742V11.048C54.5846 11.276 54.4286 11.39 54.1166 11.39H53.5586V17.636C53.5586 19.46 53.1746 20.84 52.4066 21.776C51.6386 22.712 50.5106 23.18 49.0226 23.18C47.5346 23.18 46.4066 22.736 45.6386 21.848C44.8706 20.96 44.4866 19.67 44.4866 17.978V11.39H43.9286C43.6166 11.39 43.4606 11.276 43.4606 11.048V10.742C43.4606 10.514 43.6166 10.4 43.9286 10.4H46.1066C46.4186 10.4 46.5746 10.514 46.5746 10.742V11.048C46.5746 11.276 46.4186 11.39 46.1066 11.39H45.5486V17.978C45.5486 19.418 45.8246 20.48 46.3766 21.164C46.9406 21.848 47.8226 22.19 49.0226 22.19C50.2226 22.19 51.0986 21.824 51.6506 21.092C52.2146 20.348 52.4966 19.196 52.4966 17.636V11.39H51.9386C51.6266 11.39 51.4706 11.276 51.4706 11.048V10.742C51.4706 10.514 51.6266 10.4 51.9386 10.4H54.1166ZM68.8662 11.39V22.01H69.4242C69.7362 22.01 69.8922 22.124 69.8922 22.352V22.658C69.8922 22.886 69.7362 23 69.4242 23H67.2462C66.9342 23 66.7782 22.886 66.7782 22.658V22.352C66.7782 22.124 66.9342 22.01 67.2462 22.01H67.8042V12.506L63.8262 19.418C63.7302 19.586 63.5862 19.67 63.3942 19.67H63.3222C63.1302 19.67 62.9862 19.586 62.8902 19.418L58.9122 12.506V22.01H59.4702C59.7822 22.01 59.9382 22.124 59.9382 22.352V22.658C59.9382 22.886 59.7822 23 59.4702 23H57.2922C56.9802 23 56.8242 22.886 56.8242 22.658V22.352C56.8242 22.124 56.9802 22.01 57.2922 22.01H57.8502V11.39H57.2922C56.9802 11.39 56.8242 11.276 56.8242 11.048V10.742C56.8242 10.514 56.9802 10.4 57.2922 10.4H58.5522C58.7442 10.4 58.8882 10.484 58.9842 10.652L63.3582 18.248L67.7322 10.652C67.8282 10.484 67.9722 10.4 68.1642 10.4H69.4242C69.7362 10.4 69.8922 10.514 69.8922 10.742V11.048C69.8922 11.276 69.7362 11.39 69.4242 11.39H68.8662ZM77.8905 23.18C76.7865 23.18 75.8265 22.922 75.0105 22.406C74.1945 21.89 73.5645 21.158 73.1205 20.21C72.6885 19.262 72.4725 18.146 72.4725 16.862C72.4725 15.542 72.7065 14.378 73.1745 13.37C73.6425 12.362 74.2965 11.588 75.1365 11.048C75.9885 10.496 76.9785 10.22 78.1065 10.22C79.2105 10.22 80.1705 10.478 80.9865 10.994C81.8025 11.498 82.4265 12.224 82.8585 13.172C83.3025 14.12 83.5245 15.236 83.5245 16.52C83.5245 17.852 83.2905 19.022 82.8225 20.03C82.3665 21.038 81.7125 21.818 80.8605 22.37C80.0085 22.91 79.0185 23.18 77.8905 23.18ZM77.8905 22.19C79.3185 22.19 80.4345 21.692 81.2385 20.696C82.0425 19.688 82.4445 18.296 82.4445 16.52C82.4445 14.84 82.0665 13.538 81.3105 12.614C80.5545 11.678 79.4865 11.21 78.1065 11.21C76.6905 11.21 75.5745 11.714 74.7585 12.722C73.9545 13.718 73.5525 15.098 73.5525 16.862C73.5525 18.554 73.9305 19.868 74.6865 20.804C75.4425 21.728 76.5105 22.19 77.8905 22.19ZM97.0717 12.794V20.606H97.3417C97.5937 20.606 97.7977 20.672 97.9537 20.804C98.1217 20.936 98.2057 21.14 98.2057 21.416V22.208C98.2057 22.484 98.1217 22.688 97.9537 22.82C97.7977 22.94 97.5937 23 97.3417 23H93.9217C93.6577 23 93.4477 22.94 93.2917 22.82C93.1357 22.688 93.0577 22.484 93.0577 22.208V21.416C93.0577 21.14 93.1357 20.936 93.2917 20.804C93.4477 20.672 93.6577 20.606 93.9217 20.606H94.1917V17.78H89.8177V20.606H90.0877C90.3397 20.606 90.5437 20.672 90.6997 20.804C90.8557 20.936 90.9337 21.14 90.9337 21.416V22.208C90.9337 22.484 90.8557 22.688 90.6997 22.82C90.5437 22.94 90.3397 23 90.0877 23H86.6677C86.4037 23 86.1937 22.94 86.0377 22.82C85.8817 22.688 85.8037 22.484 85.8037 22.208V21.416C85.8037 21.14 85.8817 20.936 86.0377 20.804C86.1937 20.672 86.4037 20.606 86.6677 20.606H86.9377V12.794H86.6677C86.4037 12.794 86.1937 12.728 86.0377 12.596C85.8817 12.464 85.8037 12.26 85.8037 11.984V11.192C85.8037 10.916 85.8817 10.718 86.0377 10.598C86.1937 10.466 86.4037 10.4 86.6677 10.4H90.0877C90.3397 10.4 90.5437 10.466 90.6997 10.598C90.8557 10.718 90.9337 10.916 90.9337 11.192V11.984C90.9337 12.26 90.8557 12.464 90.6997 12.596C90.5437 12.728 90.3397 12.794 90.0877 12.794H89.8177V15.386H94.1917V12.794H93.9217C93.6577 12.794 93.4477 12.728 93.2917 12.596C93.1357 12.464 93.0577 12.26 93.0577 11.984V11.192C93.0577 10.916 93.1357 10.718 93.2917 10.598C93.4477 10.466 93.6577 10.4 93.9217 10.4H97.3417C97.5937 10.4 97.7977 10.466 97.9537 10.598C98.1217 10.718 98.2057 10.916 98.2057 11.192V11.984C98.2057 12.26 98.1217 12.464 97.9537 12.596C97.7977 12.728 97.5937 12.794 97.3417 12.794H97.0717ZM100.906 23C100.642 23 100.432 22.94 100.276 22.82C100.12 22.688 100.042 22.484 100.042 22.208V21.416C100.042 21.14 100.12 20.936 100.276 20.804C100.432 20.672 100.642 20.606 100.906 20.606H101.176V12.794H100.906C100.642 12.794 100.432 12.728 100.276 12.596C100.12 12.464 100.042 12.26 100.042 11.984V11.192C100.042 10.916 100.12 10.718 100.276 10.598C100.432 10.466 100.642 10.4 100.906 10.4H104.326C104.578 10.4 104.782 10.466 104.938 10.598C105.094 10.718 105.172 10.916 105.172 11.192V11.984C105.172 12.26 105.094 12.464 104.938 12.596C104.782 12.728 104.578 12.794 104.326 12.794H104.056V20.606H104.326C104.578 20.606 104.782 20.672 104.938 20.804C105.094 20.936 105.172 21.14 105.172 21.416V22.208C105.172 22.484 105.094 22.688 104.938 22.82C104.782 22.94 104.578 23 104.326 23H100.906ZM117.857 10.4C118.109 10.4 118.313 10.466 118.469 10.598C118.625 10.718 118.703 10.916 118.703 11.192V11.984C118.703 12.26 118.625 12.464 118.469 12.596C118.313 12.728 118.109 12.794 117.857 12.794H117.587L114.257 22.37C114.197 22.562 114.083 22.718 113.915 22.838C113.759 22.946 113.579 23 113.375 23H111.971C111.767 23 111.581 22.946 111.413 22.838C111.257 22.718 111.149 22.562 111.089 22.37L107.759 12.794H107.489C107.237 12.794 107.033 12.728 106.877 12.596C106.721 12.464 106.643 12.26 106.643 11.984V11.192C106.643 10.916 106.721 10.718 106.877 10.598C107.033 10.466 107.237 10.4 107.489 10.4H111.017C111.269 10.4 111.473 10.466 111.629 10.598C111.785 10.718 111.863 10.916 111.863 11.192V11.984C111.863 12.26 111.785 12.464 111.629 12.596C111.473 12.728 111.269 12.794 111.017 12.794H110.729L112.925 19.328L115.103 12.794H114.833C114.569 12.794 114.359 12.728 114.203 12.596C114.047 12.464 113.969 12.26 113.969 11.984V11.192C113.969 10.916 114.047 10.718 114.203 10.598C114.359 10.466 114.569 10.4 114.833 10.4H117.857ZM129.259 18.59C129.535 18.59 129.733 18.668 129.853 18.824C129.985 18.98 130.051 19.19 130.051 19.454V21.974C130.051 22.274 129.949 22.52 129.745 22.712C129.553 22.904 129.301 23 128.989 23H121.051C120.787 23 120.577 22.94 120.421 22.82C120.265 22.688 120.187 22.484 120.187 22.208V21.416C120.187 21.14 120.265 20.936 120.421 20.804C120.577 20.672 120.787 20.606 121.051 20.606H121.321V12.794H121.051C120.787 12.794 120.577 12.728 120.421 12.596C120.265 12.464 120.187 12.26 120.187 11.984V11.192C120.187 10.916 120.265 10.718 120.421 10.598C120.577 10.466 120.787 10.4 121.051 10.4H128.881C129.193 10.4 129.445 10.502 129.637 10.706C129.841 10.898 129.943 11.15 129.943 11.462V13.658C129.943 13.922 129.877 14.132 129.745 14.288C129.625 14.444 129.427 14.522 129.151 14.522H128.359C127.831 14.522 127.567 14.234 127.567 13.658V12.794H124.201V15.296H126.829C127.081 15.296 127.291 15.38 127.459 15.548C127.627 15.716 127.711 15.926 127.711 16.178V16.79C127.711 17.042 127.627 17.252 127.459 17.42C127.291 17.588 127.081 17.672 126.829 17.672H124.201V20.606H127.657V19.454C127.657 19.19 127.723 18.98 127.855 18.824C127.987 18.668 128.191 18.59 128.467 18.59H129.259Z" fill="#393E50"/>
<defs>
<clipPath id="clip0_1284_3349">
<rect width="20" height="20" fill="white" transform="translate(2.97754 6.5)"/>
</clipPath>
</defs>
</svg>
