<svg width="20" height="20" viewBox="0 0 20 20" fill="none" xmlns="http://www.w3.org/2000/svg">
<path d="M17.5066 5.67927H1.66026C1.29932 5.67927 1 5.29863 1 4.83963C1 4.38063 1.29932 4 1.66026 4H17.5066C17.8675 4 18.1668 4.38063 18.1668 4.83963C18.1668 5.29863 17.8675 5.67927 17.5066 5.67927Z" fill="#404040"/>
<path d="M17.5066 11.2769H1.66026C1.29932 11.2769 1 10.8963 1 10.4373C1 9.97829 1.29932 9.59766 1.66026 9.59766H17.5066C17.8675 9.59766 18.1668 9.97829 18.1668 10.4373C18.1668 10.8963 17.8675 11.2769 17.5066 11.2769Z" fill="#404040"/>
<path d="M17.5066 16.8746H1.66026C1.29932 16.8746 1 16.4939 1 16.0349C1 15.5759 1.29932 15.1953 1.66026 15.1953H17.5066C17.8675 15.1953 18.1668 15.5759 18.1668 16.0349C18.1668 16.4939 17.8675 16.8746 17.5066 16.8746Z" fill="#404040"/>
</svg>
