<svg width="30" height="30" viewBox="0 0 30 30" fill="none" xmlns="http://www.w3.org/2000/svg">
<path d="M23.9468 10.243C23.3162 10.5217 22.6466 10.7024 21.9614 10.7788C22.6796 10.3577 23.2199 9.68939 23.4813 8.8989C22.7994 9.29262 22.0574 9.57159 21.2851 9.72467C20.8106 9.22639 20.1988 8.88039 19.5273 8.73065C18.8557 8.5809 18.1548 8.63416 17.5136 8.88367C16.8724 9.13318 16.3199 9.56766 15.9262 10.1319C15.5325 10.6962 15.3154 11.3647 15.3026 12.0526C15.3048 12.3127 15.3342 12.5718 15.3904 12.8257C14.0205 12.7619 12.6791 12.4125 11.4522 11.7998C10.2253 11.1871 9.13998 10.3247 8.26598 9.26786C7.94946 9.79881 7.7853 10.4067 7.79157 11.0248C7.79347 11.588 7.93487 12.1419 8.20314 12.637C8.47141 13.1322 8.85819 13.5531 9.3289 13.8623C8.78124 13.8427 8.24583 13.6953 7.76529 13.4318V13.4758C7.76787 14.2681 8.04643 15.0348 8.55305 15.644C9.05967 16.2533 9.76262 16.6669 10.5412 16.814C10.2548 16.8919 9.95957 16.9332 9.66273 16.937C9.44451 16.9387 9.22669 16.9181 9.01266 16.8755C9.23905 17.5565 9.67206 18.1501 10.2515 18.5736C10.8309 18.9971 11.5279 19.2296 12.2455 19.2386C11.0142 20.1862 9.50349 20.699 7.94974 20.6968C7.66863 20.6968 7.39635 20.6968 7.12402 20.6968C8.70144 21.6938 10.5289 22.2237 12.3949 22.2254C14.6331 22.263 16.8149 21.5224 18.5677 20.1301C20.3205 18.7378 21.5356 16.7801 22.0054 14.5914C22.1617 13.9174 22.2413 13.2278 22.2426 12.5358C22.2426 12.3865 22.2426 12.2371 22.2426 12.0966C22.9203 11.5893 23.4981 10.9608 23.9468 10.243V10.243Z" fill="white"/>
</svg>
