<svg width="40" height="41" viewBox="0 0 40 41" fill="none" xmlns="http://www.w3.org/2000/svg">
<path d="M2.10681 18.5556H5.88889C8.03666 18.5556 9.77778 20.2967 9.77778 22.4444V24.3889C9.77778 26.5367 11.5189 28.2778 13.6667 28.2778C15.8144 28.2778 17.5556 30.0189 17.5556 32.1667V37.8932M11.7222 4.81907V7.86111C11.7222 10.5458 13.8986 12.7222 16.5833 12.7222H17.5556C19.7033 12.7222 21.4444 14.4633 21.4444 16.6111C21.4444 18.7589 23.1856 20.5 25.3333 20.5C27.4811 20.5 29.2222 18.7589 29.2222 16.6111C29.2222 14.4633 30.9633 12.7222 33.1111 12.7222L35.1809 12.7222M25.3333 37.0042V32.1667C25.3333 30.0189 27.0744 28.2778 29.2222 28.2778H35.1809M37 20.5C37 30.165 29.165 38 19.5 38C9.83502 38 2 30.165 2 20.5C2 10.835 9.83502 3 19.5 3C29.165 3 37 10.835 37 20.5Z" stroke="white" stroke-width="2" stroke-linecap="round" stroke-linejoin="round"/>
</svg>
