<svg width="40" height="40" viewBox="0 0 40 40" fill="none" xmlns="http://www.w3.org/2000/svg">
<path d="M2.10681 17.497C1.55452 17.497 1.10681 17.9447 1.10681 18.497C1.10681 19.0492 1.55452 19.497 2.10681 19.497V17.497ZM16.5556 37.8346C16.5556 38.3869 17.0033 38.8346 17.5556 38.8346C18.1078 38.8346 18.5556 38.3869 18.5556 37.8346H16.5556ZM12.7222 4.76047C12.7222 4.20819 12.2745 3.76047 11.7222 3.76047C11.1699 3.76047 10.7222 4.20819 10.7222 4.76047H12.7222ZM33.1111 12.6636L33.1111 13.6636L33.1111 13.6636L33.1111 12.6636ZM35.1809 13.6636C35.7332 13.6636 36.1809 13.2159 36.1809 12.6636C36.1809 12.1113 35.7332 11.6636 35.1809 11.6636L35.1809 13.6636ZM24.3333 36.9456C24.3333 37.4979 24.781 37.9456 25.3333 37.9456C25.8856 37.9456 26.3333 37.4979 26.3333 36.9456H24.3333ZM35.1809 29.2192C35.7332 29.2192 36.1809 28.7715 36.1809 28.2192C36.1809 27.6669 35.7332 27.2192 35.1809 27.2192V29.2192ZM36 20.4414C36 29.5541 28.6127 36.9414 19.5 36.9414V38.9414C29.7173 38.9414 38 30.6587 38 20.4414H36ZM19.5 36.9414C10.3873 36.9414 3 29.5541 3 20.4414H1C1 30.6587 9.28273 38.9414 19.5 38.9414V36.9414ZM3 20.4414C3 11.3287 10.3873 3.94141 19.5 3.94141V1.94141C9.28273 1.94141 1 10.2241 1 20.4414H3ZM19.5 3.94141C28.6127 3.94141 36 11.3287 36 20.4414H38C38 10.2241 29.7173 1.94141 19.5 1.94141V3.94141ZM2.10681 19.497H5.88889V17.497H2.10681V19.497ZM8.77778 22.3859V24.3303H10.7778V22.3859H8.77778ZM16.5556 32.1081V37.8346H18.5556V32.1081H16.5556ZM13.6667 29.2192C15.2622 29.2192 16.5556 30.5126 16.5556 32.1081H18.5556C18.5556 29.408 16.3667 27.2192 13.6667 27.2192V29.2192ZM8.77778 24.3303C8.77778 27.0304 10.9666 29.2192 13.6667 29.2192V27.2192C12.0712 27.2192 10.7778 25.9258 10.7778 24.3303H8.77778ZM5.88889 19.497C7.48438 19.497 8.77778 20.7904 8.77778 22.3859H10.7778C10.7778 19.6858 8.58895 17.497 5.88889 17.497V19.497ZM10.7222 4.76047V7.80252H12.7222V4.76047H10.7222ZM16.5833 13.6636H17.5556V11.6636H16.5833V13.6636ZM33.1111 13.6636L35.1809 13.6636L35.1809 11.6636L33.1111 11.6636L33.1111 13.6636ZM30.2222 16.5525C30.2222 14.957 31.5156 13.6636 33.1111 13.6636V11.6636C30.4111 11.6636 28.2222 13.8525 28.2222 16.5525H30.2222ZM25.3333 21.4414C28.0334 21.4414 30.2222 19.2526 30.2222 16.5525H28.2222C28.2222 18.148 26.9288 19.4414 25.3333 19.4414V21.4414ZM20.4444 16.5525C20.4444 19.2526 22.6333 21.4414 25.3333 21.4414V19.4414C23.7378 19.4414 22.4444 18.148 22.4444 16.5525H20.4444ZM17.5556 13.6636C19.151 13.6636 20.4444 14.957 20.4444 16.5525H22.4444C22.4444 13.8525 20.2556 11.6636 17.5556 11.6636V13.6636ZM10.7222 7.80252C10.7222 11.0395 13.3463 13.6636 16.5833 13.6636V11.6636C14.4509 11.6636 12.7222 9.93495 12.7222 7.80252H10.7222ZM26.3333 36.9456V32.1081H24.3333V36.9456H26.3333ZM29.2222 29.2192H35.1809V27.2192H29.2222V29.2192ZM26.3333 32.1081C26.3333 30.5126 27.6267 29.2192 29.2222 29.2192V27.2192C26.5222 27.2192 24.3333 29.408 24.3333 32.1081H26.3333Z" fill="#393E50" fill-opacity="0.8"/>
</svg>
