<svg width="40" height="41" viewBox="0 0 40 41" fill="none" xmlns="http://www.w3.org/2000/svg">
<g clip-path="url(#clip0_1580_15988)">
<path fill-rule="evenodd" clip-rule="evenodd" d="M7.10938 0.601367C7.10938 1.45082 6.87734 1.8648 6.31656 2.01582C5.91727 2.12332 5.54422 1.96215 5.0375 1.46324L4.64539 1.07699L2.82914 2.89449L1.01297 4.71191L1.37531 5.06152C1.86898 5.53785 2.06383 5.97668 1.95727 6.37238C1.80523 6.93699 1.39313 7.16895 0.541797 7.16895H0V9.74707V12.3252H0.580859C0.900313 12.3252 1.24852 12.3582 1.35461 12.3986C1.80125 12.5684 2.08063 13.1307 1.94797 13.5932C1.90859 13.7304 1.67461 14.0466 1.42805 14.2958L0.979609 14.7489L2.81047 16.581L4.64133 18.4131L5.12016 17.9532C5.68961 17.4064 6.00844 17.3059 6.48766 17.522C6.94375 17.7276 7.05664 17.956 7.09523 18.751L7.12852 19.4346H7.43141H7.73438V20.7236V22.0127H3.86719H0.625C0.279822 22.0127 0 22.2925 0 22.6377C0 22.9829 0.279822 23.2627 0.625 23.2627H3.86719H7.73438V24.5518V25.8408H5.15625H3.24219C2.87544 25.8408 2.57812 26.1381 2.57812 26.5049C2.57812 26.8716 2.87544 27.1689 3.24219 27.1689H5.15625H7.73438V28.458V29.7471H3.86719H0.664062C0.297311 29.7471 0 30.0444 0 30.4111C0 30.7779 0.297311 31.0752 0.664062 31.0752H3.86719H7.73438V32.3252V33.5752H5.15625H3.24219C2.87544 33.5752 2.57812 33.8725 2.57812 34.2393C2.57812 34.606 2.87544 34.9033 3.24219 34.9033H5.15625H7.73438L7.73484 36.6416C7.73508 37.5979 7.77156 38.5108 7.81609 38.6709C7.93977 39.1162 8.35211 39.5975 8.81891 39.8414L9.23656 40.0596L23.8566 40.0588L38.4766 40.058L38.8672 39.8734C39.3366 39.6514 39.6237 39.3598 39.8374 38.8877C39.995 38.5396 39.9966 38.4321 39.9978 27.8721C39.9987 20.7616 39.9722 17.1111 39.9183 16.917C39.7975 16.482 39.3832 15.9916 38.9467 15.767L38.5589 15.5674L28.1042 15.5283L17.6496 15.4893L18.0026 15.1428L18.3556 14.7964L17.9283 14.3483C17.3235 13.7143 17.2289 13.4112 17.4742 12.8942C17.6802 12.4603 17.9771 12.3258 18.7305 12.3255L19.375 12.3252V9.7566V7.18809L18.6914 7.1548C17.8964 7.11621 17.668 7.00332 17.4624 6.54723C17.2463 6.06801 17.3469 5.74918 17.8937 5.17973L18.3535 4.7009L16.5214 2.87004L14.6893 1.03918L14.2362 1.48762C13.987 1.73418 13.6709 1.96816 13.5337 2.00754C13.0712 2.1402 12.5088 1.86082 12.339 1.41418C12.2986 1.30809 12.2656 0.959883 12.2656 0.64043V0.0595703H9.6875H7.10938V0.601367ZM11.0164 1.52441C11.018 1.80957 11.3973 2.46035 11.7355 2.75801C12.4336 3.37246 13.4926 3.51762 14.3246 3.11285L14.7039 2.92832L15.5972 3.8216L16.4905 4.71488L16.2806 5.17324C15.7537 6.32426 16.2259 7.65199 17.3641 8.21918C17.5846 8.32902 17.8284 8.41895 17.9059 8.41895C18.0362 8.41895 18.0469 8.51926 18.0469 9.74707C18.0469 11.0304 18.0415 11.0752 17.888 11.0752C17.6329 11.0752 17.0162 11.4275 16.703 11.7521C16.0455 12.4337 15.8793 13.4443 16.2806 14.3209L16.4905 14.7793L15.598 15.6718L14.7055 16.5643L14.2714 16.3519C13.428 15.9393 12.3716 16.1075 11.6925 16.7626C11.3679 17.0757 11.0156 17.6925 11.0156 17.9476C11.0156 18.1011 10.9708 18.1064 9.6875 18.1064C8.45969 18.1064 8.35938 18.0958 8.35938 17.9655C8.35938 17.888 8.26945 17.6442 8.15961 17.4237C7.59414 16.289 6.26055 15.8151 5.11227 16.3408L4.65531 16.55L3.76203 15.6568L2.86875 14.7635L3.05328 14.3842C3.45805 13.5521 3.31289 12.4932 2.69844 11.795C2.40078 11.4569 1.75 11.0775 1.46484 11.076C1.34008 11.0753 1.32812 10.9603 1.32812 9.76137V8.44746L1.74297 8.31676C2.31133 8.13754 2.75453 7.73559 3.05367 7.12785C3.28281 6.66246 3.29883 6.57863 3.26609 6.01402C3.24 5.56277 3.18219 5.31707 3.04461 5.07223L2.85844 4.74098L3.76477 3.83465L4.67109 2.92832L5.05039 3.11504C5.36016 3.26754 5.55148 3.30176 6.09375 3.30176C6.68391 3.30176 6.80438 3.27598 7.17648 3.06988C7.71148 2.77355 8.09156 2.32777 8.25719 1.80254L8.38789 1.3877H9.7018C10.9007 1.3877 11.0157 1.39965 11.0164 1.52441ZM9.10156 3.97332C7.61211 4.15762 6.29586 5.10566 5.64094 6.46582C5.19367 7.39473 5.13641 7.8366 5.17305 10.0742C5.2025 11.8764 5.21422 12.0001 5.40117 12.4908C5.86383 13.7051 6.60391 14.5386 7.67258 15.0488C8.43328 15.4119 8.93273 15.5283 9.73039 15.5283H10.3125V14.9189V14.3096L9.535 14.2232C8.31938 14.0883 7.54063 13.6359 6.96375 12.7293C6.52289 12.0365 6.47164 11.684 6.49945 9.53418C6.52414 7.62129 6.52695 7.5934 6.73461 7.14918C6.85016 6.90199 7.13117 6.50254 7.35906 6.26152C8.94281 4.58684 11.6016 5.03801 12.6027 7.15152L12.8516 7.67676L12.8773 9.43574C12.9022 11.1376 12.8976 11.2016 12.7349 11.4084C12.5124 11.6912 12.0604 11.7073 11.8105 11.4413C11.6484 11.2687 11.6406 11.1926 11.6406 9.77574C11.6406 8.07551 11.5664 7.69668 11.1344 7.19191C10.3853 6.31684 9.03828 6.29449 8.27273 7.14441C7.76312 7.71027 7.71992 7.93504 7.74828 9.87066C7.77148 11.4494 7.78656 11.6074 7.94203 11.8955C8.45969 12.8548 9.6118 13.2253 10.5512 12.7346L10.9639 12.5189L11.3914 12.7346C12.4702 13.2787 13.7624 12.7327 14.1038 11.5883C14.2414 11.1271 14.2642 8.5109 14.1374 7.72957C13.752 5.35441 11.502 3.67621 9.10156 3.97332ZM9.94867 7.88066C10.2688 8.0266 10.3125 8.25434 10.3125 9.77926C10.3125 11.1088 10.301 11.225 10.1505 11.4162C9.94094 11.6828 9.50703 11.7 9.24328 11.4522C9.06625 11.2858 9.0625 11.2508 9.0625 9.7484C9.0625 8.15105 9.0782 8.06785 9.41406 7.88418C9.61445 7.77457 9.7143 7.77395 9.94867 7.88066ZM38.4753 17.0322L38.6781 17.208L31.5556 23.3993C26.2363 28.0232 24.3573 29.6132 24.1333 29.6804C23.895 29.7518 23.7748 29.7478 23.5491 29.661C23.3784 29.5954 20.9546 27.5425 17.4705 24.5127C11.7062 19.5 11.6774 19.4735 11.9708 19.4496L12.2656 19.4256L12.2659 18.7856C12.2662 18.037 12.4015 17.7393 12.8346 17.5338C13.3515 17.2886 13.6547 17.3831 14.2878 17.987L14.7349 18.4135L15.5105 17.635L16.2861 16.8564H27.2793H38.2725L38.4753 17.0322ZM38.653 32.2131L38.6328 36.6322L33.5938 32.2507C30.8223 29.8409 28.5547 27.8394 28.5547 27.8029C28.5547 27.7665 30.8223 25.7648 33.5938 23.3547L38.6328 18.9729L38.653 23.3834C38.6641 25.8092 38.6641 29.7825 38.653 32.2131ZM14.4141 23.5802C17.0352 25.8595 19.1891 27.7505 19.2005 27.7824C19.2182 27.832 9.60563 36.2442 9.20586 36.5289C9.06703 36.6277 9.0625 36.3585 9.0625 28.0328V19.4346L9.35547 19.4353C9.63008 19.436 9.9468 19.6955 14.4141 23.5802ZM22.7993 30.765C23.4357 31.0967 24.3323 31.0886 24.9754 30.7453C25.1588 30.6475 25.7977 30.1395 26.3954 29.6165L27.4822 28.6657L33.0705 33.5228L38.659 38.3799L38.4955 38.5557L38.3321 38.7314H23.8792C10.5403 38.7314 9.41539 38.7214 9.28352 38.6021C9.20492 38.5311 9.1432 38.4343 9.14625 38.3873C9.14937 38.3403 11.6513 36.1333 14.7063 33.483L20.2605 28.6643L21.3708 29.6317C21.9815 30.1638 22.6243 30.6737 22.7993 30.765Z" fill="white"/>
</g>
<defs>
<clipPath id="clip0_1580_15988">
<rect width="40" height="40" fill="white" transform="translate(0 0.0595703)"/>
</clipPath>
</defs>
</svg>
