<svg width="40" height="41" viewBox="0 0 40 41" fill="none" xmlns="http://www.w3.org/2000/svg">
<g clip-path="url(#clip0_1580_15993)">
<path fill-rule="evenodd" clip-rule="evenodd" d="M17.8512 2.29277L15.5566 4.52597L12.4485 4.5655C9.53415 4.60257 9.33012 4.61443 9.17423 4.75562C9.01075 4.9036 9.00791 4.95775 9.00791 7.88147V10.8567L7.80237 12.0409C7.13929 12.6922 5.78759 14.0152 4.79842 14.9808L3 16.7366V28.2342V39.7319L3.2083 39.8957L3.4166 40.0596H20.2886C37.3598 40.0596 37.3848 40.0592 37.564 39.7908C37.596 39.743 37.6226 34.5355 37.6233 28.2185L37.6245 16.7332L35.747 14.9002C34.7145 13.8921 33.3626 12.5699 32.7431 11.9622L31.6166 10.8571V7.8817C31.6166 4.95759 31.6138 4.9036 31.4503 4.75562C31.2936 4.6138 31.104 4.60376 28.1817 4.58265L25.0794 4.56028L22.7794 2.30993C21.2358 0.799491 20.4247 0.0595703 20.3127 0.0595703C20.201 0.0595703 19.387 0.798147 17.8512 2.29277ZM21.9328 3.02297L23.5138 4.55846L20.3123 4.55783L17.1107 4.5572L18.6917 3.02028C19.5613 2.17499 20.2905 1.48431 20.3123 1.48542C20.334 1.48661 21.0632 2.17846 21.9328 3.02297ZM27.8024 5.74977L30.5099 5.75127L30.5055 14.0319L30.501 22.3125L25.4073 26.9985L20.3135 31.6844L15.2194 26.9985L10.1252 22.3125L10.1199 14.0329L10.1146 5.75333L12.8617 5.73253C14.3726 5.72107 17.7431 5.71997 20.3518 5.73001C22.9605 5.74004 26.3133 5.7489 27.8024 5.74977ZM19.3179 9.34028C17.3384 9.71791 15.8523 10.6909 14.7961 12.3008C13.6723 14.0137 13.2135 16.1612 13.5541 18.1142C13.7711 19.3583 14.1285 20.2057 14.7772 21.0141C16.187 22.7707 18.5024 23.6393 21.4476 23.5162C23.0983 23.4472 24.2355 23.1268 25.3947 22.4043C26.1866 21.9108 27.0316 21.1069 27.0316 20.8472C27.0316 20.5271 26.8217 20.2967 26.5301 20.2967C26.3271 20.2967 26.1942 20.3793 25.8824 20.6989C25.4028 21.1907 25.0073 21.471 24.2734 21.8393C23.4138 22.2707 22.6627 22.4363 21.3399 22.4857C20.0243 22.5349 19.1163 22.4129 18.0387 22.0418C16.6692 21.5702 15.6588 20.7208 15.105 19.5751C14.6281 18.5889 14.5084 18.0072 14.5134 16.6999C14.5186 15.3479 14.6691 14.7068 15.2645 13.4991C15.6149 12.7883 15.7703 12.5734 16.3525 11.9944C16.9089 11.4409 17.1674 11.2513 17.7826 10.9459C18.7893 10.446 19.2883 10.3239 20.5099 10.2789C21.7972 10.2313 22.5991 10.3997 23.6357 10.9351C26.1183 12.2173 26.8839 15.2184 25.338 17.608C24.8185 18.4112 23.7788 19.19 23.2262 19.19C22.9225 19.19 22.6836 18.9372 22.6847 18.6169C22.6852 18.4756 22.9342 17.205 23.2381 15.7934C23.5419 14.3819 23.7894 13.1546 23.788 13.0661C23.7823 12.7001 23.3192 12.4133 22.9567 12.5511C22.7432 12.6323 22.5772 12.9455 22.4839 13.443C22.4277 13.7429 22.4274 13.7431 22.3067 13.5615C22.0538 13.181 21.6019 12.7654 21.2213 12.5634C20.8785 12.3813 20.7318 12.3534 20.1146 12.3528C19.4609 12.3521 19.3591 12.3741 18.8613 12.6239C17.2081 13.4532 16.0461 15.7691 16.3512 17.6264C16.6184 19.2529 17.6565 20.3151 18.9769 20.3129C19.6308 20.3117 20.2088 20.0566 20.8172 19.5005C21.0517 19.2863 21.2606 19.111 21.2813 19.111C21.3021 19.111 21.3386 19.256 21.3624 19.4333C21.5468 20.8087 23.8885 20.6036 25.41 19.0789C26.6689 17.8175 27.2975 16.2059 27.1553 14.6052C26.9248 12.0121 25.2798 10.1215 22.6443 9.42068C21.9919 9.24716 20.0519 9.20028 19.3179 9.34028ZM9.00791 16.825C9.00791 19.4654 8.97905 21.1691 8.93462 21.1531C8.89431 21.1386 7.84601 20.1917 6.60506 19.0489L4.34877 16.9711L6.02617 15.3327C8.12403 13.2836 8.96285 12.4735 8.98814 12.4719C8.99905 12.4712 9.00791 14.4301 9.00791 16.825ZM34.5592 15.2931L36.2765 16.9727L34.0224 19.0498C32.7828 20.1921 31.7342 21.1386 31.6925 21.1531C31.6446 21.1698 31.6166 19.5687 31.6166 16.8117V12.4439L32.2292 13.0287C32.5662 13.3503 33.6147 14.3693 34.5592 15.2931ZM21.1016 13.6474C22.6538 14.5751 21.9768 18.0691 20.0592 19.0273C19.4961 19.3087 19.0913 19.3353 18.6688 19.1186C18.0085 18.78 17.6769 18.1325 17.673 17.1742C17.6698 16.3778 17.7971 15.8421 18.1813 15.0344C18.8856 13.5537 20.033 13.0088 21.1016 13.6474ZM10.2979 23.9615C13.545 26.9554 16.1994 29.4277 16.1967 29.4556C16.192 29.5041 4.30719 38.2528 4.17217 38.3072C4.13613 38.3218 4.10672 33.8287 4.10672 28.3226C4.10672 18.6581 4.1117 18.3151 4.25051 18.4147C4.32964 18.4716 7.05099 20.9676 10.2979 23.9615ZM36.4986 33.303L36.4783 38.3374L30.5889 34.0113C27.3498 31.6319 24.6358 29.6245 24.5579 29.5506C24.4077 29.4079 24.3693 29.4442 34.8148 19.8333L36.4783 18.3027L36.4986 23.2857C36.5098 26.0263 36.5098 30.5341 36.4986 33.303ZM18.5421 31.5666C19.32 32.2868 20.0365 32.9084 20.1344 32.948C20.2402 32.9909 20.3843 32.9913 20.4901 32.9491C20.588 32.91 21.3073 32.2876 22.0886 31.5659C22.9508 30.7695 23.5522 30.2702 23.6186 30.2956C23.7513 30.3466 34.9906 38.597 35.2112 38.8056C35.3634 38.9493 35.0021 38.9529 20.3129 38.9529C7.34964 38.9529 5.2747 38.9374 5.37439 38.8413C5.56134 38.6611 17.0155 30.2572 17.0742 30.2572C17.1036 30.2572 17.7641 30.8464 18.5421 31.5666Z" fill="white"/>
</g>
<defs>
<clipPath id="clip0_1580_15993">
<rect width="40" height="40" fill="white" transform="translate(0 0.0595703)"/>
</clipPath>
</defs>
</svg>
