<svg width="40" height="41" viewBox="0 0 40 41" fill="none" xmlns="http://www.w3.org/2000/svg">
<g clip-path="url(#clip0_1580_15999)">
<path fill-rule="evenodd" clip-rule="evenodd" d="M10.8657 0.22701C10.2932 0.446797 9.76115 0.986223 9.54371 1.56737C9.39604 1.9621 9.37627 2.17579 9.37627 3.37934V4.74369L8.61448 4.74377C4.89803 4.74432 1.53435 7.18533 0.432053 10.6818C-0.144018 12.5092 -0.144018 14.1673 0.432053 15.9948C1.53435 19.4912 4.89803 21.9322 8.61448 21.9328L9.37627 21.9328V30.0166C9.37627 38.0892 9.3765 38.101 9.54371 38.5479C9.76646 39.1433 10.2925 39.6694 10.8879 39.8921L11.3354 40.0596H24.6902H38.045L38.4926 39.8921C39.0879 39.6694 39.614 39.1433 39.8368 38.5479L40.0042 38.1004V23.2934C40.0042 10.579 39.9883 8.45647 39.8921 8.27528C39.7566 8.02041 31.9894 0.26467 31.7468 0.142002C31.6248 0.0803553 28.686 0.0569155 21.4334 0.0598064C11.3411 0.0638693 11.2884 0.0647288 10.8657 0.22701ZM30.6283 5.20881C30.6283 7.8261 30.6536 8.85479 30.7217 9.0041C30.9152 9.42898 30.9408 9.43164 34.8442 9.43164H38.4428L38.4226 23.7281L38.4025 38.0246L38.1858 38.2412L37.9692 38.4579H24.6902H11.4112L11.1946 38.2412L10.978 38.0246V29.8169V21.6092L11.6421 21.3592C14.3072 20.3558 16.2185 18.1863 16.9628 15.3195C17.115 14.7331 17.1424 14.4307 17.1424 13.3383C17.1424 12.2458 17.115 11.9434 16.9628 11.3571C16.2185 8.4903 14.3078 6.32134 11.6421 5.31718L10.978 5.067V3.58514C10.978 2.21322 10.9895 2.09039 11.1342 1.92975C11.2202 1.83427 11.3608 1.72747 11.4468 1.69223C11.5327 1.65707 15.8837 1.62605 21.1157 1.62332L30.6283 1.61839V5.20881ZM34.7693 5.32969L37.3077 7.86899H34.7493H32.191V5.32969C32.191 3.93307 32.1999 2.79038 32.211 2.79038C32.2219 2.79038 33.3732 3.93307 34.7693 5.32969ZM19.6202 4.85277C19.0966 5.14295 19.1138 5.96936 19.6485 6.21297C19.9415 6.3465 28.3451 6.3465 28.6381 6.21297C28.862 6.11093 29.0657 5.78332 29.0657 5.52502C29.0657 5.26671 28.862 4.9391 28.6381 4.83706C28.3261 4.69486 19.8784 4.70955 19.6202 4.85277ZM7.81362 9.93583C7.81362 12.5228 7.83893 13.5428 7.90699 13.692C8.10044 14.1166 8.12873 14.1196 11.9987 14.1196H15.5665L15.5126 14.4907C15.4259 15.0889 15.0199 16.2222 14.6659 16.8542C14.2348 17.6239 12.9886 18.8939 12.2236 19.3431C9.22469 21.1042 5.48629 20.4907 3.24599 17.8699C1.94548 16.3486 1.33636 14.1828 1.67053 12.2682C1.93454 10.7555 2.52139 9.57884 3.54219 8.51554C4.24937 7.77898 4.98483 7.25706 5.80819 6.90741C6.37512 6.66669 7.31584 6.40072 7.63782 6.39026L7.81362 6.38447V9.93583ZM10.2924 6.53964C12.8079 7.14275 14.8194 9.19966 15.4312 11.7948C15.6318 12.6454 15.9763 12.5569 12.4625 12.5569H9.37627V9.47071C9.37627 6.58332 9.3851 6.38447 9.513 6.38502C9.58824 6.38533 9.93898 6.45487 10.2924 6.53964ZM19.6202 7.97806C19.0966 8.26825 19.1138 9.09466 19.6485 9.33827C19.9415 9.4718 28.3451 9.4718 28.6381 9.33827C28.862 9.23623 29.0657 8.90862 29.0657 8.65032C29.0657 8.39201 28.862 8.0644 28.6381 7.96236C28.3261 7.82016 19.8784 7.83485 19.6202 7.97806ZM3.50758 12.6741C3.19497 12.844 3.09551 13.1749 3.15294 13.8539C3.27178 15.2601 3.98747 16.5986 5.13164 17.5544C5.9636 18.2495 7.02581 18.6912 8.07935 18.7803C8.76879 18.8386 9.09359 18.7368 9.26274 18.4098C9.56316 17.8288 9.18016 17.2449 8.49861 17.2449C8.10826 17.2449 7.26693 17.0098 6.7761 16.7637C6.52771 16.639 6.11564 16.3282 5.86031 16.0729C5.60497 15.8176 5.29416 15.4055 5.16954 15.1571C4.92342 14.6663 4.68832 13.825 4.68832 13.4346C4.68832 12.7514 4.08287 12.3615 3.50758 12.6741ZM19.1514 12.666C18.4741 13.0414 18.7575 14.1196 19.5335 14.1196C19.9294 14.1196 20.3148 13.7379 20.3148 13.3458C20.3148 12.7592 19.6665 12.3804 19.1514 12.666ZM22.2767 12.666C21.7531 12.9562 21.7703 13.7826 22.305 14.0262C22.5997 14.1605 34.594 14.1605 34.8887 14.0262C35.1126 13.9242 35.3162 13.5966 35.3162 13.3383C35.3162 13.08 35.1126 12.7523 34.8887 12.6503C34.5748 12.5072 22.5361 12.5222 22.2767 12.666ZM19.1514 15.7913C18.4741 16.1667 18.7575 17.2449 19.5335 17.2449C19.9294 17.2449 20.3148 16.8632 20.3148 16.4711C20.3148 15.8845 19.6665 15.5057 19.1514 15.7913ZM22.2767 15.7913C21.7531 16.0815 21.7703 16.9079 22.305 17.1515C22.5997 17.2858 34.594 17.2858 34.8887 17.1515C35.1126 17.0495 35.3162 16.7219 35.3162 16.4636C35.3162 16.2053 35.1126 15.8776 34.8887 15.7756C34.5748 15.6325 22.5361 15.6475 22.2767 15.7913ZM33.446 21.0102C32.2272 21.4782 31.6 23.0415 32.1773 24.1722L32.3433 24.4972L29.6607 27.3756L26.9781 30.2539L26.3225 30.2665C25.9619 30.2735 25.5759 30.2911 25.4647 30.3056C25.286 30.329 25.1246 30.1617 24.0752 28.8659L22.8879 27.3997L23.0077 26.9961C23.2644 26.1316 23.0556 25.2912 22.4281 24.6637C20.7291 22.9647 17.8606 24.672 18.5524 26.9706L18.6651 27.3451L17.2469 28.888L15.8287 30.4308L15.5226 30.3229C14.7719 30.058 13.8131 30.3023 13.201 30.9143C12.2819 31.8335 12.2819 33.2842 13.201 34.2034C14.9001 35.9024 17.7686 34.1951 17.0768 31.8965L16.964 31.522L18.3815 29.9799L19.799 28.4379L20.14 28.5541C20.3711 28.6329 20.6241 28.655 20.9253 28.6227C21.1697 28.5965 21.4606 28.5661 21.5718 28.5551C21.7481 28.5376 21.9258 28.7225 22.9613 30.0012L24.1486 31.4674L24.0288 31.8711C23.7721 32.7355 23.9809 33.5759 24.6084 34.2034C26.126 35.721 28.7251 34.5417 28.5772 32.4026C28.5564 32.1007 28.4748 31.7628 28.3761 31.5696L28.2101 31.2446L30.9015 28.357L33.5927 25.4693L34.1224 25.5059C35.1652 25.5778 36.1181 24.9746 36.4771 24.0153C37.1867 22.1185 35.3367 20.2843 33.446 21.0102ZM34.8457 22.677C35.123 22.9542 35.1142 23.4206 34.8261 23.7086C34.3544 24.1803 33.5618 23.8548 33.5618 23.1892C33.5618 22.492 34.347 22.1786 34.8457 22.677ZM21.3287 25.8023C21.6061 26.0795 21.5973 26.5459 21.3092 26.8339C20.8374 27.3056 20.0449 26.9801 20.0449 26.3145C20.0449 25.6173 20.8301 25.3039 21.3287 25.8023ZM15.3907 32.0529C15.668 32.3301 15.6592 32.7965 15.3711 33.0844C14.8994 33.5562 14.1068 33.2307 14.1068 32.5651C14.1068 31.8678 14.892 31.5545 15.3907 32.0529ZM26.798 32.0529C27.0754 32.3301 27.0666 32.7965 26.7785 33.0844C26.3067 33.5562 25.5141 33.2307 25.5141 32.5651C25.5141 31.8678 26.2994 31.5545 26.798 32.0529Z" fill="white"/>
</g>
<defs>
<clipPath id="clip0_1580_15999">
<rect width="40" height="40" fill="white" transform="translate(0 0.0595703)"/>
</clipPath>
</defs>
</svg>
