<svg width="40" height="40" viewBox="0 0 40 40" fill="none" xmlns="http://www.w3.org/2000/svg">
<g clip-path="url(#clip0_1580_16022)">
<path fill-rule="evenodd" clip-rule="evenodd" d="M10.8657 0.16744C10.2932 0.387226 9.76115 0.926653 9.54371 1.5078C9.39604 1.90253 9.37627 2.11622 9.37627 3.31977V4.68412L8.61448 4.6842C4.89803 4.68475 1.53435 7.12576 0.432053 10.6222C-0.144018 12.4496 -0.144018 14.1078 0.432053 15.9352C1.53435 19.4316 4.89803 21.8726 8.61448 21.8732L9.37627 21.8733V29.957C9.37627 38.0297 9.3765 38.0415 9.54371 38.4884C9.76646 39.0837 10.2925 39.6098 10.8879 39.8326L11.3354 40H24.6902H38.045L38.4926 39.8326C39.0879 39.6098 39.614 39.0837 39.8368 38.4884L40.0042 38.0408V23.2338C40.0042 10.5194 39.9883 8.3969 39.8921 8.21571C39.7566 7.96084 31.9894 0.205099 31.7468 0.0824315C31.6248 0.020785 28.686 -0.00265478 21.4334 0.00023612C11.3411 0.00429901 11.2884 0.00515847 10.8657 0.16744ZM30.6283 5.14924C30.6283 7.76653 30.6536 8.79522 30.7217 8.94453C30.9152 9.36941 30.9408 9.37207 34.8442 9.37207H38.4428L38.4226 23.6685L38.4025 37.965L38.1858 38.1816L37.9692 38.3983H24.6902H11.4112L11.1946 38.1816L10.978 37.965V29.7573V21.5496L11.6421 21.2996C14.3072 20.2962 16.2185 18.1267 16.9628 15.2599C17.115 14.6735 17.1424 14.3711 17.1424 13.2787C17.1424 12.1862 17.115 11.8839 16.9628 11.2975C16.2185 8.43073 14.3078 6.26177 11.6421 5.25761L10.978 5.00743V3.52557C10.978 2.15365 10.9895 2.03082 11.1342 1.87018C11.2202 1.7747 11.3608 1.6679 11.4468 1.63266C11.5327 1.5975 15.8837 1.56648 21.1157 1.56374L30.6283 1.55882V5.14924ZM34.7693 5.27011L37.3077 7.80942H34.7493H32.191V5.27011C32.191 3.8735 32.1999 2.73081 32.211 2.73081C32.2219 2.73081 33.3732 3.8735 34.7693 5.27011ZM19.6202 4.79319C19.0966 5.08338 19.1138 5.90979 19.6485 6.1534C19.9415 6.28693 28.3451 6.28693 28.6381 6.1534C28.862 6.05136 29.0657 5.72375 29.0657 5.46545C29.0657 5.20714 28.862 4.87953 28.6381 4.77749C28.3261 4.63529 19.8784 4.64998 19.6202 4.79319ZM7.81362 9.87626C7.81362 12.4632 7.83893 13.4832 7.90699 13.6325C8.10044 14.057 8.12873 14.06 11.9987 14.06H15.5665L15.5126 14.4311C15.4259 15.0293 15.0199 16.1626 14.6659 16.7947C14.2348 17.5643 12.9886 18.8343 12.2236 19.2836C9.22469 21.0447 5.48629 20.4312 3.24599 17.8104C1.94548 16.289 1.33636 14.1232 1.67053 12.2087C1.93454 10.6959 2.52139 9.51927 3.54219 8.45597C4.24937 7.71941 4.98483 7.19749 5.80819 6.84784C6.37512 6.60712 7.31584 6.34115 7.63782 6.33069L7.81362 6.3249V9.87626ZM10.2924 6.48007C12.8079 7.08318 14.8194 9.14009 15.4312 11.7352C15.6318 12.5858 15.9763 12.4974 12.4625 12.4974H9.37627V9.41114C9.37627 6.52375 9.3851 6.3249 9.513 6.32545C9.58824 6.32576 9.93898 6.3953 10.2924 6.48007ZM19.6202 7.91849C19.0966 8.20868 19.1138 9.03508 19.6485 9.2787C19.9415 9.41223 28.3451 9.41223 28.6381 9.2787C28.862 9.17666 29.0657 8.84905 29.0657 8.59074C29.0657 8.33244 28.862 8.00483 28.6381 7.90279C28.3261 7.76059 19.8784 7.77528 19.6202 7.91849ZM3.50758 12.6146C3.19497 12.7844 3.09551 13.1153 3.15294 13.7943C3.27178 15.2005 3.98747 16.539 5.13164 17.4949C5.9636 18.1899 7.02581 18.6316 8.07935 18.7207C8.76879 18.779 9.09359 18.6773 9.26274 18.3502C9.56316 17.7692 9.18016 17.1853 8.49861 17.1853C8.10826 17.1853 7.26693 16.9502 6.7761 16.7041C6.52771 16.5795 6.11564 16.2687 5.86031 16.0133C5.60497 15.758 5.29416 15.3459 5.16954 15.0975C4.92342 14.6067 4.68832 13.7654 4.68832 13.375C4.68832 12.6918 4.08287 12.3019 3.50758 12.6146ZM19.1514 12.6064C18.4741 12.9819 18.7575 14.06 19.5335 14.06C19.9294 14.06 20.3148 13.6783 20.3148 13.2863C20.3148 12.6997 19.6665 12.3209 19.1514 12.6064ZM22.2767 12.6064C21.7531 12.8966 21.7703 13.723 22.305 13.9666C22.5997 14.101 34.594 14.101 34.8887 13.9666C35.1126 13.8646 35.3162 13.537 35.3162 13.2787C35.3162 13.0204 35.1126 12.6928 34.8887 12.5907C34.5748 12.4477 22.5361 12.4627 22.2767 12.6064ZM19.1514 15.7317C18.4741 16.1072 18.7575 17.1853 19.5335 17.1853C19.9294 17.1853 20.3148 16.8036 20.3148 16.4116C20.3148 15.825 19.6665 15.4462 19.1514 15.7317ZM22.2767 15.7317C21.7531 16.0219 21.7703 16.8483 22.305 17.0919C22.5997 17.2263 34.594 17.2263 34.8887 17.0919C35.1126 16.9899 35.3162 16.6623 35.3162 16.404C35.3162 16.1457 35.1126 15.8181 34.8887 15.716C34.5748 15.573 22.5361 15.588 22.2767 15.7317ZM33.446 20.9507C32.2272 21.4186 31.6 22.982 32.1773 24.1126L32.3433 24.4377L29.6607 27.3161L26.9781 30.1944L26.3225 30.207C25.9619 30.2139 25.5759 30.2315 25.4647 30.246C25.286 30.2695 25.1246 30.1022 24.0752 28.8063L22.8879 27.3401L23.0077 26.9365C23.2644 26.072 23.0556 25.2316 22.4281 24.6042C20.7291 22.9052 17.8606 24.6124 18.5524 26.911L18.6651 27.2856L17.2469 28.8285L15.8287 30.3713L15.5226 30.2633C14.7719 29.9984 13.8131 30.2427 13.201 30.8547C12.2819 31.7739 12.2819 33.2247 13.201 34.1438C14.9001 35.8428 17.7686 34.1355 17.0768 31.837L16.964 31.4624L18.3815 29.9204L19.799 28.3783L20.14 28.4945C20.3711 28.5733 20.6241 28.5954 20.9253 28.5631C21.1697 28.537 21.4606 28.5066 21.5718 28.4955C21.7481 28.478 21.9258 28.663 22.9613 29.9416L24.1486 31.4079L24.0288 31.8115C23.7721 32.6759 23.9809 33.5163 24.6084 34.1438C26.126 35.6615 28.7251 34.4821 28.5772 32.343C28.5564 32.0411 28.4748 31.7033 28.3761 31.51L28.2101 31.185L30.9015 28.2974L33.5927 25.4098L34.1224 25.4463C35.1652 25.5182 36.1181 24.915 36.4771 23.9557C37.1867 22.0589 35.3367 20.2247 33.446 20.9507ZM34.8457 22.6174C35.123 22.8946 35.1142 23.361 34.8261 23.649C34.3544 24.1207 33.5618 23.7952 33.5618 23.1296C33.5618 22.4324 34.347 22.1191 34.8457 22.6174ZM21.3287 25.7427C21.6061 26.0199 21.5973 26.4863 21.3092 26.7743C20.8374 27.246 20.0449 26.9205 20.0449 26.2549C20.0449 25.5577 20.8301 25.2444 21.3287 25.7427ZM15.3907 31.9933C15.668 32.2705 15.6592 32.7369 15.3711 33.0249C14.8994 33.4966 14.1068 33.1711 14.1068 32.5055C14.1068 31.8083 14.892 31.495 15.3907 31.9933ZM26.798 31.9933C27.0754 32.2705 27.0666 32.7369 26.7785 33.0249C26.3067 33.4966 25.5141 33.1711 25.5141 32.5055C25.5141 31.8083 26.2994 31.495 26.798 31.9933Z" fill="white"/>
</g>
<defs>
<clipPath id="clip0_1580_16022">
<rect width="40" height="40" fill="white"/>
</clipPath>
</defs>
</svg>
