<svg width="40" height="40" viewBox="0 0 40 40" fill="none" xmlns="http://www.w3.org/2000/svg">
<path fill-rule="evenodd" clip-rule="evenodd" d="M3.27433 2.10751C1.72619 2.52564 0.582635 3.63524 0.131434 5.15718C0.0136332 5.5545 0 6.66915 0 15.8978C0 25.1324 0.0135516 26.2409 0.131597 26.6385C0.579533 28.1473 1.66945 29.2372 3.17825 29.6852C3.49875 29.7803 3.95607 29.8167 4.82819 29.8167H6.03485L6.05836 33.5516L6.08187 37.2864L6.30857 37.672C6.75186 38.4262 7.76414 38.7597 8.51168 38.3978C8.77757 38.2692 9.9061 37.1425 12.8964 34.0207L16.9231 29.8167H26.6578C36.1018 29.8167 36.4079 29.8119 36.9112 29.6564C38.3137 29.2231 39.3297 28.224 39.8149 26.801L39.9973 26.2656L39.9994 15.9762C40.0017 4.89251 40.015 5.26249 39.5845 4.40515C39.1057 3.45156 38.1937 2.63504 37.1562 2.23102L36.6137 2.01975L20.1641 2.00424C5.98513 1.99085 3.65369 2.00505 3.27433 2.10751ZM36.5928 3.88447C37.133 4.0942 37.7439 4.67022 38.0178 5.22779L38.2464 5.69336V15.8978V26.1023L38.0325 26.5583C37.7607 27.138 37.3228 27.5758 36.7431 27.8477L36.2871 28.0616L26.2315 28.1024C16.33 28.1426 16.1726 28.1457 15.9708 28.3065C15.858 28.3963 13.991 30.3198 11.8218 32.5809L7.87786 36.692L7.83704 32.7033C7.80757 29.8251 7.76904 28.6673 7.69867 28.5447C7.47662 28.1579 7.41441 28.1453 5.5185 28.1024C3.7848 28.0631 3.69696 28.0533 3.26543 27.8483C2.69431 27.577 2.23976 27.1224 1.96848 26.5513L1.75517 26.1023V15.8978V5.69336L1.93159 5.31163C2.30336 4.50727 3.05498 3.92039 3.89664 3.77729C4.11069 3.74088 11.4678 3.71622 20.2457 3.72259C35.5393 3.73361 36.2217 3.74039 36.5928 3.88447ZM9.16411 9.89997C9.06337 9.94047 8.90549 10.0943 8.81332 10.2417C8.58613 10.605 8.64875 11.0087 8.97839 11.3058L9.22746 11.5303H13.9265H18.6255L18.8642 11.2917C19.2755 10.8803 19.1606 10.174 18.6388 9.90716C18.4187 9.79458 9.44314 9.78781 9.16411 9.89997ZM9.16411 15.1247C9.06337 15.1652 8.90549 15.319 8.81332 15.4664C8.58613 15.8297 8.64875 16.2334 8.97839 16.5305L9.22746 16.755H20.0008H30.7741L31.0232 16.5305C31.4844 16.1147 31.3672 15.3313 30.8121 15.1203C30.5412 15.0172 9.42069 15.0215 9.16411 15.1247ZM9.16411 20.3494C9.06337 20.3899 8.90549 20.5437 8.81332 20.6911C8.58613 21.0544 8.64875 21.4581 8.97839 21.7552L9.22746 21.9797L18.2673 21.9779C26.7092 21.9762 27.3187 21.9667 27.4813 21.8351C27.9288 21.4726 27.9611 20.9438 27.5603 20.5429L27.2827 20.2654L18.315 20.2705C13.1891 20.2735 9.26885 20.3072 9.16411 20.3494Z" fill="white"/>
</svg>
