<svg width="40" height="40" viewBox="0 0 40 40" fill="none" xmlns="http://www.w3.org/2000/svg">
<path fill-rule="evenodd" clip-rule="evenodd" d="M22.9363 3.01063C19.8026 3.12279 16.6041 4.04221 14.0649 5.56088C11.9761 6.81014 10.1037 8.63786 9.02672 10.479C8.72432 10.996 8.72291 10.9971 8.05299 11.248C2.58747 13.2948 -0.649976 18.0213 0.109909 22.8444C0.448035 24.9903 1.3884 26.8093 3.06746 28.5656L3.45131 28.9672L3.36424 32.1219C3.22073 37.3205 3.22042 37.2075 3.37745 37.4476C3.71042 37.9569 4.32469 38.0698 4.79803 37.7087C4.94787 37.5944 6.30397 36.3586 7.81147 34.9624C9.31905 33.5662 10.5868 32.4239 10.6288 32.4239C10.6707 32.4239 11.0653 32.4781 11.5057 32.5445C12.5552 32.7026 14.7599 32.7021 15.9584 32.5435C18.3298 32.2296 20.7966 31.2976 22.5998 30.034L23.2048 29.6101L23.8131 29.6098C24.7386 29.6094 26.0999 29.4707 27.3031 29.2543C28.19 29.0947 28.4093 29.0774 28.5086 29.1588C28.5754 29.2136 29.6879 30.2384 30.9809 31.4362C32.2738 32.6341 33.4372 33.6824 33.5662 33.7658C33.941 34.0083 34.4295 33.9218 34.7673 33.5532L35.0359 33.2601L34.9841 31.142C34.9557 29.977 34.9101 28.3556 34.8828 27.5388L34.8332 26.0537L35.5581 25.4337C40.1659 21.4929 41.3151 15.4923 38.411 10.5367C36.601 7.44817 33.1583 4.92184 29.1928 3.77216C27.3257 3.23089 24.9301 2.93927 22.9363 3.01063ZM25.6719 5.073C27.9929 5.31225 30.5085 6.14287 32.4125 7.2988C37.5212 10.4003 39.3999 15.7789 37.0253 20.5043C36.3888 21.7711 35.1029 23.2955 33.7878 24.3424C33.3903 24.6589 33.0234 24.9956 32.9725 25.0907C32.9032 25.2201 32.8943 25.9269 32.9367 27.9058C32.9679 29.359 32.9736 30.548 32.9495 30.548C32.9254 30.548 32.1497 29.8472 31.2258 28.9907C29.424 27.3202 29.132 27.0762 28.854 27.0089C28.7557 26.9852 28.316 27.0461 27.877 27.1445C25.6431 27.6452 23.6831 27.7524 21.5293 27.4919C15.9857 26.8213 11.4205 23.6367 9.88736 19.3709C9.21392 17.4971 9.19211 15.1829 9.83069 13.3479C11.3562 8.96349 16.0713 5.68305 21.7247 5.07284C23.1133 4.92293 24.2162 4.92301 25.6719 5.073ZM14.5563 13.5833C12.664 14.273 11.8599 16.4531 12.8645 18.1707C12.9687 18.3488 13.2298 18.659 13.4447 18.8601C14.6908 20.0256 16.5834 19.987 17.8008 18.7712C19.3396 17.2344 18.8802 14.6584 16.9002 13.7206C16.442 13.5035 16.276 13.4674 15.6672 13.4523C15.1373 13.4392 14.8633 13.4714 14.5563 13.5833ZM22.9363 13.5359C22.0635 13.8249 21.3794 14.4202 20.9916 15.2284C20.7663 15.6977 20.7477 15.7989 20.7477 16.5571C20.7477 17.3118 20.7671 17.4187 20.9886 17.8861C21.5759 19.1254 22.9201 19.8597 24.2669 19.677C25.2762 19.54 26.2347 18.8292 26.6816 17.8861C26.9031 17.4187 26.9225 17.3118 26.9225 16.5571C26.9225 15.7989 26.9039 15.6977 26.6786 15.2284C26.3732 14.592 25.8246 14.0435 25.1726 13.7226C24.7397 13.5094 24.5751 13.473 23.9603 13.4541C23.5211 13.4407 23.1293 13.4719 22.9363 13.5359ZM30.9998 13.6219C30.382 13.8759 29.9823 14.1654 29.6184 14.6225C28.6276 15.8669 28.7424 17.6447 29.8875 18.7898C31.6189 20.5211 34.5278 19.6967 35.1451 17.2996C35.3864 16.3626 35.1098 15.2325 34.457 14.4883C33.6205 13.5348 32.1238 13.1597 30.9998 13.6219ZM7.60926 14.0559C7.33539 15.344 7.3228 17.198 7.57964 18.433C8.26512 21.729 10.3785 24.6425 13.6121 26.7491C15.2467 27.8141 17.2547 28.6364 19.4581 29.1434L20.0443 29.2782L19.4971 29.532C18.7191 29.8928 17.5068 30.2762 16.5176 30.4743C15.3054 30.7171 12.9647 30.7725 11.7201 30.5879C10.2112 30.3641 10.0269 30.3564 9.79599 30.5077C9.6825 30.5821 8.62458 31.5396 7.44505 32.6355C6.26559 33.7314 5.28904 34.6158 5.27505 34.6008C5.26106 34.5857 5.27919 33.6588 5.3153 32.5411C5.35149 31.4234 5.38284 29.9696 5.38502 29.3105L5.38901 28.1119L4.5469 27.2392C3.61412 26.2723 3.11139 25.5679 2.65868 24.593C1.05152 21.1324 2.29225 17.158 5.75903 14.6619C6.27567 14.2899 7.66171 13.485 7.70368 13.5326C7.71119 13.541 7.66867 13.7765 7.60926 14.0559ZM16.0917 15.4991C16.6812 15.804 16.9212 16.4574 16.6602 17.0474C16.2877 17.8894 15.1457 17.9926 14.5812 17.2353C14.3397 16.9114 14.3512 16.2189 14.6039 15.8646C14.9226 15.4178 15.6086 15.2493 16.0917 15.4991ZM24.4416 15.5406C25.1968 16.001 25.1968 17.1042 24.4416 17.5782C24.0803 17.805 23.3742 17.7591 23.0862 17.4901C22.2517 16.7105 22.7232 15.3852 23.8351 15.3852C24.0485 15.3852 24.287 15.4464 24.4416 15.5406ZM32.6686 15.5296C33.7401 16.0998 33.3041 17.7426 32.0811 17.7426C31.0153 17.7426 30.4928 16.4877 31.2447 15.7338C31.3608 15.6174 31.5262 15.4934 31.6122 15.4584C31.8868 15.3464 32.3877 15.3801 32.6686 15.5296Z" fill="white"/>
</svg>
