<svg width="42" height="42" viewBox="0 0 42 42" fill="none" xmlns="http://www.w3.org/2000/svg">
<path d="M2.85645 19.4756H40.9992V39.2065C40.9992 39.6823 40.8165 40.1385 40.4914 40.4749C40.1662 40.8113 39.7252 41.0003 39.2654 41.0003H4.59021C4.13038 41.0003 3.6894 40.8113 3.36425 40.4749C3.03911 40.1385 2.85645 39.6823 2.85645 39.2065V19.4756Z" stroke="white" stroke-width="2" stroke-linecap="round" stroke-linejoin="round"/>
<path d="M2.85734 19.4754L39.6998 9.25118L37.901 2.32293C37.8433 2.09491 37.7422 1.8811 37.6037 1.69401C37.4651 1.50692 37.2919 1.35032 37.0941 1.23338C36.8963 1.11645 36.6779 1.04153 36.4518 1.01301C36.2256 0.984496 35.9963 1.00296 35.7771 1.06732L2.29387 10.3498C2.07306 10.4098 1.86585 10.5142 1.68416 10.6572C1.50246 10.8002 1.34984 10.9789 1.23507 11.183C1.12029 11.3872 1.04562 11.6128 1.01533 11.8469C0.985039 12.081 0.999734 12.3189 1.05857 12.5471L2.85734 19.4754Z" stroke="white" stroke-width="2" stroke-linecap="round" stroke-linejoin="round"/>
<path d="M22.3838 4.7666L33.0031 11.1119" stroke="white" stroke-width="2" stroke-linecap="round" stroke-linejoin="round"/>
<path d="M7.32129 8.95996L17.9189 15.3053" stroke="white" stroke-width="2" stroke-linecap="round" stroke-linejoin="round"/>
</svg>
