<svg width="40" height="40" viewBox="0 0 40 40" fill="none" xmlns="http://www.w3.org/2000/svg">
<g clip-path="url(#clip0_1173_6691)">
<path d="M2.94043 9.82339V9.82339C2.94043 8.53806 3.9824 7.49609 5.26773 7.49609H6.49549C7.78082 7.49609 8.82278 8.53806 8.82278 9.82339V9.82339" stroke="white" stroke-linecap="round"/>
<path d="M0.293945 16.9268H9.11748" stroke="white"/>
<path d="M30.8828 16.9268H39.7063" stroke="white"/>
<path d="M8.23529 31.1821H2.38235C1.06662 31.1821 0 30.1159 0 28.8002C0 24.198 0 19.2093 0 12.6195C0 11.3037 1.06662 10.2364 2.38235 10.2364H9.67647C10.9922 10.2364 12.0588 9.1698 12.0588 7.85406V7.38235C12.0588 6.06661 13.1254 5 14.4412 5H25.5588C26.8746 5 27.9412 6.06662 27.9412 7.38235V7.85406C27.9412 9.1698 29.0078 10.2364 30.3235 10.2364H37.6177C38.9334 10.2364 40 11.303 40 12.6188V28.7997C40 30.1155 38.9334 31.1821 37.6176 31.1821H30.2941" stroke="white" stroke-width="2" stroke-linecap="round" stroke-linejoin="round"/>
<path d="M31.8533 21.8716C31.8533 28.3383 26.5518 33.5899 20.0004 33.5899C13.449 33.5899 8.14746 28.3383 8.14746 21.8716C8.14746 15.4049 13.449 10.1533 20.0004 10.1533C26.5518 10.1533 31.8533 15.4049 31.8533 21.8716Z" stroke="white"/>
<path d="M28.3228 21.8729C28.3228 26.4116 24.6015 30.1002 19.9993 30.1002C15.3972 30.1002 11.6758 26.4116 11.6758 21.8729C11.6758 17.3342 15.3972 13.6455 19.9993 13.6455C24.6015 13.6455 28.3228 17.3342 28.3228 21.8729Z" stroke="white"/>
</g>
<defs>
<clipPath id="clip0_1173_6691">
<rect width="40" height="40" fill="white"/>
</clipPath>
</defs>
</svg>
