<svg width="131" height="132" viewBox="0 0 131 132" fill="none" xmlns="http://www.w3.org/2000/svg">
<g opacity="0.4">
<circle cx="47.5" cy="65.9902" r="2.5" fill="#DBDBDB"/>
<circle cx="47.5" cy="29.9902" r="2.5" fill="#DBDBDB"/>
<circle cx="47.5" cy="101.99" r="2.5" fill="#DBDBDB"/>
<circle cx="47.5" cy="11.9902" r="2.5" fill="#DBDBDB"/>
<circle cx="47.5" cy="83.9902" r="2.5" fill="#DBDBDB"/>
<circle cx="47.5" cy="47.9902" r="2.5" fill="#DBDBDB"/>
<circle cx="47.5" cy="119.99" r="2.5" fill="#DBDBDB"/>
<circle cx="47.5" cy="2.99023" r="2.5" fill="#DBDBDB"/>
<circle cx="47.5" cy="74.9902" r="2.5" fill="#DBDBDB"/>
<circle cx="47.5" cy="38.9902" r="2.5" fill="#DBDBDB"/>
<circle cx="47.5" cy="110.99" r="2.5" fill="#DBDBDB"/>
<circle cx="47.5" cy="20.9902" r="2.5" fill="#DBDBDB"/>
<circle cx="47.5" cy="92.9902" r="2.5" fill="#DBDBDB"/>
<circle cx="47.5" cy="56.9902" r="2.5" fill="#DBDBDB"/>
<circle cx="47.5" cy="128.99" r="2.5" fill="#DBDBDB"/>
<circle cx="56.5" cy="65.9902" r="2.5" fill="#DBDBDB"/>
<circle cx="56.5" cy="29.9902" r="2.5" fill="#DBDBDB"/>
<circle cx="56.5" cy="101.99" r="2.5" fill="#DBDBDB"/>
<circle cx="56.5" cy="11.9902" r="2.5" fill="#DBDBDB"/>
<circle cx="56.5" cy="83.9902" r="2.5" fill="#DBDBDB"/>
<circle cx="56.5" cy="47.9902" r="2.5" fill="#DBDBDB"/>
<circle cx="56.5" cy="119.99" r="2.5" fill="#DBDBDB"/>
<circle cx="56.5" cy="2.99023" r="2.5" fill="#DBDBDB"/>
<circle cx="56.5" cy="74.9902" r="2.5" fill="#DBDBDB"/>
<circle cx="56.5" cy="38.9902" r="2.5" fill="#DBDBDB"/>
<circle cx="56.5" cy="110.99" r="2.5" fill="#DBDBDB"/>
<circle cx="56.5" cy="20.9902" r="2.5" fill="#DBDBDB"/>
<circle cx="56.5" cy="92.9902" r="2.5" fill="#DBDBDB"/>
<circle cx="56.5" cy="56.9902" r="2.5" fill="#DBDBDB"/>
<circle cx="56.5" cy="128.99" r="2.5" fill="#DBDBDB"/>
<circle cx="65.5" cy="65.9902" r="2.5" fill="#DBDBDB"/>
<circle cx="65.5" cy="29.9902" r="2.5" fill="#DBDBDB"/>
<circle cx="65.5" cy="101.99" r="2.5" fill="#DBDBDB"/>
<circle cx="65.5" cy="11.9902" r="2.5" fill="#DBDBDB"/>
<circle cx="65.5" cy="83.9902" r="2.5" fill="#DBDBDB"/>
<circle cx="65.5" cy="47.9902" r="2.5" fill="#DBDBDB"/>
<circle cx="65.5" cy="119.99" r="2.5" fill="#DBDBDB"/>
<circle cx="65.5" cy="2.99023" r="2.5" fill="#DBDBDB"/>
<circle cx="65.5" cy="74.9902" r="2.5" fill="#DBDBDB"/>
<circle cx="65.5" cy="38.9902" r="2.5" fill="#DBDBDB"/>
<circle cx="65.5" cy="110.99" r="2.5" fill="#DBDBDB"/>
<circle cx="65.5" cy="20.9902" r="2.5" fill="#DBDBDB"/>
<circle cx="65.5" cy="92.9902" r="2.5" fill="#DBDBDB"/>
<circle cx="65.5" cy="56.9902" r="2.5" fill="#DBDBDB"/>
<circle cx="65.5" cy="128.99" r="2.5" fill="#DBDBDB"/>
<circle cx="74.5" cy="65.9902" r="2.5" fill="#DBDBDB"/>
<circle cx="74.5" cy="29.9902" r="2.5" fill="#DBDBDB"/>
<circle cx="74.5" cy="101.99" r="2.5" fill="#DBDBDB"/>
<circle cx="74.5" cy="11.9902" r="2.5" fill="#DBDBDB"/>
<circle cx="74.5" cy="83.9902" r="2.5" fill="#DBDBDB"/>
<circle cx="74.5" cy="47.9902" r="2.5" fill="#DBDBDB"/>
<circle cx="74.5" cy="119.99" r="2.5" fill="#DBDBDB"/>
<circle cx="74.5" cy="2.99023" r="2.5" fill="#DBDBDB"/>
<circle cx="74.5" cy="74.9902" r="2.5" fill="#DBDBDB"/>
<circle cx="74.5" cy="38.9902" r="2.5" fill="#DBDBDB"/>
<circle cx="74.5" cy="110.99" r="2.5" fill="#DBDBDB"/>
<circle cx="74.5" cy="20.9902" r="2.5" fill="#DBDBDB"/>
<circle cx="74.5" cy="92.9902" r="2.5" fill="#DBDBDB"/>
<circle cx="74.5" cy="56.9902" r="2.5" fill="#DBDBDB"/>
<circle cx="74.5" cy="128.99" r="2.5" fill="#DBDBDB"/>
<circle cx="83.5" cy="65.9902" r="2.5" fill="#DBDBDB"/>
<circle cx="83.5" cy="29.9902" r="2.5" fill="#DBDBDB"/>
<circle cx="83.5" cy="101.99" r="2.5" fill="#DBDBDB"/>
<circle cx="83.5" cy="11.9902" r="2.5" fill="#DBDBDB"/>
<circle cx="83.5" cy="83.9902" r="2.5" fill="#DBDBDB"/>
<circle cx="83.5" cy="47.9902" r="2.5" fill="#DBDBDB"/>
<circle cx="83.5" cy="119.99" r="2.5" fill="#DBDBDB"/>
<circle cx="83.5" cy="2.99023" r="2.5" fill="#DBDBDB"/>
<circle cx="83.5" cy="74.9902" r="2.5" fill="#DBDBDB"/>
<circle cx="83.5" cy="38.9902" r="2.5" fill="#DBDBDB"/>
<circle cx="83.5" cy="110.99" r="2.5" fill="#DBDBDB"/>
<circle cx="83.5" cy="20.9902" r="2.5" fill="#DBDBDB"/>
<circle cx="83.5" cy="92.9902" r="2.5" fill="#DBDBDB"/>
<circle cx="83.5" cy="56.9902" r="2.5" fill="#DBDBDB"/>
<circle cx="83.5" cy="128.99" r="2.5" fill="#DBDBDB"/>
<circle cx="2.5" cy="65.9902" r="2.5" fill="#DBDBDB"/>
<circle cx="92.5" cy="65.9902" r="2.5" fill="#DBDBDB"/>
<circle cx="2.5" cy="29.9902" r="2.5" fill="#DBDBDB"/>
<circle cx="92.5" cy="29.9902" r="2.5" fill="#DBDBDB"/>
<circle cx="2.5" cy="101.99" r="2.5" fill="#DBDBDB"/>
<circle cx="92.5" cy="101.99" r="2.5" fill="#DBDBDB"/>
<circle cx="2.5" cy="11.9902" r="2.5" fill="#DBDBDB"/>
<circle cx="92.5" cy="11.9902" r="2.5" fill="#DBDBDB"/>
<circle cx="2.5" cy="83.9902" r="2.5" fill="#DBDBDB"/>
<circle cx="92.5" cy="83.9902" r="2.5" fill="#DBDBDB"/>
<circle cx="2.5" cy="47.9902" r="2.5" fill="#DBDBDB"/>
<circle cx="92.5" cy="47.9902" r="2.5" fill="#DBDBDB"/>
<circle cx="2.5" cy="119.99" r="2.5" fill="#DBDBDB"/>
<circle cx="92.5" cy="119.99" r="2.5" fill="#DBDBDB"/>
<circle cx="2.5" cy="2.99023" r="2.5" fill="#DBDBDB"/>
<circle cx="92.5" cy="2.99023" r="2.5" fill="#DBDBDB"/>
<circle cx="2.5" cy="74.9902" r="2.5" fill="#DBDBDB"/>
<circle cx="92.5" cy="74.9902" r="2.5" fill="#DBDBDB"/>
<circle cx="2.5" cy="38.9902" r="2.5" fill="#DBDBDB"/>
<circle cx="92.5" cy="38.9902" r="2.5" fill="#DBDBDB"/>
<circle cx="2.5" cy="110.99" r="2.5" fill="#DBDBDB"/>
<circle cx="92.5" cy="110.99" r="2.5" fill="#DBDBDB"/>
<circle cx="2.5" cy="20.9902" r="2.5" fill="#DBDBDB"/>
<circle cx="92.5" cy="20.9902" r="2.5" fill="#DBDBDB"/>
<circle cx="2.5" cy="92.9902" r="2.5" fill="#DBDBDB"/>
<circle cx="92.5" cy="92.9902" r="2.5" fill="#DBDBDB"/>
<circle cx="2.5" cy="56.9902" r="2.5" fill="#DBDBDB"/>
<circle cx="92.5" cy="56.9902" r="2.5" fill="#DBDBDB"/>
<circle cx="2.5" cy="128.99" r="2.5" fill="#DBDBDB"/>
<circle cx="92.5" cy="128.99" r="2.5" fill="#DBDBDB"/>
<circle cx="11.5" cy="65.9902" r="2.5" fill="#DBDBDB"/>
<circle cx="101.5" cy="65.9902" r="2.5" fill="#DBDBDB"/>
<circle cx="11.5" cy="29.9902" r="2.5" fill="#DBDBDB"/>
<circle cx="101.5" cy="29.9902" r="2.5" fill="#DBDBDB"/>
<circle cx="11.5" cy="101.99" r="2.5" fill="#DBDBDB"/>
<circle cx="101.5" cy="101.99" r="2.5" fill="#DBDBDB"/>
<circle cx="11.5" cy="11.9902" r="2.5" fill="#DBDBDB"/>
<circle cx="101.5" cy="11.9902" r="2.5" fill="#DBDBDB"/>
<circle cx="11.5" cy="83.9902" r="2.5" fill="#DBDBDB"/>
<circle cx="101.5" cy="83.9902" r="2.5" fill="#DBDBDB"/>
<circle cx="11.5" cy="47.9902" r="2.5" fill="#DBDBDB"/>
<circle cx="101.5" cy="47.9902" r="2.5" fill="#DBDBDB"/>
<circle cx="11.5" cy="119.99" r="2.5" fill="#DBDBDB"/>
<circle cx="101.5" cy="119.99" r="2.5" fill="#DBDBDB"/>
<circle cx="11.5" cy="2.99023" r="2.5" fill="#DBDBDB"/>
<circle cx="101.5" cy="2.99023" r="2.5" fill="#DBDBDB"/>
<circle cx="11.5" cy="74.9902" r="2.5" fill="#DBDBDB"/>
<circle cx="101.5" cy="74.9902" r="2.5" fill="#DBDBDB"/>
<circle cx="11.5" cy="38.9902" r="2.5" fill="#DBDBDB"/>
<circle cx="101.5" cy="38.9902" r="2.5" fill="#DBDBDB"/>
<circle cx="11.5" cy="110.99" r="2.5" fill="#DBDBDB"/>
<circle cx="101.5" cy="110.99" r="2.5" fill="#DBDBDB"/>
<circle cx="11.5" cy="20.9902" r="2.5" fill="#DBDBDB"/>
<circle cx="101.5" cy="20.9902" r="2.5" fill="#DBDBDB"/>
<circle cx="11.5" cy="92.9902" r="2.5" fill="#DBDBDB"/>
<circle cx="101.5" cy="92.9902" r="2.5" fill="#DBDBDB"/>
<circle cx="11.5" cy="56.9902" r="2.5" fill="#DBDBDB"/>
<circle cx="101.5" cy="56.9902" r="2.5" fill="#DBDBDB"/>
<circle cx="11.5" cy="128.99" r="2.5" fill="#DBDBDB"/>
<circle cx="101.5" cy="128.99" r="2.5" fill="#DBDBDB"/>
<circle cx="20.5" cy="65.9902" r="2.5" fill="#DBDBDB"/>
<circle cx="110.5" cy="65.9902" r="2.5" fill="#DBDBDB"/>
<circle cx="20.5" cy="29.9902" r="2.5" fill="#DBDBDB"/>
<circle cx="110.5" cy="29.9902" r="2.5" fill="#DBDBDB"/>
<circle cx="20.5" cy="101.99" r="2.5" fill="#DBDBDB"/>
<circle cx="110.5" cy="101.99" r="2.5" fill="#DBDBDB"/>
<circle cx="20.5" cy="11.9902" r="2.5" fill="#DBDBDB"/>
<circle cx="110.5" cy="11.9902" r="2.5" fill="#DBDBDB"/>
<circle cx="20.5" cy="83.9902" r="2.5" fill="#DBDBDB"/>
<circle cx="110.5" cy="83.9902" r="2.5" fill="#DBDBDB"/>
<circle cx="20.5" cy="47.9902" r="2.5" fill="#DBDBDB"/>
<circle cx="110.5" cy="47.9902" r="2.5" fill="#DBDBDB"/>
<circle cx="20.5" cy="119.99" r="2.5" fill="#DBDBDB"/>
<circle cx="110.5" cy="119.99" r="2.5" fill="#DBDBDB"/>
<circle cx="20.5" cy="2.99023" r="2.5" fill="#DBDBDB"/>
<circle cx="110.5" cy="2.99023" r="2.5" fill="#DBDBDB"/>
<circle cx="20.5" cy="74.9902" r="2.5" fill="#DBDBDB"/>
<circle cx="110.5" cy="74.9902" r="2.5" fill="#DBDBDB"/>
<circle cx="20.5" cy="38.9902" r="2.5" fill="#DBDBDB"/>
<circle cx="110.5" cy="38.9902" r="2.5" fill="#DBDBDB"/>
<circle cx="20.5" cy="110.99" r="2.5" fill="#DBDBDB"/>
<circle cx="110.5" cy="110.99" r="2.5" fill="#DBDBDB"/>
<circle cx="20.5" cy="20.9902" r="2.5" fill="#DBDBDB"/>
<circle cx="110.5" cy="20.9902" r="2.5" fill="#DBDBDB"/>
<circle cx="20.5" cy="92.9902" r="2.5" fill="#DBDBDB"/>
<circle cx="110.5" cy="92.9902" r="2.5" fill="#DBDBDB"/>
<circle cx="20.5" cy="56.9902" r="2.5" fill="#DBDBDB"/>
<circle cx="110.5" cy="56.9902" r="2.5" fill="#DBDBDB"/>
<circle cx="20.5" cy="128.99" r="2.5" fill="#DBDBDB"/>
<circle cx="110.5" cy="128.99" r="2.5" fill="#DBDBDB"/>
<circle cx="29.5" cy="65.9902" r="2.5" fill="#DBDBDB"/>
<circle cx="119.5" cy="65.9902" r="2.5" fill="#DBDBDB"/>
<circle cx="29.5" cy="29.9902" r="2.5" fill="#DBDBDB"/>
<circle cx="119.5" cy="29.9902" r="2.5" fill="#DBDBDB"/>
<circle cx="29.5" cy="101.99" r="2.5" fill="#DBDBDB"/>
<circle cx="119.5" cy="101.99" r="2.5" fill="#DBDBDB"/>
<circle cx="29.5" cy="11.9902" r="2.5" fill="#DBDBDB"/>
<circle cx="119.5" cy="11.9902" r="2.5" fill="#DBDBDB"/>
<circle cx="29.5" cy="83.9902" r="2.5" fill="#DBDBDB"/>
<circle cx="119.5" cy="83.9902" r="2.5" fill="#DBDBDB"/>
<circle cx="29.5" cy="47.9902" r="2.5" fill="#DBDBDB"/>
<circle cx="119.5" cy="47.9902" r="2.5" fill="#DBDBDB"/>
<circle cx="29.5" cy="119.99" r="2.5" fill="#DBDBDB"/>
<circle cx="119.5" cy="119.99" r="2.5" fill="#DBDBDB"/>
<circle cx="29.5" cy="2.99023" r="2.5" fill="#DBDBDB"/>
<circle cx="119.5" cy="2.99023" r="2.5" fill="#DBDBDB"/>
<circle cx="29.5" cy="74.9902" r="2.5" fill="#DBDBDB"/>
<circle cx="119.5" cy="74.9902" r="2.5" fill="#DBDBDB"/>
<circle cx="29.5" cy="38.9902" r="2.5" fill="#DBDBDB"/>
<circle cx="119.5" cy="38.9902" r="2.5" fill="#DBDBDB"/>
<circle cx="29.5" cy="110.99" r="2.5" fill="#DBDBDB"/>
<circle cx="119.5" cy="110.99" r="2.5" fill="#DBDBDB"/>
<circle cx="29.5" cy="20.9902" r="2.5" fill="#DBDBDB"/>
<circle cx="119.5" cy="20.9902" r="2.5" fill="#DBDBDB"/>
<circle cx="29.5" cy="92.9902" r="2.5" fill="#DBDBDB"/>
<circle cx="119.5" cy="92.9902" r="2.5" fill="#DBDBDB"/>
<circle cx="29.5" cy="56.9902" r="2.5" fill="#DBDBDB"/>
<circle cx="119.5" cy="56.9902" r="2.5" fill="#DBDBDB"/>
<circle cx="29.5" cy="128.99" r="2.5" fill="#DBDBDB"/>
<circle cx="119.5" cy="128.99" r="2.5" fill="#DBDBDB"/>
<circle cx="38.5" cy="65.9902" r="2.5" fill="#DBDBDB"/>
<circle cx="128.5" cy="65.9902" r="2.5" fill="#DBDBDB"/>
<circle cx="38.5" cy="29.9902" r="2.5" fill="#DBDBDB"/>
<circle cx="128.5" cy="29.9902" r="2.5" fill="#DBDBDB"/>
<circle cx="38.5" cy="101.99" r="2.5" fill="#DBDBDB"/>
<circle cx="128.5" cy="101.99" r="2.5" fill="#DBDBDB"/>
<circle cx="38.5" cy="11.9902" r="2.5" fill="#DBDBDB"/>
<circle cx="128.5" cy="11.9902" r="2.5" fill="#DBDBDB"/>
<circle cx="38.5" cy="83.9902" r="2.5" fill="#DBDBDB"/>
<circle cx="128.5" cy="83.9902" r="2.5" fill="#DBDBDB"/>
<circle cx="38.5" cy="47.9902" r="2.5" fill="#DBDBDB"/>
<circle cx="128.5" cy="47.9902" r="2.5" fill="#DBDBDB"/>
<circle cx="38.5" cy="119.99" r="2.5" fill="#DBDBDB"/>
<circle cx="128.5" cy="119.99" r="2.5" fill="#DBDBDB"/>
<circle cx="38.5" cy="2.99023" r="2.5" fill="#DBDBDB"/>
<circle cx="128.5" cy="2.99023" r="2.5" fill="#DBDBDB"/>
<circle cx="38.5" cy="74.9902" r="2.5" fill="#DBDBDB"/>
<circle cx="128.5" cy="74.9902" r="2.5" fill="#DBDBDB"/>
<circle cx="38.5" cy="38.9902" r="2.5" fill="#DBDBDB"/>
<circle cx="128.5" cy="38.9902" r="2.5" fill="#DBDBDB"/>
<circle cx="38.5" cy="110.99" r="2.5" fill="#DBDBDB"/>
<circle cx="128.5" cy="110.99" r="2.5" fill="#DBDBDB"/>
<circle cx="38.5" cy="20.9902" r="2.5" fill="#DBDBDB"/>
<circle cx="128.5" cy="20.9902" r="2.5" fill="#DBDBDB"/>
<circle cx="38.5" cy="92.9902" r="2.5" fill="#DBDBDB"/>
<circle cx="128.5" cy="92.9902" r="2.5" fill="#DBDBDB"/>
<circle cx="38.5" cy="56.9902" r="2.5" fill="#DBDBDB"/>
<circle cx="128.5" cy="56.9902" r="2.5" fill="#DBDBDB"/>
<circle cx="38.5" cy="128.99" r="2.5" fill="#DBDBDB"/>
<circle cx="128.5" cy="128.99" r="2.5" fill="#DBDBDB"/>
</g>
<rect x="43" y="41.4902" width="50" height="50" rx="25" fill="#E95B51"/>
<path d="M76.8974 63.306C76.8386 62.6583 76.8836 60.8974 78.5399 58.4487C78.6652 58.264 78.6425 58.0148 78.4869 57.8563C77.8116 57.1686 77.3935 56.7346 77.1002 56.4309C76.7146 56.0305 76.5386 55.848 76.2809 55.6101C76.1089 55.4526 75.8486 55.4499 75.6747 55.6043C72.7877 58.1628 69.581 63.4495 70.0451 69.9265C70.317 73.7297 73.0409 76.4902 76.5217 76.4902C80.0938 76.4902 83 73.5309 83 69.8929C83 66.3834 80.2953 63.5053 76.8974 63.306ZM76.5217 75.5605C73.5325 75.5605 71.1919 73.1628 70.9553 69.8593C70.9553 69.8593 70.9553 69.8593 70.9553 69.8589C70.4333 62.5743 74.6852 57.8427 75.9698 56.5898C76.0951 56.7155 76.2382 56.8635 76.449 57.0823C76.703 57.3456 77.0508 57.706 77.5767 58.2436C75.566 61.3985 75.9453 63.6465 76.1116 63.9688C76.1905 64.1218 76.3523 64.2249 76.5217 64.2249C79.5906 64.2249 82.0871 66.7674 82.0871 69.8929C82.0871 73.018 79.5906 75.5605 76.5217 75.5605Z" fill="white"/>
<path d="M58.8975 63.306C58.8382 62.66 58.8819 60.9005 60.5399 58.4486C60.6647 58.2639 60.6424 58.0147 60.4869 57.8562C59.8129 57.1698 59.3953 56.7363 59.1025 56.4326C58.7157 56.0313 58.5391 55.8483 58.2816 55.61C58.1095 55.4525 57.8492 55.4503 57.6754 55.6037C54.7886 58.1622 51.5818 63.4481 52.0449 69.9265V69.9269C52.3177 73.7297 55.0417 76.4902 58.5222 76.4902C62.094 76.4902 65 73.5309 65 69.8929C65 66.3829 62.2955 63.5044 58.8975 63.306ZM58.5222 75.5605C55.5338 75.5605 53.1921 73.1627 52.955 69.8588V69.8593C52.4345 62.5728 56.686 57.8421 57.9704 56.5897C58.0961 56.7154 58.2397 56.8643 58.4509 57.0836C58.7045 57.3469 59.0517 57.7069 59.5768 58.2435C57.5662 61.3989 57.9455 63.6464 58.1117 63.9683C58.1906 64.1213 58.3528 64.2248 58.5222 64.2248C61.5909 64.2248 64.0872 66.7674 64.0872 69.8929C64.0872 73.0179 61.5909 75.5605 58.5222 75.5605Z" fill="white"/>
</svg>
