<svg width="40" height="40" viewBox="0 0 40 40" fill="none" xmlns="http://www.w3.org/2000/svg">
<path d="M13.3349 20C13.3349 16.3182 16.3187 13.3328 20.0005 13.3328C23.6822 13.3328 26.6677 16.3182 26.6677 20C26.6677 23.6818 23.6822 26.6672 20.0005 26.6672C16.3187 26.6672 13.3349 23.6818 13.3349 20ZM9.73073 20C9.73073 25.672 14.3285 30.2698 20.0005 30.2698C25.6725 30.2698 30.2703 25.672 30.2703 20C30.2703 14.328 25.6725 9.73024 20.0005 9.73024C14.3285 9.73024 9.73073 14.328 9.73073 20ZM28.2768 9.32304C28.2766 9.79772 28.4172 10.2618 28.6807 10.6566C28.9443 11.0514 29.319 11.3591 29.7575 11.5409C30.196 11.7228 30.6785 11.7705 31.1441 11.6781C31.6097 11.5857 32.0374 11.3572 32.3732 11.0217C32.709 10.6862 32.9377 10.2587 33.0305 9.79316C33.1233 9.32764 33.076 8.84506 32.8945 8.40645C32.713 7.96783 32.4055 7.59288 32.011 7.32901C31.6164 7.06513 31.1524 6.92419 30.6778 6.924H30.6768C30.0405 6.9243 29.4304 7.17712 28.9804 7.62693C28.5304 8.07675 28.2774 8.68678 28.2768 9.32304ZM11.9205 36.2795C9.97057 36.1907 8.91073 35.8659 8.20641 35.5915C7.27265 35.228 6.60641 34.795 5.90593 34.0955C5.20545 33.396 4.77185 32.7304 4.40993 31.7966C4.13537 31.0926 3.81057 30.0325 3.72193 28.0826C3.62497 25.9744 3.60561 25.3411 3.60561 20.0002C3.60561 14.6592 3.62657 14.0277 3.72193 11.9178C3.81073 9.96784 4.13793 8.90976 4.40993 8.20368C4.77345 7.26992 5.20641 6.60368 5.90593 5.9032C6.60545 5.20272 7.27105 4.76912 8.20641 4.4072C8.91041 4.13264 9.97057 3.80784 11.9205 3.7192C14.0286 3.62224 14.6619 3.60288 20.0005 3.60288C25.3391 3.60288 25.973 3.62384 28.0829 3.7192C30.0328 3.808 31.0909 4.1352 31.797 4.4072C32.7307 4.76912 33.397 5.20368 34.0975 5.9032C34.7979 6.60272 35.2299 7.26992 35.5935 8.20368C35.868 8.90768 36.1928 9.96784 36.2815 11.9178C36.3784 14.0277 36.3978 14.6592 36.3978 20.0002C36.3978 25.3411 36.3784 25.9726 36.2815 28.0826C36.1926 30.0325 35.8662 31.0923 35.5935 31.7966C35.2299 32.7304 34.797 33.3966 34.0975 34.0955C33.3979 34.7944 32.7307 35.228 31.797 35.5915C31.093 35.8661 30.0328 36.1909 28.0829 36.2795C25.9747 36.3765 25.3414 36.3958 20.0005 36.3958C14.6595 36.3958 14.028 36.3765 11.9205 36.2795ZM11.7549 0.12112C9.62577 0.21808 8.17089 0.55568 6.90033 1.05008C5.58449 1.56064 4.47057 2.2456 3.35745 3.35696C2.24433 4.46832 1.56113 5.584 1.05057 6.89984C0.556168 8.1712 0.218568 9.62528 0.121608 11.7544C0.0230483 13.8869 0.000488281 14.5686 0.000488281 20C0.000488281 25.4314 0.0230483 26.1131 0.121608 28.2456C0.218568 30.3749 0.556168 31.8288 1.05057 33.1002C1.56113 34.4152 2.24449 35.5322 3.35745 36.643C4.47041 37.7539 5.58449 38.4379 6.90033 38.9499C8.17329 39.4443 9.62577 39.7819 11.7549 39.8789C13.8885 39.9758 14.5691 40 20.0005 40C25.4318 40 26.1136 39.9774 28.2461 39.8789C30.3754 39.7819 31.8293 39.4443 33.1007 38.9499C34.4157 38.4379 35.5304 37.7544 36.6435 36.643C37.7566 35.5317 38.4384 34.4152 38.9504 33.1002C39.4448 31.8288 39.784 30.3747 39.8794 28.2456C39.9763 26.1115 39.9989 25.4314 39.9989 20C39.9989 14.5686 39.9763 13.8869 39.8794 11.7544C39.7824 9.62512 39.4448 8.1704 38.9504 6.89984C38.4384 5.5848 37.7549 4.47008 36.6435 3.35696C35.5322 2.24384 34.4157 1.56064 33.1023 1.05008C31.8293 0.55568 30.3752 0.21648 28.2477 0.12112C26.1152 0.02416 25.4334 0 20.0021 0C14.5707 0 13.8885 0.02256 11.7549 0.12112Z" fill="white"/>
<path d="M13.3349 20C13.3349 16.3182 16.3187 13.3328 20.0005 13.3328C23.6822 13.3328 26.6677 16.3182 26.6677 20C26.6677 23.6818 23.6822 26.6672 20.0005 26.6672C16.3187 26.6672 13.3349 23.6818 13.3349 20ZM9.73073 20C9.73073 25.672 14.3285 30.2698 20.0005 30.2698C25.6725 30.2698 30.2703 25.672 30.2703 20C30.2703 14.328 25.6725 9.73024 20.0005 9.73024C14.3285 9.73024 9.73073 14.328 9.73073 20ZM28.2768 9.32304C28.2766 9.79772 28.4172 10.2618 28.6807 10.6566C28.9443 11.0514 29.319 11.3591 29.7575 11.5409C30.196 11.7228 30.6785 11.7705 31.1441 11.6781C31.6097 11.5857 32.0374 11.3572 32.3732 11.0217C32.709 10.6862 32.9377 10.2587 33.0305 9.79316C33.1233 9.32764 33.076 8.84506 32.8945 8.40645C32.713 7.96783 32.4055 7.59288 32.011 7.32901C31.6164 7.06513 31.1524 6.92419 30.6778 6.924H30.6768C30.0405 6.9243 29.4304 7.17712 28.9804 7.62693C28.5304 8.07675 28.2774 8.68678 28.2768 9.32304ZM11.9205 36.2795C9.97057 36.1907 8.91073 35.8659 8.20641 35.5915C7.27265 35.228 6.60641 34.795 5.90593 34.0955C5.20545 33.396 4.77185 32.7304 4.40993 31.7966C4.13537 31.0926 3.81057 30.0325 3.72193 28.0826C3.62497 25.9744 3.60561 25.3411 3.60561 20.0002C3.60561 14.6592 3.62657 14.0277 3.72193 11.9178C3.81073 9.96784 4.13793 8.90976 4.40993 8.20368C4.77345 7.26992 5.20641 6.60368 5.90593 5.9032C6.60545 5.20272 7.27105 4.76912 8.20641 4.4072C8.91041 4.13264 9.97057 3.80784 11.9205 3.7192C14.0286 3.62224 14.6619 3.60288 20.0005 3.60288C25.3391 3.60288 25.973 3.62384 28.0829 3.7192C30.0328 3.808 31.0909 4.1352 31.797 4.4072C32.7307 4.76912 33.397 5.20368 34.0975 5.9032C34.7979 6.60272 35.2299 7.26992 35.5935 8.20368C35.868 8.90768 36.1928 9.96784 36.2815 11.9178C36.3784 14.0277 36.3978 14.6592 36.3978 20.0002C36.3978 25.3411 36.3784 25.9726 36.2815 28.0826C36.1926 30.0325 35.8662 31.0923 35.5935 31.7966C35.2299 32.7304 34.797 33.3966 34.0975 34.0955C33.3979 34.7944 32.7307 35.228 31.797 35.5915C31.093 35.8661 30.0328 36.1909 28.0829 36.2795C25.9747 36.3765 25.3414 36.3958 20.0005 36.3958C14.6595 36.3958 14.028 36.3765 11.9205 36.2795ZM11.7549 0.12112C9.62577 0.21808 8.17089 0.55568 6.90033 1.05008C5.58449 1.56064 4.47057 2.2456 3.35745 3.35696C2.24433 4.46832 1.56113 5.584 1.05057 6.89984C0.556168 8.1712 0.218568 9.62528 0.121608 11.7544C0.0230483 13.8869 0.000488281 14.5686 0.000488281 20C0.000488281 25.4314 0.0230483 26.1131 0.121608 28.2456C0.218568 30.3749 0.556168 31.8288 1.05057 33.1002C1.56113 34.4152 2.24449 35.5322 3.35745 36.643C4.47041 37.7539 5.58449 38.4379 6.90033 38.9499C8.17329 39.4443 9.62577 39.7819 11.7549 39.8789C13.8885 39.9758 14.5691 40 20.0005 40C25.4318 40 26.1136 39.9774 28.2461 39.8789C30.3754 39.7819 31.8293 39.4443 33.1007 38.9499C34.4157 38.4379 35.5304 37.7544 36.6435 36.643C37.7566 35.5317 38.4384 34.4152 38.9504 33.1002C39.4448 31.8288 39.784 30.3747 39.8794 28.2456C39.9763 26.1115 39.9989 25.4314 39.9989 20C39.9989 14.5686 39.9763 13.8869 39.8794 11.7544C39.7824 9.62512 39.4448 8.1704 38.9504 6.89984C38.4384 5.5848 37.7549 4.47008 36.6435 3.35696C35.5322 2.24384 34.4157 1.56064 33.1023 1.05008C31.8293 0.55568 30.3752 0.21648 28.2477 0.12112C26.1152 0.02416 25.4334 0 20.0021 0C14.5707 0 13.8885 0.02256 11.7549 0.12112Z" fill="white"/>
</svg>
