<svg width="40" height="41" viewBox="0 0 40 41" fill="none" xmlns="http://www.w3.org/2000/svg">
<g clip-path="url(#clip0_1173_4598)">
<path d="M9.08014 40.9991V14.0102H0.505422V40.9991H9.08104H9.08014ZM4.79457 10.3259C7.78413 10.3259 9.64533 8.2535 9.64533 5.66355C9.58937 3.01459 7.78413 1 4.85143 1C1.91671 1 0 3.01459 0 5.66332C0 8.25327 1.86053 10.3257 4.73839 10.3257H4.7939L4.79457 10.3259ZM13.8264 40.9991H22.4004V25.9289C22.4004 25.1233 22.4564 24.3157 22.6829 23.7403C23.3025 22.128 24.7133 20.4591 27.0826 20.4591C30.1846 20.4591 31.4262 22.9338 31.4262 26.5623V40.9991H40V25.5245C40 17.235 35.7704 13.3774 30.129 13.3774C25.5039 13.3774 23.4726 16.0819 22.344 17.9239H22.4011V14.0111H13.8268C13.9387 16.543 13.8261 41 13.8261 41L13.8264 40.9991Z" fill="white"/>
</g>
<defs>
<clipPath id="clip0_1173_4598">
<rect width="40" height="40" fill="white" transform="translate(0 0.836914)"/>
</clipPath>
</defs>
</svg>
