<svg width="40" height="41" viewBox="0 0 40 41" fill="none" xmlns="http://www.w3.org/2000/svg">
<g clip-path="url(#clip0_1173_4597)">
<path d="M17.5136 1.13602C10.3925 1.88444 3.30028 7.25047 3.01197 14.9324C2.82458 19.6206 4.82829 23.1368 9.61412 24.1252C10.1619 21.9082 10.2628 20.7079 10.2628 20.7079C10.2628 20.7079 8.15819 18.731 7.94196 17.4742C6.18331 7.36344 20.4399 0.458201 27.9214 7.51877C33.082 12.4188 29.68 27.4861 21.3481 25.9186C13.3621 24.4218 25.2546 12.4329 18.8831 10.0747C13.708 8.15422 10.9547 15.935 13.4053 19.79C11.9638 26.427 8.86453 32.6826 10.1187 41C14.1981 38.2464 15.5676 32.9651 16.692 27.4578C18.7389 28.6158 19.8345 29.8302 22.4436 30.0138C32.0729 30.7057 37.4498 21.0468 36.138 12.1223C34.956 4.21442 26.5087 0.189899 17.5136 1.13602Z" fill="white"/>
</g>
<defs>
<clipPath id="clip0_1173_4597">
<rect width="40" height="40" fill="white" transform="translate(0 0.836914)"/>
</clipPath>
</defs>
</svg>
