<svg width="40" height="40" viewBox="0 0 40 40" fill="none" xmlns="http://www.w3.org/2000/svg">
<path d="M12.5796 37.6667C27.6746 37.6667 35.9296 24.3307 35.9296 12.7663C35.9296 12.3876 35.9224 12.0106 35.9063 11.6351C37.5126 10.3957 38.8988 8.86113 40 7.10332C38.5295 7.80047 36.9472 8.26968 35.2872 8.48123C36.9815 7.39781 38.2823 5.68381 38.896 3.64073C37.285 4.65984 35.5226 5.37825 33.6848 5.76501C32.1872 4.06392 30.0552 3 27.6944 3C23.1624 3 19.4872 6.91924 19.4872 11.7503C19.4872 12.4371 19.5593 13.105 19.7002 13.7458C12.8794 13.3798 6.8313 9.89737 2.78358 4.60212C2.05454 5.93769 1.67108 7.45558 1.67236 9.0008C1.67236 12.0371 3.12114 14.7174 5.32439 16.2856C4.02114 16.2431 2.7465 15.8677 1.60764 15.191C1.60642 15.2277 1.60642 15.2635 1.60642 15.3028C1.60642 19.541 4.4352 23.0797 8.19032 23.8816C7.48506 24.0864 6.75731 24.1899 6.02634 24.1895C5.49846 24.1895 4.98398 24.1341 4.48398 24.0317C5.52878 27.509 8.55837 30.0394 12.1503 30.1101C9.34146 32.4578 5.80317 33.8562 1.95756 33.8562C1.30337 33.8568 0.649721 33.8163 0 33.7349C3.63203 36.2175 7.94471 37.6661 12.58 37.6661" fill="white"/>
</svg>
