<svg width="40" height="41" viewBox="0 0 40 41" fill="none" xmlns="http://www.w3.org/2000/svg">
<g clip-path="url(#clip0_1173_4596)">
<path d="M20.8862 33.3042L12.6797 33.1686C10.0227 33.1213 7.35898 33.2156 4.75401 32.7261C0.791256 31.9946 0.51052 28.4082 0.21676 25.3999C-0.188012 21.1706 -0.0313125 16.8645 0.732544 12.6704C1.16377 10.3172 2.8608 8.91293 5.48521 8.76012C14.3445 8.20557 23.2627 8.27129 32.1024 8.53001C33.0359 8.55373 33.9759 8.68336 34.8965 8.83091C39.4406 9.55059 39.5514 13.6148 39.8459 17.0361C40.1397 20.4927 40.0157 23.9671 39.4542 27.4001C39.0037 30.2426 38.1419 32.6263 34.5047 32.8564C29.9477 33.1573 25.4952 33.3996 20.9252 33.3224C20.9254 33.3042 20.8992 33.3042 20.8862 33.3042ZM16.0616 26.1078C19.4957 24.3263 22.8643 22.5744 26.2789 20.8048C22.8383 19.0233 19.4761 17.2715 16.0616 15.5019V26.1078Z" fill="white"/>
</g>
<defs>
<clipPath id="clip0_1173_4596">
<rect width="40" height="40" fill="white" transform="translate(0 0.836914)"/>
</clipPath>
</defs>
</svg>
